<?xml version="1.0" encoding="utf-8"?>
<!-- Generator: Adobe Illustrator 15.0.0, SVG Export Plug-In . SVG Version: 6.00 Build 0)  -->
<!DOCTYPE svg PUBLIC "-//W3C//DTD SVG 1.1//EN" "http://www.w3.org/Graphics/SVG/1.1/DTD/svg11.dtd">
<svg version="1.1" id="Layer_1" xmlns="http://www.w3.org/2000/svg" xmlns:xlink="http://www.w3.org/1999/xlink" x="0px" y="0px"
	 width="141.02px" height="289.094px" viewBox="0 0 141.02 289.094" enable-background="new 0 0 141.02 289.094"
	 xml:space="preserve">
<g>
	<g>
		<path fill="#FFFFFF" d="M141.02,141.022H0V0h141.02V141.022z M1.357,139.664h138.306V1.356H1.357V139.664z"/>
	</g>
	<g>
		<path fill="#FFFFFF" d="M23.011,62.043c1.074,0.587,2.343,0.977,3.807,1.269l1.269,5.857l-5.857,25.184l-2.635,1.854l-7.32,31.429
			l-5.955,4.587L23.011,62.043z M27.892,62.141c-5.466-0.098-9.859-4.393-9.859-9.761c0-5.759,4.49-9.859,10.151-9.859
			c2.635,0,4.978,1.171,6.539,3.124c-2.244-0.292-4.392,1.269-5.075,3.026c-0.585-0.195-1.074-0.195-1.464-0.195
			c-2.245,0-4.002,1.757-4.002,3.904c0,2.147,1.758,4.002,4.002,4.002c2.245,0,3.612-1.758,3.612-4.002c0-0.098,0-0.292,0-0.39
			c0.097-0.099,0.292-0.099,0.585-0.099c0.39,0,0.781,0.196,0.781,0.879c0,0.781-0.293,2.245-0.293,3.709
			c0,1.366,0.293,2.342,0.683,3.318l3.32,13.861c-0.489,0.391-0.977,0.878-1.368,1.464c-1.854,0.391-3.416,1.562-4.098,3.221
			L27.892,62.141z M48.292,71.316c-2.83,0-4.588,0.196-6.541,0.196c-3.025,0-5.27-1.27-5.953-3.71c1.171,0,2.049-0.976,2.049-2.147
			c0-2.343-3.611-4.685-3.611-9.175c0-1.464,0.195-2.831,0.195-3.904c0-1.171-0.976-1.952-2.05-1.952
			c-0.878,0-1.659,0.39-2.05,0.781c-0.195-2.733,2.05-4.783,4.881-4.588c0.39-0.878,1.854-1.953,3.514-1.953
			c1.171,0,1.757,0.293,2.343,0.684c0.488-0.195,1.073-0.293,1.854-0.293c2.245,0,4.685,1.855,4.685,4.685
			c0,2.636-1.562,3.904-3.123,4.979c-0.781,0.586-0.976,1.171-0.878,2.049c0.097,1.074,0.683,2.929,0.976,3.905
			c0.292,0.878,0.976,1.269,2.05,1.171c5.368-0.391,13.079-0.975,17.764-1.171c4.393-0.195,7.517-0.293,11.128-0.488
			c-6.834,1.659-10.738,6.247-11.811,12.788l-3.124,1.657C59.907,72.193,56.393,71.316,48.292,71.316z M43.899,97.769
			c1.171-0.294,1.756-1.172,1.756-1.952c0-1.172-0.683-1.952-1.562-2.538c-1.464-0.88-3.025-1.659-4.392-2.831
			c-1.465-1.269-2.343-2.342-3.221-3.515c-0.683-0.779-1.269-1.073-2.148-1.073c-1.073,0-1.854,0.781-1.854,1.659
			c0,0.488,0.098,0.881,0.292,1.173c-1.464-0.488-2.342-2.051-2.342-3.71c0-1.562,0.977-2.732,1.952-3.318
			c-0.097-0.292-0.195-0.684-0.195-1.172c0-2.05,1.659-4.002,4.295-4.195c0.488-1.368,1.953-2.442,3.905-2.442
			c2.342,0,4.782,1.758,4.782,4.882c0,1.562-0.39,1.952-0.39,3.122c0,0.684,0.195,1.27,1.171,2.246
			c1.172,1.172,1.757,1.854,2.44,1.854c0.684,0,1.074-0.292,1.854-0.878c4.392-3.708,8.199-7.613,13.471-10.443
			c0.098,4.586,1.854,8.298,5.661,11.127l-3.319,2.538c-0.585-0.586-1.171-0.782-1.952-0.782c-1.269,0-2.538,0.488-4.49,1.759
			c-2.246,1.464-5.954,5.27-8.589,7.808c-1.465,1.464-3.026,2.245-4.49,2.245C45.364,99.33,44.387,98.843,43.899,97.769z
			 M35.602,79.81c-1.269,0-2.147,0.682-2.342,1.464c0.39-0.099,0.879-0.196,1.463-0.196c1.465,0,2.734,0.685,3.32,1.856
			C38.336,81.077,37.262,79.81,35.602,79.81z M44.778,127.636l-7.321-31.429l-2.636-1.854l-1.269-6.052
			c-0.194-0.782,0.196-1.172,0.781-1.172c0.39,0,0.684,0.196,1.074,0.586c1.269,1.464,2.05,2.342,3.417,3.514
			c0.781,0.685,1.756,1.269,2.733,1.756l6.051,26.257c-0.975,0.879-1.659,2.246-1.659,3.708c0,1.076,0.294,2.052,0.781,2.93
			c-0.195,0.488-0.293,0.977-0.293,1.562c0,0.584,0.098,1.172,0.39,1.756L44.778,127.636z M39.995,49.549
			c0-1.659-1.367-2.733-2.636-2.733c-0.585,0-0.976,0.196-1.268,0.293c1.659,0.684,2.83,2.147,2.733,4.881
			C39.702,51.404,39.995,50.428,39.995,49.549z M41.557,78.344c0-1.269-1.074-2.438-2.441-2.438c-0.78,0-1.269,0.292-1.561,0.486
			c1.854,0.392,3.318,1.952,3.416,3.905C41.264,79.81,41.557,79.321,41.557,78.344z M44.681,48.965c0-1.465-1.27-2.539-2.733-2.539
			c0.584,0.488,1.171,1.66,1.171,2.929c0,0.584-0.098,1.366-0.489,2.245C43.802,51.209,44.681,50.33,44.681,48.965z M47.804,127.441
			c0-0.684,0.097-1.074,0.391-1.758c-0.489-0.584-0.879-1.562-0.879-2.734c0-1.17,0.585-2.438,1.854-3.22
			c-0.391-2.928,1.952-4.88,4.588-4.88c2.928,0,4.392,2.05,4.881,4.1c0.39,1.465,0.976,1.952,1.66,2.049
			c1.268,0.195,3.317,0,4.098-0.194c0.879-0.196,1.27-0.684,1.27-2.148c0.098-10.247-1.172-16.789-1.172-20.497
			c0-4.002,2.245-5.76,4.588-6.539c3.123-1.074,9.273-1.952,12.298-1.854c1.366,0,2.05,0.878,2.636,1.756
			c1.072,1.66,1.952,3.416,3.024,5.662c-0.78,0.39-1.17,1.074-1.17,2.05c0,1.366,0.779,2.538,1.854,3.124l-11.419,0.292
			c-0.099,0.684-0.099,1.368-0.099,1.952c0,1.27,0.88,2.147,2.05,2.147c0.878,0,1.66-0.292,2.344-0.878
			c0.391,4.002-2.052,5.27-4.587,5.368c0.096,3.611,0.292,6.245,0.292,12.787c0,4.684-2.343,7.514-5.662,7.514
			c0.197-0.194,0.294-0.486,0.294-0.78c0-1.854-2.05-2.733-3.514-2.733c-2.929,0-4.49,2.344-7.712,2.344
			c-2.83,0-4.002-2.344-6.149-2.344c-1.367,0-2.343,0.88-2.343,2.05c0,0.586,0.195,1.074,0.586,1.562
			C49.95,131.637,47.804,129.881,47.804,127.441z M51.61,122.17c-1.854,0-2.832,1.464-2.635,2.636
			c0.39-0.488,1.171-1.172,2.733-1.172c1.268,0,2.244,0.586,2.83,1.27C54.538,123.537,53.562,122.17,51.61,122.17z M52.489,117.68
			c-1.562,0-2.343,0.878-2.441,1.66c0.39-0.196,0.976-0.391,1.854-0.391c1.562,0,2.831,0.879,3.222,1.757
			C55.319,119.144,54.343,117.68,52.489,117.68z M65.177,74.733c0-6.443,4.882-12.201,12.396-13.959
			c2.832-0.683,5.271-1.074,8.59-1.952c6.247-1.659,8.199-4.392,8.199-8.004c0-0.976-0.195-1.757-0.684-2.538
			c0.098,0.585,0.098,1.074,0.098,1.659c0,3.904-3.611,7.418-8.882,7.907c-2.831,0.195-5.855,0.585-8.785,0.879
			c-0.682,0.097-0.976-0.196-0.976-0.781l-0.099-4.686c0-0.196,0.099-0.39,0.393-0.39c0.193,0,0.292,0.097,0.39,0.292
			c0.586,0.879,1.756,1.757,3.416,1.757c1.367,0,2.147-0.781,2.147-1.659c0-0.977-0.878-1.854-2.636-1.854
			c-3.808,0-5.76,2.636-9.956,2.636c-4.587,0-6.149-2.246-6.149-4.393c0-1.757,0.975-2.831,2.245-3.416
			c-0.391,0.488-0.489,0.878-0.489,1.562c0,1.464,1.758,2.635,4.881,2.635c2.927,0,4.781-0.683,7.027-0.683
			c2.928,0,4.686,0.976,5.466,2.049c-0.099-2.245-1.759-4.197-3.904-4.197c-1.464,0-2.05,0.879-2.246,1.269
			c-0.096,0.292-0.292,0.391-0.487,0.391c-0.196,0-0.391-0.098-0.391-0.292l-0.488-4.881c-0.098-0.585,0.196-0.878,0.977-0.976
			l4.978-0.391c0.878,2.44,1.464,3.807,2.734,3.807c0.682,0,0.976-0.781,0.976-1.463c1.074-0.294,2.147-0.294,3.22-0.197
			c-1.268-0.878-5.466-0.39-6.733-2.146c2.05-0.098,3.611-0.196,5.271-0.196c1.658,0,3.122,0,4.488,0.196
			c1.562,0.195,3.123,1.074,3.123,2.733c0,1.073-0.584,1.854-1.659,1.854c-0.391,0-0.683-0.098-1.074-0.391
			c0.098,0.781,0.88,1.27,1.66,1.27c1.27,0,2.147-0.781,2.147-2.441c0-0.879-0.195-1.854-0.878-2.635
			c2.05,1.659,3.318,4.587,3.318,8.003c0,5.955-2.146,9.078-8.784,11.421c-3.418,1.17-6.149,1.952-9.567,3.221
			c-5.562,2.049-8.881,5.857-8.881,11.225c0,3.71,1.853,7.907,5.759,9.859C69.375,86.055,65.177,80.688,65.177,74.733z
			 M71.034,77.27c0-5.271,2.928-8.393,8.588-10.542c3.124-1.171,6.149-2.049,8.979-2.927c6.932-2.44,9.372-6.053,9.372-12.494
			c0-2.733-0.782-5.369-2.05-6.931c2.147,1.855,3.903,4.685,3.903,9.565c0,5.076-1.464,10.249-8.491,12.884
			c-3.318,1.27-5.174,1.952-8.688,3.416c-5.466,2.344-7.222,5.466-7.222,9.664c0,4.002,2.146,6.248,3.806,7.613
			C75.23,86.837,71.034,82.735,71.034,77.27z M76.891,80.003c0-3.903,1.854-6.539,6.636-8.784c3.027-1.367,5.271-1.855,8.785-3.319
			c6.93-2.734,8.688-7.906,8.688-13.86c0-2.05-0.292-4.491-1.368-6.541c1.467,1.757,3.223,4.491,3.223,9.858
			c0,5.564-1.854,10.738-8.004,13.763c-2.928,1.367-4.88,2.149-8.2,3.708c-3.806,1.954-5.953,4.687-5.953,7.906
			c0,2.54,1.172,4.491,2.246,5.565C79.232,87.227,76.891,83.713,76.891,80.003z M85.771,41.448c-1.951,0-3.903,0.098-5.953,0.292
			l-2.636-5.172h4.489c0,1.171,0.88,2.049,1.952,2.049c1.074,0,1.952-0.878,1.952-2.049h4.004c0,1.268,0.779,2.049,1.951,2.049
			c1.072,0,1.952-1.073,1.952-2.049h4.49l-3.026,5.369C92.506,41.644,89.384,41.448,85.771,41.448z M82.162,82.835
			c0-2.733,1.854-4.978,5.172-6.735c2.342-1.172,4.294-1.952,8.199-3.906c6.148-3.024,8.492-8.002,8.492-14.738
			c0-1.757-0.294-3.221-0.586-4.977c1.073,2.146,1.951,4.685,1.951,7.906c0,6.441-2.243,12.689-8.688,16.007
			c-2.731,1.368-4.294,2.246-6.344,3.222c-3.123,1.366-4.588,3.514-4.588,6.052c0,1.952,0.488,3.026,0.977,3.904
			C83.918,88.789,82.162,86.249,82.162,82.835z M87.138,99.427c0-0.977,0.294-1.561,1.464-1.756
			c-1.365-3.026-2.439-4.979-3.22-6.248c-0.294-0.488,0-0.78,0.39-0.78c0.586,0,1.074,0.196,1.465,0.78
			c0.684,0.88,1.562,2.246,2.245,3.514c1.269,2.246,2.05,4.394,2.146,7.518h-0.977C88.602,102.454,87.138,100.988,87.138,99.427z
			 M94.067,127.441c0-0.684,0.099-1.074,0.393-1.758c-0.488-0.584-0.878-1.562-0.878-2.734c0-1.17,0.584-2.438,1.854-3.22
			c-0.39-2.928,1.952-4.88,4.588-4.88c2.928,0,4.392,2.05,4.88,4.1c0.39,1.465,0.976,1.952,1.66,2.049
			c1.268,0.195,3.317,0,4.098-0.194c0.88-0.196,1.27-0.684,1.27-2.148c0-2.439-0.682-5.659-1.27-8.394
			c-1.464,0.194-5.076,0.391-7.808,0.391c-6.052,0-9.468-2.732-10.054-8.688c-0.196-2.44-0.685-4.782-2.148-7.418
			c-1.071-2.05-3.514-4.782-3.514-8.298c0-2.634,0.977-4.195,4.004-5.66c2.146-0.976,4.684-2.147,6.832-3.415
			c-0.099,3.415,1.952,8.003,4.588,9.955c2.928,2.148,5.659,2.734,9.661,2.734c4.588,0,8.979-1.368,11.323-4.101
			c-1.365,0.878-3.222,1.366-5.563,1.366c-7.224,0-11.81-5.563-11.81-11.518c0-4.295,2.342-8.103,6.246-11.323
			c3.222-2.636,6.149-4.294,8.394-6.54c1.464-1.464,2.733-3.221,2.733-5.27c0-2.441-1.659-4.783-3.415-5.466
			c0.976-1.171,2.928-2.246,4.684-2.246c2.93,0,5.661,2.147,5.661,4.979c0,2.146-1.268,3.806-2.928,4.587
			c0.099,1.66-0.976,3.806-2.243,5.174c-2.442,2.635-6.933,5.466-9.86,7.809c-2.928,2.342-4.489,4.783-4.489,8.101
			c0,4.394,3.514,7.613,8.004,7.613c4.195,0,7.808-3.22,7.808-7.712c0-4.099-2.929-7.125-7.418-9.173l3.71-2.636
			c4.002,2.342,8.394,5.563,8.394,12.494c0,9.565-7.71,17.959-20.203,17.959c-3.906,0-4.979-0.486-7.42-1.464
			c1.562,1.464,3.222,3.611,3.318,6.247c1.951,0.586,3.319,0.878,7.518,0.878c1.854,0,4.392-0.292,6.441-0.878
			c1.464-0.392,2.342-0.976,2.83-1.659c0.487,0.781,0.779,1.659,0.779,2.439c0,2.246-1.657,4.002-3.415,4.394
			c0.684,6.93,1.27,13.859,1.27,20.107c0,4.684-2.342,7.514-5.662,7.514c0.196-0.194,0.294-0.486,0.294-0.78
			c0-1.854-2.05-2.733-3.514-2.733c-2.93,0-4.491,2.344-7.712,2.344c-2.829,0-4.001-2.344-6.149-2.344
			c-1.366,0-2.342,0.88-2.342,2.05c0,0.586,0.194,1.074,0.586,1.562C96.218,131.637,94.067,129.881,94.067,127.441z M97.875,122.17
			c-1.855,0-2.829,1.464-2.636,2.636c0.391-0.488,1.172-1.172,2.734-1.172c1.268,0,2.244,0.586,2.83,1.27
			C100.804,123.537,99.827,122.17,97.875,122.17z M98.753,117.68c-1.562,0-2.342,0.878-2.439,1.66
			c0.39-0.196,0.976-0.391,1.855-0.391c1.562,0,2.83,0.879,3.221,1.757C101.585,119.144,100.609,117.68,98.753,117.68z
			 M110.955,54.137c-1.464-0.781-2.734-2.439-2.734-4.392c0-2.831,2.44-4.979,5.37-4.979c2.244,0,3.806,1.074,4.781,2.246
			c-1.854,0.976-3.317,3.318-3.317,5.466c0,2.83,1.464,4.587,2.83,6.051l-3.612,2.636C112.223,59.31,110.955,56.87,110.955,54.137z"
			/>
	</g>
	<g>
		<path fill="#FFFFFF" d="M141.02,289.092H0V148.071h141.02V289.092z M1.357,287.736h138.306V149.43H1.357V287.736z"/>
	</g>
	<g>
		<path fill="#FFFFFF" d="M10.763,243.774c0-2.747,2.167-4.421,4.713-4.421c1.013,0,1.648,0.177,2.154,0.405v2.141
			c-0.481-0.239-1.026-0.418-1.812-0.418c-1.153,0-2.344,0.735-2.344,2.293c0,1.559,1.305,2.244,2.205,2.244
			c0.899,0,1.47-0.229,1.964-0.494v2.166c-0.519,0.267-1.381,0.533-2.408,0.533C12.702,248.224,10.763,246.524,10.763,243.774z"/>
		<path fill="#FFFFFF" d="M18.88,246.182l3.598-4.7h-3.523v-2.015h6.627v1.812l-3.662,4.789h3.726v2.015H18.88V246.182z"/>
		<path fill="#FFFFFF" d="M27.542,239.467h5.942v1.964h-3.459v1.382h3.344v1.913h-3.344v1.393h3.459v1.964h-5.942V239.467z"/>
	</g>
	<g>
		<path fill="#FFFFFF" d="M35.241,243.774c0-2.747,2.166-4.421,4.713-4.421c1.013,0,1.646,0.177,2.154,0.405v2.141
			c-0.482-0.239-1.027-0.418-1.812-0.418c-1.153,0-2.344,0.735-2.344,2.293c0,1.559,1.304,2.244,2.204,2.244
			c0.901,0,1.47-0.229,1.964-0.494v2.166c-0.519,0.267-1.38,0.533-2.407,0.533C37.179,248.224,35.241,246.524,35.241,243.774z"/>
	</g>
	<g>
		<path fill="#FFFFFF" d="M46.475,239.467v3.295h2.547v-3.295h2.483v8.615h-2.483v-3.368h-2.547v3.368h-2.483v-8.615H46.475z"/>
		<path fill="#FFFFFF" d="M58.086,241.481h-2.154v-2.015h6.778v2.015h-2.141v6.601h-2.483V241.481z"/>
		<path fill="#FFFFFF" d="M64.316,239.467h5.941v1.964h-3.458v1.382h3.345v1.913h-3.345v1.393h3.458v1.964h-5.941V239.467z"/>
	</g>
	<g>
		<path fill="#FFFFFF" d="M72.04,243.774c0-2.747,2.167-4.421,4.713-4.421c1.016,0,1.648,0.177,2.154,0.405v2.141
			c-0.48-0.239-1.027-0.418-1.812-0.418c-1.154,0-2.344,0.735-2.344,2.293c0,1.559,1.306,2.244,2.205,2.244s1.47-0.229,1.964-0.494
			v2.166c-0.52,0.267-1.382,0.533-2.407,0.533C73.979,248.224,72.04,246.524,72.04,243.774z"/>
	</g>
	<g>
		<path fill="#FFFFFF" d="M83.273,239.467v3.295h2.548v-3.295h2.482v8.615h-2.482v-3.368h-2.548v3.368H80.79v-8.615H83.273z"/>
		<path fill="#FFFFFF" d="M90.834,239.467h3.054l2.583,5.145h0.039v-5.145h2.482v8.615h-3.027l-2.61-5.168h-0.037v5.168h-2.483
			V239.467z"/>
		<path fill="#FFFFFF" d="M101.521,239.467h2.483v8.615h-2.483V239.467z"/>
	</g>
	<g>
		<path fill="#FFFFFF" d="M106.028,243.774c0-2.747,2.167-4.421,4.713-4.421c1.014,0,1.648,0.177,2.155,0.405v2.141
			c-0.481-0.239-1.026-0.418-1.812-0.418c-1.152,0-2.344,0.735-2.344,2.293c0,1.559,1.306,2.244,2.205,2.244s1.47-0.229,1.964-0.494
			v2.166c-0.52,0.267-1.382,0.533-2.409,0.533C107.968,248.224,106.028,246.524,106.028,243.774z"/>
	</g>
	<g>
		<path fill="#FFFFFF" d="M119.746,246.297h-2.749l-0.469,1.785h-2.548l2.573-8.615h3.636l2.585,8.615h-2.546L119.746,246.297z
			 M119.278,244.535l-0.849-3.181h-0.116l-0.849,3.181H119.278z"/>
		<path fill="#FFFFFF" d="M124.087,239.467h2.483v6.577h3.079v2.038h-5.562V239.467z"/>
	</g>
	<g>
		<path fill="#FFFFFF" d="M11.207,260.276v-5.435h2.483v5.207c0,0.976,0.532,1.407,1.229,1.407c0.696,0,1.229-0.432,1.229-1.407
			v-5.207h2.483v5.435c0,2.408-1.685,3.382-3.712,3.382C12.891,263.658,11.207,262.685,11.207,260.276z"/>
		<path fill="#FFFFFF" d="M21.097,254.842h3.053l2.585,5.145h0.038v-5.145h2.483v8.615h-3.028l-2.609-5.17H23.58v5.17h-2.483
			V254.842z"/>
		<path fill="#FFFFFF" d="M31.783,254.842h2.484v8.615h-2.484V254.842z"/>
		<path fill="#FFFFFF" d="M35.594,254.842h2.788l1.47,6.447h0.052l1.47-6.447h2.787l-2.585,8.615H38.18L35.594,254.842z"/>
		<path fill="#FFFFFF" d="M45.739,254.842h5.943v1.963h-3.459v1.38h3.345v1.915h-3.345v1.394h3.459v1.964h-5.943V254.842z"/>
		<path fill="#FFFFFF" d="M53.944,254.842h3.953c2.016,0,3.243,1.291,3.243,2.838c0,1.47-1.076,2.116-1.836,2.457l-0.013,0.051
			c0.114,0.076,0.316,0.329,0.481,0.607l1.583,2.662h-2.8l-1.495-3.028h-0.633v3.028h-2.484V254.842z M57.429,258.819
			c0.672,0,1.065-0.532,1.065-1.077s-0.393-1.064-1.065-1.064h-1v2.142H57.429z"/>
		<path fill="#FFFFFF" d="M62.847,263v-2.256c0.558,0.395,1.71,0.888,2.851,0.888c0.836,0,1.292-0.241,1.292-0.672
			c0-0.341-0.317-0.494-0.785-0.607c-0.558-0.14-0.9-0.216-1.546-0.381c-1.165-0.29-1.913-1.126-1.913-2.457
			c0-1.75,1.583-2.877,3.725-2.877c1.014,0,1.925,0.204,2.484,0.445v2.14c-0.431-0.241-1.305-0.57-2.356-0.57
			c-0.963,0-1.395,0.241-1.395,0.621c0,0.329,0.253,0.494,0.836,0.621c0.431,0.089,0.748,0.14,1.318,0.278
			c1.406,0.343,2.129,1.166,2.129,2.571c0,1.433-1.306,2.914-3.663,2.914C64.532,263.658,63.543,263.392,62.847,263z"/>
		<path fill="#FFFFFF" d="M71.47,254.842h2.482v8.615H71.47V254.842z"/>
	</g>
	<g>
		<path fill="#FFFFFF" d="M77.741,256.856h-2.156v-2.015h6.779v2.015h-2.141v6.601h-2.482V256.856z"/>
	</g>
	<g>
		<path fill="#FFFFFF" d="M85.693,260.302l-2.914-5.46h2.812l1.355,3.078h0.052l1.405-3.078h2.749l-2.977,5.46v3.155h-2.483V260.302
			z"/>
	</g>
	<g>
		<path fill="#FFFFFF" d="M11.27,270.214h2.484v8.615H11.27V270.214z"/>
		<path fill="#FFFFFF" d="M16.285,270.214h3.053l2.584,5.145h0.039v-5.145h2.483v8.615h-3.029l-2.61-5.168h-0.038v5.168h-2.483
			V270.214z"/>
	</g>
	<g>
		<path fill="#FFFFFF" d="M30.151,270.214h3.75c2.015,0,3.269,1.382,3.269,2.965c0,1.584-1.254,2.863-3.269,2.863h-1.267v2.787
			h-2.483V270.214z M33.611,274.192c0.544,0,1.039-0.443,1.039-1.064c0-0.607-0.495-1.064-1.039-1.064h-0.977v2.129H33.611z"/>
		<path fill="#FFFFFF" d="M39.002,270.214h3.954c2.014,0,3.243,1.291,3.243,2.838c0,1.47-1.078,2.116-1.837,2.459l-0.012,0.05
			c0.112,0.076,0.315,0.329,0.48,0.609l1.584,2.659h-2.8l-1.496-3.028h-0.633v3.028h-2.484V270.214z M42.487,274.192
			c0.671,0,1.065-0.531,1.065-1.076s-0.394-1.064-1.065-1.064h-1v2.141H42.487z"/>
		<path fill="#FFFFFF" d="M52.669,277.044h-2.75l-0.468,1.785h-2.547l2.572-8.615h3.636l2.585,8.615H53.15L52.669,277.044z
			 M52.2,275.282l-0.849-3.181h-0.115l-0.849,3.181H52.2z"/>
		<path fill="#FFFFFF" d="M56.642,274.521c0-2.812,1.963-4.623,4.891-4.623c1.141,0,1.976,0.315,2.484,0.543v2.028
			c-0.469-0.253-1.23-0.559-2.117-0.559c-1.609,0-2.545,0.862-2.545,2.61c0,1.623,1.063,2.357,2.026,2.357
			c0.19,0,0.379-0.025,0.558-0.064v-2.33h2.42v3.813c-0.519,0.267-1.584,0.735-3.118,0.735
			C58.834,279.033,56.642,277.334,56.642,274.521z"/>
	</g>
	<g>
		<path fill="#FFFFFF" d="M66.457,275.65v-5.437h2.483v5.209c0,0.974,0.532,1.405,1.23,1.405c0.696,0,1.228-0.432,1.228-1.405
			v-5.209h2.483v5.437c0,2.406-1.686,3.383-3.71,3.383C68.142,279.033,66.457,278.057,66.457,275.65z"/>
	</g>
	<g>
		<path fill="#FFFFFF" d="M76.346,270.214h5.941v1.964h-3.459v1.382h3.346v1.912h-3.346v1.394h3.459v1.964h-5.941V270.214z"/>
	</g>
	<g>
		<path fill="#FFFFFF" d="M45.971,168.445v22.249h9.207v-22.249h7.938v-6.788H37.985v6.788H45.971z M75.332,161.657h-9.207v18.319
			c0,8.113,6.248,11.4,13.763,11.4s13.764-3.287,13.764-11.4v-18.319h-9.207v17.549c0,3.289-1.974,4.741-4.557,4.741
			c-2.585,0-4.557-1.452-4.557-4.741V161.657z M9.573,176.175c0,9.268,7.188,14.99,16.582,14.99c3.806,0,7-0.897,8.927-1.793v-7.305
			c-1.833,0.897-3.947,1.668-7.281,1.668c-3.335,0-8.173-2.309-8.173-7.561s4.415-7.729,8.688-7.729
			c2.914,0,4.933,0.598,6.719,1.409v-7.216c-1.88-0.771-4.228-1.366-7.986-1.366C17.606,161.272,9.573,166.909,9.573,176.175"/>
	</g>
</g>
</svg>
