<?xml version="1.0" encoding="utf-8"?>
<!-- Generator: Adobe Illustrator 15.0.0, SVG Export Plug-In . SVG Version: 6.00 Build 0)  -->
<!DOCTYPE svg PUBLIC "-//W3C//DTD SVG 1.1//EN" "http://www.w3.org/Graphics/SVG/1.1/DTD/svg11.dtd">
<svg version="1.1" id="Layer_1" xmlns="http://www.w3.org/2000/svg" xmlns:xlink="http://www.w3.org/1999/xlink" x="0px" y="0px"
	 width="141.02px" height="289.094px" viewBox="0 0 141.02 289.094" enable-background="new 0 0 141.02 289.094"
	 xml:space="preserve">
<g>
	<rect width="141.021" height="141.021"/>
	<g>
		<path fill="#FFFFFF" d="M23.011,62.045c1.073,0.585,2.343,0.975,3.807,1.269l1.269,5.856l-5.856,25.183l-2.636,1.854
			l-7.322,31.431l-5.953,4.587L23.011,62.045z M27.891,62.143c-5.466-0.098-9.858-4.393-9.858-9.761
			c0-5.759,4.491-9.857,10.152-9.857c2.636,0,4.978,1.171,6.54,3.123c-2.245-0.292-4.393,1.269-5.075,3.026
			c-0.587-0.196-1.074-0.196-1.465-0.196c-2.246,0-4.002,1.757-4.002,3.905c0,2.147,1.756,4.002,4.002,4.002
			c2.246,0,3.611-1.757,3.611-4.002c0-0.097,0-0.292,0-0.391c0.098-0.097,0.292-0.097,0.586-0.097c0.39,0,0.78,0.195,0.78,0.877
			c0,0.782-0.292,2.246-0.292,3.71c0,1.367,0.292,2.342,0.683,3.318l3.318,13.86c-0.488,0.391-0.976,0.879-1.366,1.464
			c-1.855,0.39-3.417,1.562-4.1,3.222L27.891,62.143z M48.292,71.317c-2.832,0-4.587,0.195-6.54,0.195
			c-3.026,0-5.271-1.269-5.954-3.709c1.171,0,2.049-0.976,2.049-2.147c0-2.342-3.611-4.685-3.611-9.174
			c0-1.464,0.195-2.832,0.195-3.905c0-1.171-0.977-1.953-2.049-1.953c-0.879,0-1.659,0.392-2.05,0.782
			c-0.196-2.733,2.05-4.784,4.88-4.587c0.39-0.88,1.855-1.953,3.514-1.953c1.171,0,1.757,0.292,2.343,0.683
			c0.487-0.195,1.073-0.292,1.855-0.292c2.244,0,4.685,1.855,4.685,4.685c0,2.635-1.562,3.904-3.124,4.978
			c-0.781,0.586-0.978,1.172-0.878,2.05c0.098,1.073,0.683,2.927,0.975,3.905c0.293,0.877,0.977,1.269,2.049,1.171
			c5.369-0.39,13.08-0.977,17.766-1.171c4.392-0.196,7.516-0.293,11.126-0.488c-6.831,1.659-10.735,6.247-11.81,12.785l-3.124,1.66
			C59.906,72.197,56.392,71.317,48.292,71.317z M43.899,97.769c1.171-0.292,1.757-1.171,1.757-1.952
			c0-1.172-0.684-1.952-1.562-2.537c-1.464-0.879-3.026-1.659-4.393-2.83c-1.463-1.271-2.343-2.344-3.222-3.515
			c-0.683-0.78-1.269-1.073-2.146-1.073c-1.074,0-1.855,0.781-1.855,1.658c0,0.488,0.097,0.879,0.292,1.173
			c-1.464-0.488-2.342-2.05-2.342-3.71c0-1.562,0.975-2.732,1.952-3.318c-0.098-0.294-0.196-0.685-0.196-1.171
			c0-2.05,1.659-4.002,4.294-4.198c0.488-1.366,1.952-2.44,3.905-2.44c2.342,0,4.783,1.758,4.783,4.881
			c0,1.562-0.39,1.952-0.39,3.124c0,0.683,0.194,1.269,1.171,2.244c1.171,1.171,1.757,1.855,2.441,1.855
			c0.683,0,1.073-0.294,1.854-0.879c4.393-3.71,8.199-7.614,13.47-10.444c0.097,4.588,1.855,8.297,5.661,11.127l-3.319,2.539
			c-0.585-0.586-1.171-0.782-1.952-0.782c-1.269,0-2.538,0.488-4.49,1.758c-2.244,1.463-5.954,5.271-8.59,7.809
			C49.561,98.549,48,99.33,46.535,99.33C45.364,99.33,44.387,98.843,43.899,97.769z M35.602,79.809
			c-1.268,0-2.147,0.685-2.342,1.465c0.39-0.097,0.877-0.195,1.464-0.195c1.463,0,2.732,0.683,3.317,1.854
			C38.335,81.078,37.261,79.809,35.602,79.809z M44.778,127.638l-7.321-31.431l-2.636-1.854l-1.269-6.051
			c-0.196-0.782,0.194-1.172,0.782-1.172c0.39,0,0.683,0.195,1.073,0.586c1.269,1.463,2.049,2.342,3.415,3.514
			c0.782,0.683,1.758,1.269,2.733,1.757l6.053,26.256c-0.978,0.879-1.66,2.245-1.66,3.71c0,1.073,0.292,2.05,0.781,2.928
			c-0.195,0.488-0.292,0.977-0.292,1.562c0,0.586,0.098,1.171,0.391,1.758L44.778,127.638z M39.995,49.551
			c0-1.659-1.366-2.732-2.635-2.732c-0.585,0-0.977,0.193-1.269,0.292c1.659,0.683,2.831,2.147,2.732,4.879
			C39.702,51.406,39.995,50.43,39.995,49.551z M41.556,78.346c0-1.271-1.073-2.441-2.44-2.441c-0.781,0-1.269,0.294-1.562,0.488
			c1.855,0.391,3.318,1.953,3.417,3.904C41.264,79.809,41.556,79.32,41.556,78.346z M44.68,48.965c0-1.463-1.269-2.537-2.733-2.537
			c0.587,0.487,1.171,1.658,1.171,2.927c0,0.586-0.097,1.368-0.487,2.245C43.801,51.21,44.68,50.333,44.68,48.965z M47.803,127.441
			c0-0.683,0.099-1.073,0.391-1.756c-0.488-0.587-0.878-1.562-0.878-2.733s0.586-2.441,1.855-3.222
			c-0.391-2.928,1.953-4.88,4.587-4.88c2.928,0,4.393,2.049,4.881,4.1c0.391,1.463,0.976,1.951,1.658,2.05
			c1.27,0.194,3.319,0,4.101-0.196c0.877-0.193,1.268-0.683,1.268-2.146c0.098-10.249-1.171-16.788-1.171-20.498
			c0-4.002,2.245-5.759,4.588-6.539c3.123-1.073,9.272-1.953,12.298-1.854c1.368,0,2.05,0.877,2.635,1.756
			c1.075,1.659,1.952,3.416,3.028,5.661c-0.781,0.391-1.173,1.073-1.173,2.05c0,1.366,0.781,2.537,1.854,3.123l-11.421,0.293
			c-0.097,0.684-0.097,1.365-0.097,1.953c0,1.269,0.877,2.146,2.048,2.146c0.879,0,1.66-0.292,2.345-0.877
			c0.389,4.001-2.051,5.27-4.589,5.368c0.098,3.611,0.293,6.247,0.293,12.786c0,4.685-2.344,7.517-5.661,7.517
			c0.195-0.196,0.292-0.488,0.292-0.781c0-1.854-2.051-2.733-3.514-2.733c-2.928,0-4.489,2.344-7.711,2.344
			c-2.83,0-4.002-2.344-6.149-2.344c-1.366,0-2.342,0.879-2.342,2.05c0,0.586,0.195,1.074,0.586,1.562
			C49.951,131.639,47.803,129.883,47.803,127.441z M51.61,122.172c-1.855,0-2.831,1.463-2.636,2.634
			c0.39-0.488,1.171-1.171,2.732-1.171c1.27,0,2.246,0.586,2.831,1.271C54.538,123.537,53.562,122.172,51.61,122.172z
			 M52.489,117.681c-1.562,0-2.343,0.879-2.44,1.659c0.39-0.194,0.975-0.39,1.855-0.39c1.561,0,2.83,0.878,3.22,1.757
			C55.319,119.146,54.344,117.681,52.489,117.681z M65.178,74.733c0-6.441,4.88-12.2,12.396-13.958
			c2.83-0.683,5.271-1.073,8.59-1.953c6.247-1.659,8.198-4.393,8.198-8.003c0-0.977-0.194-1.757-0.682-2.538
			c0.097,0.586,0.097,1.073,0.097,1.659c0,3.904-3.611,7.418-8.882,7.907c-2.831,0.194-5.857,0.585-8.786,0.877
			c-0.684,0.098-0.976-0.195-0.976-0.781l-0.099-4.685c0-0.195,0.099-0.391,0.391-0.391c0.196,0,0.294,0.098,0.391,0.292
			c0.586,0.879,1.758,1.757,3.418,1.757c1.366,0,2.146-0.781,2.146-1.659c0-0.976-0.877-1.854-2.635-1.854
			c-3.808,0-5.759,2.635-9.957,2.635c-4.588,0-6.149-2.244-6.149-4.392c0-1.757,0.976-2.83,2.245-3.417
			c-0.39,0.489-0.487,0.88-0.487,1.562c0,1.464,1.756,2.636,4.879,2.636c2.929,0,4.784-0.684,7.028-0.684
			c2.93,0,4.685,0.978,5.466,2.051c-0.097-2.246-1.755-4.197-3.904-4.197c-1.464,0-2.05,0.877-2.244,1.269
			c-0.099,0.292-0.293,0.39-0.488,0.39s-0.391-0.098-0.391-0.293l-0.488-4.879c-0.097-0.586,0.195-0.879,0.977-0.977l4.978-0.392
			c0.88,2.441,1.465,3.808,2.733,3.808c0.684,0,0.977-0.78,0.977-1.464c1.073-0.292,2.146-0.292,3.222-0.195
			c-1.27-0.878-5.467-0.39-6.736-2.148c2.05-0.097,3.611-0.193,5.271-0.193s3.123,0,4.49,0.193c1.562,0.197,3.123,1.074,3.123,2.733
			c0,1.074-0.585,1.855-1.658,1.855c-0.392,0-0.684-0.097-1.073-0.39c0.097,0.781,0.877,1.269,1.658,1.269
			c1.269,0,2.146-0.78,2.146-2.439c0-0.879-0.194-1.855-0.878-2.636c2.05,1.659,3.318,4.587,3.318,8.004
			c0,5.953-2.148,9.077-8.785,11.42c-3.415,1.171-6.148,1.952-9.564,3.22c-5.564,2.05-8.883,5.856-8.883,11.225
			c0,3.709,1.855,7.906,5.759,9.858C69.375,86.056,65.178,80.688,65.178,74.733z M71.034,77.272c0-5.272,2.927-8.396,8.59-10.542
			c3.125-1.171,6.148-2.049,8.98-2.929c6.93-2.44,9.37-6.051,9.37-12.494c0-2.732-0.78-5.368-2.049-6.929
			c2.146,1.854,3.903,4.685,3.903,9.565c0,5.076-1.465,10.248-8.491,12.884c-3.32,1.268-5.174,1.952-8.688,3.417
			c-5.467,2.343-7.224,5.466-7.224,9.662c0,4.003,2.148,6.248,3.809,7.613C75.231,86.837,71.034,82.738,71.034,77.272z
			 M76.891,80.005c0-3.904,1.855-6.54,6.639-8.786c3.023-1.366,5.27-1.854,8.783-3.317c6.932-2.733,8.688-7.906,8.688-13.861
			c0-2.05-0.293-4.49-1.368-6.539c1.465,1.757,3.222,4.489,3.222,9.858c0,5.563-1.854,10.736-8.002,13.763
			c-2.93,1.366-4.882,2.147-8.2,3.708c-3.807,1.952-5.955,4.686-5.955,7.907c0,2.536,1.172,4.489,2.245,5.563
			C79.234,87.228,76.891,83.713,76.891,80.005z M85.772,41.45c-1.95,0-3.903,0.097-5.953,0.293l-2.637-5.174h4.491
			c0,1.171,0.877,2.051,1.952,2.051c1.073,0,1.953-0.88,1.953-2.051h4c0,1.27,0.78,2.051,1.953,2.051
			c1.072,0,1.952-1.074,1.952-2.051h4.49l-3.025,5.368C92.508,41.644,89.386,41.45,85.772,41.45z M82.162,82.835
			c0-2.732,1.854-4.978,5.174-6.734c2.342-1.172,4.295-1.952,8.198-3.903c6.148-3.027,8.49-8.006,8.49-14.741
			c0-1.756-0.292-3.221-0.583-4.978c1.073,2.147,1.951,4.685,1.951,7.907c0,6.442-2.245,12.688-8.687,16.007
			c-2.733,1.367-4.295,2.245-6.347,3.222c-3.122,1.365-4.587,3.514-4.587,6.051c0,1.953,0.49,3.027,0.977,3.904
			C83.919,88.789,82.162,86.252,82.162,82.835z M87.141,99.429c0-0.977,0.292-1.562,1.464-1.757
			c-1.367-3.027-2.44-4.979-3.222-6.248c-0.292-0.486,0-0.78,0.39-0.78c0.587,0,1.073,0.195,1.465,0.78
			c0.684,0.879,1.562,2.246,2.245,3.515c1.269,2.245,2.05,4.392,2.148,7.516h-0.977C88.604,102.454,87.141,100.99,87.141,99.429z
			 M94.069,127.441c0-0.683,0.099-1.073,0.392-1.756c-0.488-0.587-0.88-1.562-0.88-2.733s0.587-2.441,1.854-3.222
			c-0.39-2.928,1.952-4.88,4.589-4.88c2.927,0,4.392,2.049,4.88,4.1c0.392,1.463,0.977,1.951,1.66,2.05
			c1.269,0.194,3.318,0,4.1-0.196c0.877-0.193,1.269-0.683,1.269-2.146c0-2.44-0.684-5.661-1.269-8.395
			c-1.465,0.195-5.076,0.39-7.81,0.39c-6.052,0-9.467-2.733-10.054-8.686c-0.196-2.44-0.682-4.783-2.146-7.419
			c-1.075-2.05-3.514-4.781-3.514-8.296c0-2.637,0.976-4.198,4-5.662c2.148-0.976,4.686-2.146,6.834-3.417
			c-0.099,3.417,1.953,8.005,4.588,9.957c2.927,2.147,5.66,2.733,9.662,2.733c4.588,0,8.979-1.367,11.323-4.101
			c-1.365,0.88-3.222,1.367-5.563,1.367c-7.224,0-11.812-5.562-11.812-11.518c0-4.295,2.345-8.102,6.248-11.322
			c3.222-2.635,6.148-4.294,8.394-6.54c1.465-1.464,2.733-3.222,2.733-5.271c0-2.44-1.66-4.783-3.417-5.467
			c0.976-1.171,2.929-2.244,4.686-2.244c2.928,0,5.661,2.147,5.661,4.978c0,2.148-1.27,3.808-2.928,4.588
			c0.097,1.658-0.976,3.807-2.245,5.172c-2.44,2.636-6.932,5.467-9.858,7.809c-2.929,2.343-4.49,4.783-4.49,8.102
			c0,4.392,3.514,7.613,8.005,7.613c4.195,0,7.809-3.222,7.809-7.711c0-4.1-2.93-7.126-7.42-9.175l3.71-2.636
			c4.002,2.343,8.394,5.565,8.394,12.494c0,9.566-7.71,17.96-20.204,17.96c-3.904,0-4.977-0.488-7.418-1.464
			c1.562,1.464,3.222,3.611,3.318,6.248c1.95,0.584,3.318,0.877,7.517,0.877c1.854,0,4.392-0.293,6.44-0.877
			c1.465-0.392,2.343-0.978,2.831-1.66c0.488,0.78,0.78,1.66,0.78,2.44c0,2.244-1.658,4.002-3.415,4.392
			c0.682,6.931,1.269,13.861,1.269,20.107c0,4.685-2.342,7.517-5.662,7.517c0.197-0.196,0.294-0.488,0.294-0.781
			c0-1.854-2.049-2.733-3.514-2.733c-2.929,0-4.49,2.344-7.712,2.344c-2.83,0-4-2.344-6.148-2.344c-1.366,0-2.342,0.879-2.342,2.05
			c0,0.586,0.195,1.074,0.585,1.562C96.218,131.639,94.069,129.883,94.069,127.441z M97.876,122.172
			c-1.854,0-2.83,1.463-2.635,2.634c0.392-0.488,1.173-1.171,2.733-1.171c1.27,0,2.246,0.586,2.831,1.271
			C100.806,123.537,99.829,122.172,97.876,122.172z M98.756,117.681c-1.562,0-2.342,0.879-2.441,1.659
			c0.392-0.194,0.977-0.39,1.854-0.39c1.561,0,2.832,0.878,3.222,1.757C101.586,119.146,100.609,117.681,98.756,117.681z
			 M110.956,54.138c-1.465-0.781-2.733-2.44-2.733-4.393c0-2.83,2.441-4.978,5.37-4.978c2.243,0,3.807,1.073,4.78,2.244
			c-1.854,0.978-3.318,3.32-3.318,5.467c0,2.831,1.465,4.587,2.833,6.052l-3.613,2.636
			C112.225,59.312,110.956,56.872,110.956,54.138z"/>
	</g>
	<rect x="0.001" y="148.073" width="141.021" height="141.021"/>
	<g>
		<path fill="#FFFFFF" d="M10.764,243.775c0-2.749,2.166-4.422,4.713-4.422c1.013,0,1.646,0.178,2.154,0.405v2.141
			c-0.482-0.239-1.027-0.417-1.812-0.417c-1.153,0-2.344,0.734-2.344,2.293c0,1.558,1.304,2.243,2.205,2.243
			c0.9,0,1.47-0.229,1.963-0.494v2.166c-0.52,0.267-1.381,0.532-2.407,0.532C12.702,248.223,10.764,246.525,10.764,243.775z"/>
		<path fill="#FFFFFF" d="M18.88,246.183l3.598-4.7h-3.521v-2.015h6.626v1.812l-3.662,4.789h3.725v2.016H18.88V246.183z"/>
		<path fill="#FFFFFF" d="M27.542,239.468h5.942v1.964h-3.458v1.381h3.344v1.913h-3.344v1.395h3.458v1.964h-5.942V239.468z"/>
	</g>
	<g>
		<path fill="#FFFFFF" d="M35.241,243.775c0-2.749,2.167-4.422,4.714-4.422c1.013,0,1.647,0.178,2.154,0.405v2.141
			c-0.482-0.239-1.026-0.417-1.812-0.417c-1.153,0-2.344,0.734-2.344,2.293c0,1.558,1.306,2.243,2.205,2.243
			c0.9,0,1.47-0.229,1.964-0.494v2.166c-0.519,0.267-1.382,0.532-2.409,0.532C37.18,248.223,35.241,246.525,35.241,243.775z"/>
	</g>
	<g>
		<path fill="#FFFFFF" d="M46.476,239.468v3.295h2.546v-3.295h2.484v8.616h-2.484v-3.37h-2.546v3.37h-2.483v-8.616H46.476z"/>
		<path fill="#FFFFFF" d="M58.087,241.482h-2.154v-2.015h6.778v2.015h-2.141v6.602h-2.484V241.482z"/>
		<path fill="#FFFFFF" d="M64.316,239.468h5.943v1.964H66.8v1.381h3.344v1.913H66.8v1.395h3.459v1.964h-5.943V239.468z"/>
	</g>
	<g>
		<path fill="#FFFFFF" d="M72.041,243.775c0-2.749,2.167-4.422,4.713-4.422c1.014,0,1.647,0.178,2.155,0.405v2.141
			c-0.483-0.239-1.027-0.417-1.813-0.417c-1.152,0-2.343,0.734-2.343,2.293c0,1.558,1.305,2.243,2.203,2.243
			c0.899,0,1.47-0.229,1.964-0.494v2.166c-0.519,0.267-1.381,0.532-2.407,0.532C73.979,248.223,72.041,246.525,72.041,243.775z"/>
	</g>
	<g>
		<path fill="#FFFFFF" d="M83.275,239.468v3.295h2.547v-3.295h2.483v8.616h-2.483v-3.37h-2.547v3.37h-2.483v-8.616H83.275z"/>
		<path fill="#FFFFFF" d="M90.835,239.468h3.054l2.585,5.144h0.037v-5.144h2.483v8.616h-3.027l-2.611-5.17h-0.039v5.17h-2.481
			V239.468z"/>
		<path fill="#FFFFFF" d="M101.521,239.468h2.483v8.616h-2.483V239.468z"/>
	</g>
	<g>
		<path fill="#FFFFFF" d="M106.029,243.775c0-2.749,2.168-4.422,4.714-4.422c1.013,0,1.647,0.178,2.155,0.405v2.141
			c-0.482-0.239-1.026-0.417-1.813-0.417c-1.152,0-2.344,0.734-2.344,2.293c0,1.558,1.305,2.243,2.204,2.243
			c0.901,0,1.471-0.229,1.966-0.494v2.166c-0.521,0.267-1.383,0.532-2.409,0.532C107.969,248.223,106.029,246.525,106.029,243.775z"
			/>
	</g>
	<g>
		<path fill="#FFFFFF" d="M119.748,246.298h-2.751l-0.467,1.786h-2.548l2.571-8.616h3.637l2.585,8.616h-2.546L119.748,246.298z
			 M119.279,244.536l-0.85-3.182h-0.114l-0.848,3.182H119.279z"/>
		<path fill="#FFFFFF" d="M124.088,239.468h2.483v6.576h3.08v2.04h-5.563V239.468z"/>
	</g>
	<g>
		<path fill="#FFFFFF" d="M11.207,260.276v-5.436h2.482v5.208c0,0.976,0.533,1.406,1.229,1.406c0.698,0,1.229-0.431,1.229-1.406
			v-5.208h2.483v5.436c0,2.408-1.684,3.383-3.712,3.383C12.892,263.659,11.207,262.685,11.207,260.276z"/>
		<path fill="#FFFFFF" d="M21.096,254.841h3.054l2.585,5.145h0.038v-5.145h2.484v8.615h-3.029l-2.609-5.169H23.58v5.169h-2.484
			V254.841z"/>
		<path fill="#FFFFFF" d="M31.785,254.841h2.483v8.615h-2.483V254.841z"/>
		<path fill="#FFFFFF" d="M35.596,254.841h2.787l1.469,6.449h0.051l1.47-6.449h2.789l-2.585,8.615H38.18L35.596,254.841z"/>
		<path fill="#FFFFFF" d="M45.739,254.841h5.942v1.965h-3.458v1.381h3.345v1.913h-3.345v1.394h3.458v1.963h-5.942V254.841z"/>
		<path fill="#FFFFFF" d="M53.945,254.841h3.953c2.015,0,3.244,1.293,3.244,2.838c0,1.47-1.078,2.117-1.838,2.458l-0.013,0.051
			c0.114,0.076,0.317,0.33,0.482,0.608l1.584,2.66h-2.8l-1.495-3.027h-0.634v3.027h-2.483V254.841z M57.43,258.819
			c0.671,0,1.063-0.532,1.063-1.077c0-0.544-0.393-1.063-1.063-1.063h-1.002v2.141H57.43z"/>
		<path fill="#FFFFFF" d="M62.847,263.002v-2.257c0.557,0.393,1.709,0.888,2.851,0.888c0.836,0,1.292-0.241,1.292-0.672
			c0-0.342-0.317-0.494-0.786-0.607c-0.558-0.141-0.899-0.217-1.545-0.381c-1.167-0.291-1.914-1.127-1.914-2.458
			c0-1.749,1.583-2.876,3.726-2.876c1.013,0,1.926,0.202,2.483,0.443v2.141c-0.43-0.24-1.305-0.569-2.357-0.569
			c-0.962,0-1.394,0.24-1.394,0.62c0,0.33,0.254,0.494,0.836,0.621c0.431,0.089,0.748,0.141,1.317,0.279
			c1.408,0.342,2.129,1.165,2.129,2.571c0,1.432-1.304,2.914-3.661,2.914C64.531,263.659,63.544,263.393,62.847,263.002z"/>
		<path fill="#FFFFFF" d="M71.471,254.841h2.484v8.615h-2.484V254.841z"/>
	</g>
	<g>
		<path fill="#FFFFFF" d="M77.741,256.856h-2.154v-2.016h6.779v2.016h-2.14v6.6h-2.485V256.856z"/>
	</g>
	<g>
		<path fill="#FFFFFF" d="M85.695,260.302l-2.916-5.461h2.812l1.357,3.08h0.049l1.407-3.08h2.75l-2.979,5.461v3.154h-2.481V260.302z
			"/>
	</g>
	<g>
		<path fill="#FFFFFF" d="M11.27,270.215h2.483v8.615H11.27V270.215z"/>
		<path fill="#FFFFFF" d="M16.284,270.215h3.054l2.585,5.145h0.038v-5.145h2.484v8.615h-3.028l-2.611-5.169h-0.038v5.169h-2.484
			V270.215z"/>
	</g>
	<g>
		<path fill="#FFFFFF" d="M30.15,270.215h3.75c2.015,0,3.269,1.382,3.269,2.965c0,1.584-1.254,2.863-3.269,2.863h-1.267v2.787H30.15
			V270.215z M33.61,274.193c0.545,0,1.039-0.444,1.039-1.064c0-0.607-0.494-1.064-1.039-1.064h-0.976v2.129H33.61z"/>
		<path fill="#FFFFFF" d="M39.003,270.215h3.953c2.015,0,3.243,1.292,3.243,2.838c0,1.47-1.076,2.116-1.836,2.458l-0.014,0.051
			c0.115,0.076,0.317,0.33,0.483,0.608l1.583,2.66h-2.8l-1.495-3.028h-0.633v3.028h-2.483V270.215z M42.487,274.193
			c0.671,0,1.064-0.532,1.064-1.077c0-0.546-0.394-1.064-1.064-1.064h-1.001v2.142H42.487z"/>
		<path fill="#FFFFFF" d="M52.668,277.044H49.92l-0.469,1.786h-2.547l2.572-8.615h3.636l2.586,8.615h-2.546L52.668,277.044z
			 M52.201,275.282l-0.85-3.181h-0.114l-0.848,3.181H52.201z"/>
		<path fill="#FFFFFF" d="M56.643,274.522c0-2.812,1.963-4.624,4.891-4.624c1.14,0,1.976,0.316,2.483,0.544v2.027
			c-0.469-0.253-1.228-0.558-2.115-0.558c-1.61,0-2.547,0.861-2.547,2.61c0,1.621,1.064,2.356,2.028,2.356
			c0.189,0,0.38-0.025,0.557-0.062v-2.332h2.419v3.814c-0.52,0.266-1.583,0.733-3.116,0.733
			C58.834,279.032,56.643,277.335,56.643,274.522z"/>
	</g>
	<g>
		<path fill="#FFFFFF" d="M66.457,275.65v-5.436h2.483v5.207c0,0.976,0.533,1.407,1.229,1.407c0.698,0,1.23-0.432,1.23-1.407v-5.207
			h2.483v5.436c0,2.407-1.685,3.382-3.713,3.382C68.143,279.032,66.457,278.058,66.457,275.65z"/>
	</g>
	<g>
		<path fill="#FFFFFF" d="M76.347,270.215h5.941v1.965H78.83v1.38h3.345v1.913H78.83v1.394h3.458v1.964h-5.941V270.215z"/>
	</g>
	<g>
		<path fill="#FFFFFF" d="M45.971,168.446v22.249h9.207v-22.249h7.938v-6.79H37.985v6.79H45.971z M75.332,161.656h-9.208v18.32
			c0,8.113,6.249,11.401,13.766,11.401c7.515,0,13.764-3.288,13.764-11.401v-18.32h-9.209v17.55c0,3.29-1.972,4.741-4.555,4.741
			s-4.559-1.451-4.559-4.741V161.656z M9.573,176.175c0,9.268,7.188,14.99,16.583,14.99c3.805,0,6.999-0.896,8.926-1.794v-7.303
			c-1.832,0.897-3.947,1.666-7.283,1.666c-3.334,0-8.172-2.307-8.172-7.56c0-5.251,4.415-7.729,8.69-7.729
			c2.911,0,4.933,0.598,6.716,1.409v-7.217c-1.878-0.77-4.227-1.367-7.985-1.367C17.607,161.271,9.573,166.908,9.573,176.175"/>
	</g>
</g>
</svg>
