<?xml version="1.0" encoding="utf-8"?>
<!-- Generator: Adobe Illustrator 15.0.0, SVG Export Plug-In . SVG Version: 6.00 Build 0)  -->
<!DOCTYPE svg PUBLIC "-//W3C//DTD SVG 1.1//EN" "http://www.w3.org/Graphics/SVG/1.1/DTD/svg11.dtd">
<svg version="1.1" id="Layer_1" xmlns="http://www.w3.org/2000/svg" xmlns:xlink="http://www.w3.org/1999/xlink" x="0px" y="0px"
	 width="290.547px" height="141.73px" viewBox="0 0 290.547 141.73" enable-background="new 0 0 290.547 141.73"
	 xml:space="preserve">
<g>
	<g>
		<path fill="#FFFFFF" d="M290.547,141.73h-141.73V0h141.73V141.73z M150.18,140.367h139.004V1.364H150.18V140.367z"/>
		<path fill="#FFFFFF" d="M262.018,20.476v22.361h9.254V20.476h7.978v-6.824h-25.258v6.824H262.018z M231.613,13.652h-9.253v18.412
			c0,8.154,6.279,11.458,13.832,11.458c7.556,0,13.833-3.305,13.833-11.458V13.652h-9.253v17.639c0,3.305-1.982,4.765-4.58,4.765
			c-2.596,0-4.579-1.459-4.579-4.765V13.652z M196.584,42.837h11.425l10.245-29.185h-10.387l-5.477,20.558h-0.188l-5.478-20.558
			h-10.387L196.584,42.837z M158.438,28.245c0,9.313,7.222,15.064,16.664,15.064c3.825,0,7.035-0.901,8.971-1.802v-7.34
			c-1.841,0.902-3.967,1.675-7.318,1.675c-3.351,0-8.214-2.319-8.214-7.597c0-5.279,4.438-7.769,8.733-7.769
			c2.928,0,4.958,0.602,6.752,1.416V14.64c-1.889-0.773-4.249-1.374-8.026-1.374C166.512,13.266,158.438,18.931,158.438,28.245"/>
	</g>
	<polygon fill="#FFFFFF" points="164.423,6.192 170.466,12.367 179.551,12.367 185.594,6.192 178.097,6.192 175.098,9.159 
		174.92,9.159 171.922,6.192 	"/>
	<g>
		<path fill="#FFFFFF" d="M141.73,141.73H0V0h141.73V141.73z M1.364,140.367h139.003V1.364H1.364V140.367z"/>
	</g>
	<g>
		<path fill="#FFFFFF" d="M23.126,62.355c1.08,0.589,2.354,0.982,3.826,1.276l1.275,5.886l-5.886,25.31l-2.649,1.864l-7.356,31.587
			l-5.985,4.61L23.126,62.355z M28.031,62.454c-5.494-0.099-9.909-4.415-9.909-9.81c0-5.788,4.514-9.909,10.203-9.909
			c2.649,0,5.003,1.177,6.573,3.139c-2.256-0.294-4.414,1.276-5.101,3.042c-0.588-0.196-1.08-0.196-1.472-0.196
			c-2.256,0-4.022,1.766-4.022,3.924c0,2.158,1.766,4.022,4.022,4.022c2.256,0,3.63-1.767,3.63-4.022c0-0.099,0-0.294,0-0.393
			c0.099-0.098,0.294-0.098,0.588-0.098c0.393,0,0.785,0.197,0.785,0.883c0,0.785-0.295,2.256-0.295,3.728
			c0,1.374,0.295,2.354,0.688,3.335l3.335,13.93c-0.491,0.392-0.981,0.882-1.374,1.472c-1.865,0.393-3.434,1.569-4.121,3.237
			L28.031,62.454z M48.534,71.675c-2.845,0-4.611,0.196-6.573,0.196c-3.041,0-5.297-1.276-5.983-3.728
			c1.178,0,2.06-0.981,2.06-2.158c0-2.354-3.63-4.708-3.63-9.222c0-1.472,0.196-2.844,0.196-3.924c0-1.177-0.98-1.962-2.06-1.962
			c-0.882,0-1.667,0.393-2.059,0.785c-0.197-2.747,2.059-4.807,4.904-4.611c0.392-0.883,1.864-1.962,3.532-1.962
			c1.177,0,1.767,0.295,2.354,0.688c0.491-0.196,1.08-0.294,1.864-0.294c2.257,0,4.709,1.864,4.709,4.708
			c0,2.649-1.57,3.924-3.139,5.003c-0.785,0.588-0.981,1.177-0.882,2.06c0.097,1.08,0.686,2.944,0.979,3.924
			c0.295,0.883,0.982,1.275,2.061,1.177c5.395-0.393,13.146-0.98,17.854-1.177c4.414-0.196,7.553-0.294,11.183-0.49
			c-6.867,1.667-10.791,6.278-11.871,12.851l-3.139,1.667C60.208,72.557,56.676,71.675,48.534,71.675z M44.12,98.261
			c1.177-0.295,1.766-1.178,1.766-1.962c0-1.178-0.687-1.963-1.569-2.553c-1.472-0.882-3.042-1.667-4.414-2.844
			c-1.472-1.274-2.354-2.354-3.238-3.531c-0.687-0.785-1.276-1.08-2.158-1.08c-1.08,0-1.864,0.784-1.864,1.668
			c0,0.491,0.099,0.883,0.294,1.178c-1.472-0.491-2.354-2.062-2.354-3.729c0-1.568,0.981-2.746,1.962-3.334
			c-0.098-0.295-0.196-0.688-0.196-1.178c0-2.061,1.668-4.023,4.316-4.218c0.491-1.374,1.961-2.453,3.924-2.453
			c2.354,0,4.807,1.766,4.807,4.905c0,1.569-0.393,1.961-0.393,3.139c0,0.688,0.196,1.274,1.178,2.257
			c1.177,1.178,1.765,1.863,2.452,1.863c0.687,0,1.079-0.294,1.864-0.883c4.414-3.728,8.24-7.651,13.536-10.497
			c0.099,4.61,1.864,8.339,5.69,11.184l-3.336,2.55c-0.587-0.588-1.177-0.784-1.962-0.784c-1.275,0-2.549,0.491-4.512,1.766
			c-2.256,1.473-5.984,5.298-8.632,7.848c-1.472,1.473-3.042,2.258-4.514,2.258C45.59,99.83,44.61,99.338,44.12,98.261z
			 M35.78,80.209c-1.274,0-2.157,0.688-2.354,1.472c0.392-0.099,0.883-0.196,1.472-0.196c1.472,0,2.747,0.688,3.335,1.864
			C38.527,81.484,37.449,80.209,35.78,80.209z M45.002,128.277L37.645,96.69l-2.649-1.864l-1.274-6.083
			c-0.196-0.784,0.196-1.176,0.785-1.176c0.392,0,0.687,0.196,1.08,0.588c1.274,1.473,2.06,2.354,3.433,3.531
			c0.785,0.688,1.766,1.275,2.747,1.767l6.082,26.389c-0.981,0.882-1.667,2.256-1.667,3.727c0,1.08,0.293,2.061,0.785,2.944
			c-0.197,0.489-0.295,0.979-0.295,1.568s0.098,1.178,0.393,1.766L45.002,128.277z M40.195,49.799c0-1.667-1.373-2.747-2.648-2.747
			c-0.589,0-0.982,0.197-1.276,0.295c1.668,0.687,2.846,2.158,2.747,4.904C39.902,51.663,40.195,50.682,40.195,49.799z
			 M41.765,78.738c0-1.275-1.079-2.452-2.453-2.452c-0.785,0-1.274,0.294-1.569,0.49c1.864,0.393,3.336,1.962,3.434,3.924
			C41.471,80.209,41.765,79.719,41.765,78.738z M44.904,49.211c0-1.472-1.275-2.552-2.747-2.552
			c0.589,0.491,1.178,1.668,1.178,2.944c0,0.588-0.099,1.373-0.491,2.256C44.021,51.466,44.904,50.583,44.904,49.211z
			 M48.043,128.081c0-0.687,0.099-1.079,0.392-1.766c-0.491-0.588-0.883-1.569-0.883-2.747s0.589-2.451,1.864-3.237
			c-0.393-2.942,1.962-4.905,4.611-4.905c2.942,0,4.414,2.062,4.904,4.121c0.393,1.473,0.982,1.962,1.668,2.06
			c1.276,0.197,3.335,0,4.121-0.195c0.882-0.197,1.274-0.688,1.274-2.159c0.099-10.3-1.177-16.873-1.177-20.6
			c0-4.022,2.257-5.788,4.611-6.573c3.14-1.079,9.32-1.962,12.361-1.864c1.372,0,2.06,0.884,2.647,1.767
			c1.08,1.667,1.962,3.433,3.042,5.688c-0.786,0.394-1.178,1.08-1.178,2.062c0,1.372,0.785,2.55,1.864,3.139l-11.479,0.294
			c-0.099,0.688-0.099,1.374-0.099,1.962c0,1.275,0.884,2.159,2.062,2.159c0.883,0,1.668-0.295,2.354-0.884
			c0.393,4.023-2.061,5.297-4.609,5.395c0.098,3.63,0.293,6.279,0.293,12.853c0,4.708-2.354,7.553-5.689,7.553
			c0.196-0.195,0.294-0.49,0.294-0.784c0-1.864-2.061-2.747-3.532-2.747c-2.944,0-4.513,2.354-7.75,2.354
			c-2.845,0-4.022-2.354-6.181-2.354c-1.373,0-2.355,0.883-2.355,2.06c0,0.589,0.197,1.079,0.589,1.57
			C50.201,132.3,48.043,130.534,48.043,128.081z M51.869,122.784c-1.863,0-2.844,1.471-2.648,2.648
			c0.393-0.489,1.178-1.178,2.747-1.178c1.276,0,2.256,0.59,2.846,1.275C54.813,124.157,53.831,122.784,51.869,122.784z
			 M52.752,118.272c-1.569,0-2.354,0.883-2.453,1.667c0.392-0.196,0.982-0.393,1.864-0.393c1.569,0,2.844,0.882,3.236,1.766
			C55.597,119.743,54.616,118.272,52.752,118.272z M65.505,75.108c0-6.475,4.905-12.263,12.459-14.028
			c2.845-0.687,5.297-1.08,8.632-1.962c6.279-1.667,8.241-4.414,8.241-8.044c0-0.981-0.197-1.766-0.687-2.551
			c0.097,0.589,0.097,1.08,0.097,1.667c0,3.924-3.629,7.456-8.926,7.946c-2.846,0.196-5.887,0.589-8.829,0.883
			c-0.688,0.098-0.981-0.197-0.981-0.785l-0.099-4.708c0-0.197,0.099-0.393,0.393-0.393c0.197,0,0.295,0.097,0.393,0.294
			c0.589,0.883,1.767,1.766,3.434,1.766c1.373,0,2.159-0.785,2.159-1.667c0-0.982-0.885-1.864-2.649-1.864
			c-3.826,0-5.788,2.648-10.007,2.648c-4.61,0-6.18-2.256-6.18-4.415c0-1.766,0.981-2.845,2.256-3.433
			c-0.393,0.49-0.49,0.882-0.49,1.569c0,1.471,1.766,2.649,4.904,2.649c2.944,0,4.808-0.687,7.063-0.687
			c2.943,0,4.709,0.98,5.494,2.06c-0.099-2.256-1.766-4.219-3.924-4.219c-1.472,0-2.061,0.883-2.256,1.276
			c-0.099,0.293-0.295,0.392-0.491,0.392s-0.392-0.099-0.392-0.293l-0.492-4.906c-0.097-0.588,0.197-0.882,0.982-0.98l5.003-0.392
			c0.883,2.452,1.471,3.825,2.746,3.825c0.687,0,0.981-0.785,0.981-1.471c1.08-0.294,2.158-0.294,3.236-0.197
			c-1.274-0.882-5.493-0.392-6.768-2.157c2.059-0.099,3.629-0.197,5.297-0.197s3.14,0,4.513,0.197
			c1.569,0.195,3.139,1.079,3.139,2.747c0,1.079-0.588,1.863-1.667,1.863c-0.393,0-0.688-0.099-1.079-0.392
			c0.098,0.784,0.882,1.276,1.667,1.276c1.275,0,2.159-0.785,2.159-2.453c0-0.884-0.197-1.863-0.884-2.648
			c2.062,1.667,3.335,4.61,3.335,8.043c0,5.985-2.157,9.124-8.829,11.478c-3.433,1.178-6.179,1.962-9.612,3.238
			c-5.592,2.059-8.928,5.885-8.928,11.28c0,3.728,1.864,7.946,5.788,9.908C69.723,86.488,65.505,81.092,65.505,75.108z
			 M71.391,77.658c0-5.296,2.943-8.436,8.633-10.595c3.139-1.177,6.181-2.059,9.025-2.941c6.966-2.453,9.417-6.083,9.417-12.557
			c0-2.747-0.784-5.396-2.06-6.965c2.157,1.864,3.924,4.708,3.924,9.613c0,5.101-1.472,10.301-8.535,12.949
			c-3.336,1.276-5.199,1.962-8.73,3.433c-5.493,2.355-7.26,5.494-7.26,9.712c0,4.021,2.159,6.278,3.826,7.651
			C75.609,87.272,71.391,83.151,71.391,77.658z M77.276,80.405c0-3.924,1.864-6.572,6.671-8.828
			c3.041-1.374,5.298-1.864,8.829-3.336c6.965-2.747,8.731-7.946,8.731-13.93c0-2.061-0.295-4.513-1.375-6.573
			c1.473,1.766,3.238,4.512,3.238,9.908c0,5.592-1.863,10.792-8.045,13.832c-2.942,1.374-4.905,2.158-8.239,3.728
			c-3.826,1.963-5.984,4.709-5.984,7.945c0,2.553,1.178,4.515,2.256,5.592C79.631,87.666,77.276,84.134,77.276,80.405z
			 M86.204,41.657c-1.962,0-3.924,0.099-5.984,0.294l-2.648-5.199h4.512c0,1.177,0.883,2.06,1.962,2.06s1.962-0.883,1.962-2.06
			h4.022c0,1.274,0.785,2.06,1.962,2.06c1.079,0,1.962-1.079,1.962-2.06h4.513l-3.042,5.396
			C92.973,41.853,89.833,41.657,86.204,41.657z M82.574,83.25c0-2.746,1.863-5.003,5.199-6.769c2.354-1.177,4.316-1.962,8.241-3.925
			c6.179-3.04,8.533-8.042,8.533-14.812c0-1.766-0.294-3.238-0.589-5.002c1.08,2.157,1.962,4.708,1.962,7.945
			c0,6.474-2.256,12.752-8.73,16.088c-2.746,1.373-4.315,2.257-6.376,3.236c-3.14,1.374-4.61,3.531-4.61,6.083
			c0,1.962,0.489,3.041,0.98,3.924C84.34,89.235,82.574,86.684,82.574,83.25z M87.576,99.928c0-0.981,0.295-1.57,1.473-1.766
			c-1.374-3.041-2.453-5.003-3.237-6.279c-0.294-0.49,0-0.784,0.393-0.784c0.588,0,1.079,0.196,1.471,0.784
			c0.687,0.884,1.57,2.256,2.256,3.531c1.276,2.256,2.061,4.416,2.159,7.555h-0.981C89.049,102.969,87.576,101.497,87.576,99.928z
			 M94.542,128.081c0-0.687,0.098-1.079,0.393-1.766c-0.49-0.588-0.883-1.569-0.883-2.747s0.588-2.451,1.864-3.237
			c-0.394-2.942,1.962-4.905,4.609-4.905c2.944,0,4.415,2.062,4.906,4.121c0.392,1.473,0.98,1.962,1.667,2.06
			c1.275,0.197,3.335,0,4.12-0.195c0.884-0.197,1.275-0.688,1.275-2.159c0-2.452-0.687-5.689-1.275-8.436
			c-1.472,0.195-5.102,0.393-7.848,0.393c-6.083,0-9.516-2.747-10.104-8.731c-0.197-2.452-0.688-4.808-2.159-7.455
			c-1.079-2.061-3.532-4.808-3.532-8.339c0-2.648,0.981-4.218,4.022-5.688c2.158-0.982,4.709-2.159,6.867-3.435
			c-0.098,3.435,1.962,8.045,4.611,10.007c2.941,2.157,5.688,2.746,9.711,2.746c4.61,0,9.025-1.374,11.38-4.12
			c-1.373,0.882-3.238,1.374-5.592,1.374c-7.259,0-11.87-5.592-11.87-11.576c0-4.316,2.354-8.143,6.278-11.379
			c3.236-2.649,6.181-4.316,8.437-6.573c1.471-1.471,2.747-3.237,2.747-5.296c0-2.453-1.668-4.808-3.433-5.494
			c0.979-1.177,2.941-2.256,4.708-2.256c2.942,0,5.689,2.158,5.689,5.003c0,2.157-1.275,3.825-2.942,4.61
			c0.098,1.668-0.982,3.825-2.257,5.2c-2.452,2.648-6.965,5.493-9.907,7.848c-2.944,2.354-4.514,4.807-4.514,8.142
			c0,4.414,3.532,7.651,8.045,7.651c4.217,0,7.848-3.237,7.848-7.75c0-4.119-2.943-7.161-7.455-9.22l3.727-2.649
			c4.022,2.354,8.438,5.591,8.438,12.557c0,9.613-7.75,18.051-20.307,18.051c-3.925,0-5.004-0.491-7.456-1.473
			c1.569,1.473,3.236,3.63,3.335,6.277c1.962,0.591,3.336,0.885,7.554,0.885c1.865,0,4.415-0.294,6.475-0.885
			c1.472-0.392,2.354-0.979,2.846-1.667c0.49,0.785,0.784,1.667,0.784,2.453c0,2.256-1.668,4.021-3.434,4.414
			c0.688,6.965,1.275,13.93,1.275,20.209c0,4.708-2.354,7.553-5.689,7.553c0.196-0.195,0.294-0.49,0.294-0.784
			c0-1.864-2.06-2.747-3.532-2.747c-2.941,0-4.512,2.354-7.748,2.354c-2.846,0-4.023-2.354-6.181-2.354
			c-1.375,0-2.354,0.883-2.354,2.06c0,0.589,0.194,1.079,0.587,1.57C96.7,132.3,94.542,130.534,94.542,128.081z M98.368,122.784
			c-1.864,0-2.846,1.471-2.649,2.648c0.394-0.489,1.178-1.178,2.747-1.178c1.275,0,2.257,0.59,2.845,1.275
			C101.311,124.157,100.33,122.784,98.368,122.784z M99.25,118.272c-1.568,0-2.354,0.883-2.451,1.667
			c0.392-0.196,0.98-0.393,1.863-0.393c1.569,0,2.846,0.882,3.237,1.766C102.095,119.743,101.114,118.272,99.25,118.272z
			 M111.513,54.41c-1.471-0.785-2.747-2.452-2.747-4.414c0-2.845,2.453-5.003,5.396-5.003c2.256,0,3.826,1.079,4.807,2.256
			c-1.863,0.98-3.335,3.335-3.335,5.494c0,2.844,1.472,4.61,2.844,6.081l-3.629,2.649C112.788,59.608,111.513,57.156,111.513,54.41z
			"/>
	</g>
	<g>
		<path fill="#FFFFFF" d="M159.634,96.185c0-2.764,2.178-4.444,4.736-4.444c1.019,0,1.655,0.179,2.165,0.407V94.3
			c-0.483-0.242-1.032-0.42-1.82-0.42c-1.16,0-2.356,0.739-2.356,2.305c0,1.566,1.311,2.254,2.216,2.254
			c0.904,0,1.478-0.229,1.974-0.496v2.177c-0.522,0.268-1.388,0.535-2.419,0.535C161.582,100.654,159.634,98.948,159.634,96.185z
			 M161.047,89.372h2.165l0.865,0.942h0.052l0.866-0.942h2.165l-1.746,1.96h-2.622L161.047,89.372z"/>
		<path fill="#FFFFFF" d="M168.415,91.854h5.973v1.975h-3.476v1.388h3.36v1.923h-3.36v1.4h3.476v1.974h-5.973V91.854z"/>
		<path fill="#FFFFFF" d="M176.356,100.056v-2.268c0.561,0.396,1.719,0.893,2.865,0.893c0.841,0,1.299-0.242,1.299-0.675
			c0-0.345-0.317-0.497-0.789-0.611c-0.561-0.141-0.905-0.217-1.555-0.383c-1.17-0.292-1.922-1.133-1.922-2.47
			c0-1.758,1.592-2.891,3.743-2.891c1.02,0,1.937,0.203,2.497,0.445v2.151c-0.433-0.242-1.312-0.573-2.369-0.573
			c-0.968,0-1.4,0.243-1.4,0.625c0,0.33,0.254,0.497,0.84,0.624c0.433,0.089,0.751,0.141,1.324,0.28
			c1.414,0.344,2.14,1.171,2.14,2.584c0,1.439-1.312,2.929-3.681,2.929C178.051,100.717,177.057,100.449,176.356,100.056z"/>
		<path fill="#FFFFFF" d="M190.041,100.514l-2.509-4.164v4.164h-2.495v-8.659h2.495v3.985l2.42-3.985h3.043l-2.891,4.189l2.929,4.47
			H190.041z"/>
		<path fill="#FFFFFF" d="M194.632,91.854h5.973v1.975h-3.476v1.388h3.36v1.923h-3.36v1.4h3.476v1.974h-5.973V91.854z
			 M197.446,89.372h2.903l-1.795,1.96h-2.113L197.446,89.372z"/>
		<path fill="#FFFFFF" d="M204.623,91.854h2.802l1.477,6.481h0.051l1.478-6.481h2.802l-2.599,8.659h-3.412L204.623,91.854z"/>
		<path fill="#FFFFFF" d="M216.41,97.343l-2.93-5.488h2.826l1.363,3.095h0.051l1.414-3.095h2.763l-2.992,5.488v3.171h-2.495V97.343z
			"/>
		<path fill="#FFFFFF" d="M222.721,100.056v-2.268c0.561,0.396,1.72,0.893,2.865,0.893c0.841,0,1.299-0.242,1.299-0.675
			c0-0.345-0.318-0.497-0.79-0.611c-0.56-0.141-0.903-0.217-1.554-0.383c-1.171-0.292-1.923-1.133-1.923-2.47
			c0-1.758,1.593-2.891,3.744-2.891c1.02,0,1.936,0.203,2.496,0.445v2.151c-0.434-0.242-1.311-0.573-2.368-0.573
			c-0.968,0-1.4,0.243-1.4,0.625c0,0.33,0.254,0.497,0.84,0.624c0.433,0.089,0.752,0.141,1.324,0.28
			c1.413,0.344,2.14,1.171,2.14,2.584c0,1.439-1.312,2.929-3.68,2.929C224.414,100.717,223.422,100.449,222.721,100.056z"/>
		<path fill="#FFFFFF" d="M230.879,96.185c0-2.892,1.77-4.533,4.342-4.533c2.585,0,4.317,1.642,4.317,4.533
			c0,2.891-1.732,4.532-4.317,4.532C232.648,100.717,230.879,99.075,230.879,96.185z M236.864,96.185
			c0-1.427-0.522-2.317-1.644-2.317c-1.107,0-1.668,0.891-1.668,2.317s0.561,2.318,1.668,2.318
			C236.342,98.503,236.864,97.611,236.864,96.185z"/>
		<path fill="#FFFFFF" d="M246.562,100.514l-2.509-4.164v4.164h-2.496v-8.659h2.496v3.985l2.419-3.985h3.044l-2.89,4.189l2.928,4.47
			H246.562z"/>
		<path fill="#FFFFFF" d="M251.152,91.854h5.972v1.975h-3.476v1.388h3.362v1.923h-3.362v1.4h3.476v1.974h-5.972V91.854z
			 M253.967,89.372h2.903l-1.795,1.96h-2.115L253.967,89.372z"/>
	</g>
	<g>
		<path fill="#FFFFFF" d="M160.079,112.77v-5.465h2.495v5.235c0,0.979,0.535,1.413,1.235,1.413c0.701,0,1.235-0.434,1.235-1.413
			v-5.235h2.497v5.465c0,2.419-1.694,3.398-3.732,3.398C161.772,116.168,160.079,115.188,160.079,112.77z"/>
	</g>
	<g>
		<path fill="#FFFFFF" d="M169.51,111.635c0-2.762,2.178-4.444,4.736-4.444c1.02,0,1.655,0.179,2.165,0.408v2.151
			c-0.484-0.241-1.031-0.42-1.821-0.42c-1.159,0-2.355,0.739-2.355,2.305c0,1.566,1.312,2.254,2.215,2.254
			c0.904,0,1.478-0.229,1.975-0.495v2.177c-0.522,0.267-1.388,0.534-2.42,0.534C171.458,116.104,169.51,114.398,169.51,111.635z
			 M170.923,104.822h2.166l0.863,0.942h0.052l0.867-0.942h2.164l-1.745,1.961h-2.623L170.923,104.822z"/>
	</g>
	<g>
		<path fill="#FFFFFF" d="M178.304,107.305h5.972v1.975H180.8v1.388h3.361v1.923H180.8v1.401h3.476v1.973h-5.972V107.305z"/>
		<path fill="#FFFFFF" d="M186.55,107.305h3.07l2.598,5.171h0.037v-5.171h2.497v8.659h-3.044l-2.624-5.194h-0.037v5.194h-2.497
			V107.305z"/>
		<path fill="#FFFFFF" d="M198.222,104.822h2.904l-1.796,1.961h-2.114L198.222,104.822z M197.292,107.305h2.497v8.659h-2.497
			V107.305z"/>
		<path fill="#FFFFFF" d="M206.418,109.33h-2.165v-2.025h6.813v2.025h-2.153v6.634h-2.495V109.33z"/>
		<path fill="#FFFFFF" d="M212.679,107.305h5.973v1.975h-3.476v1.388h3.36v1.923h-3.36v1.401h3.476v1.973h-5.973V107.305z"/>
		<path fill="#FFFFFF" d="M220.417,111.635c0-2.762,2.177-4.444,4.736-4.444c1.019,0,1.655,0.179,2.164,0.408v2.151
			c-0.483-0.241-1.03-0.42-1.82-0.42c-1.158,0-2.354,0.739-2.354,2.305c0,1.566,1.31,2.254,2.215,2.254
			c0.904,0,1.477-0.229,1.973-0.495v2.177c-0.521,0.267-1.387,0.534-2.419,0.534C222.364,116.104,220.417,114.398,220.417,111.635z"
			/>
		<path fill="#FFFFFF" d="M231.694,107.305v3.312h2.56v-3.312h2.496v8.659h-2.496v-3.387h-2.56v3.387h-2.495v-8.659H231.694z"/>
		<path fill="#FFFFFF" d="M239.29,107.305h3.069l2.599,5.171h0.037v-5.171h2.497v8.659h-3.044l-2.624-5.194h-0.037v5.194h-2.497
			V107.305z"/>
		<path fill="#FFFFFF" d="M250.033,107.305h2.495v8.659h-2.495V107.305z"/>
		<path fill="#FFFFFF" d="M254.562,111.635c0-2.762,2.178-4.444,4.736-4.444c1.02,0,1.656,0.179,2.165,0.408v2.151
			c-0.483-0.241-1.03-0.42-1.82-0.42c-1.159,0-2.355,0.739-2.355,2.305c0,1.566,1.312,2.254,2.215,2.254
			c0.904,0,1.478-0.229,1.975-0.495v2.177c-0.522,0.267-1.388,0.534-2.42,0.534C256.512,116.104,254.562,114.398,254.562,111.635z"
			/>
		<path fill="#FFFFFF" d="M268.349,115.964l-2.508-4.162v4.162h-2.497v-8.659h2.497v3.987l2.419-3.987h3.043l-2.89,4.19l2.928,4.469
			H268.349z"/>
		<path fill="#FFFFFF" d="M272.94,107.305h5.973v1.975h-3.477v1.388h3.361v1.923h-3.361v1.401h3.477v1.973h-5.973V107.305z
			 M275.754,104.822h2.904l-1.796,1.961h-2.114L275.754,104.822z"/>
	</g>
	<g>
		<path fill="#FFFFFF" d="M159.188,122.756h2.802l1.478,6.482h0.051l1.478-6.482h2.8l-2.597,8.66h-3.413L159.188,122.756z"/>
	</g>
	<g>
		<path fill="#FFFFFF" d="M172.577,122.756h3.77c2.023,0,3.284,1.389,3.284,2.98s-1.261,2.878-3.284,2.878h-1.273v2.802h-2.496
			V122.756z M176.053,126.755c0.548,0,1.045-0.445,1.045-1.069c0-0.611-0.497-1.07-1.045-1.07h-0.979v2.14H176.053z"/>
		<path fill="#FFFFFF" d="M181.46,122.756h3.974c2.024,0,3.26,1.299,3.26,2.853c0,1.478-1.083,2.127-1.847,2.471l-0.013,0.051
			c0.114,0.076,0.317,0.331,0.483,0.612l1.593,2.674h-2.814l-1.504-3.044h-0.636v3.044h-2.496V122.756z M184.962,126.755
			c0.675,0,1.07-0.535,1.07-1.082c0-0.549-0.396-1.07-1.07-1.07h-1.006v2.152H184.962z"/>
		<path fill="#FFFFFF" d="M195.208,129.62h-2.763l-0.472,1.796h-2.559l2.584-8.66h3.654l2.598,8.66h-2.56L195.208,129.62z
			 M194.737,127.851l-0.854-3.197h-0.114l-0.854,3.197H194.737z"/>
		<path fill="#FFFFFF" d="M198.935,129.505l3.616-4.724h-3.54v-2.025h6.659v1.821l-3.68,4.812h3.744v2.026h-6.8V129.505z"/>
		<path fill="#FFFFFF" d="M207.627,122.756h5.972v1.975h-3.477v1.388h3.362v1.923h-3.362v1.401h3.477v1.974h-5.972V122.756z"/>
	</g>
</g>
</svg>
