<?xml version="1.0" encoding="utf-8"?>
<!-- Generator: Adobe Illustrator 15.0.0, SVG Export Plug-In . SVG Version: 6.00 Build 0)  -->
<!DOCTYPE svg PUBLIC "-//W3C//DTD SVG 1.1//EN" "http://www.w3.org/Graphics/SVG/1.1/DTD/svg11.dtd">
<svg version="1.1" id="Layer_1" xmlns="http://www.w3.org/2000/svg" xmlns:xlink="http://www.w3.org/1999/xlink" x="0px" y="0px"
	 width="290.547px" height="141.73px" viewBox="0 0 290.547 141.73" enable-background="new 0 0 290.547 141.73"
	 xml:space="preserve">
<g>
	<g>
		<path fill="#FFFFFF" d="M52.751,118.272c-1.569,0-2.354,0.883-2.452,1.668c0.393-0.196,0.981-0.393,1.865-0.393
			c1.569,0,2.844,0.882,3.237,1.766C55.597,119.744,54.616,118.272,52.751,118.272z"/>
		<path fill="#FFFFFF" d="M51.869,122.784c-1.864,0-2.844,1.473-2.649,2.649c0.393-0.49,1.177-1.177,2.747-1.177
			c1.276,0,2.257,0.588,2.845,1.274C54.812,124.159,53.831,122.784,51.869,122.784z"/>
		<path fill="#FFFFFF" d="M38.233,83.35c0.295-1.864-0.785-3.14-2.452-3.14c-1.275,0-2.158,0.687-2.354,1.472
			c0.393-0.099,0.883-0.196,1.472-0.196C36.37,81.485,37.645,82.173,38.233,83.35z"/>
		<path fill="#FFFFFF" d="M39.018,52.252c0.883-0.589,1.177-1.57,1.177-2.453c0-1.667-1.373-2.747-2.648-2.747
			c-0.589,0-0.981,0.197-1.276,0.294C37.939,48.034,39.116,49.505,39.018,52.252z"/>
		<path fill="#FFFFFF" d="M41.177,80.7c0.294-0.49,0.588-0.98,0.588-1.962c0-1.274-1.079-2.452-2.452-2.452
			c-0.785,0-1.275,0.294-1.57,0.49C39.607,77.169,41.078,78.738,41.177,80.7z"/>
		<path fill="#FFFFFF" d="M43.334,49.604c0,0.588-0.098,1.373-0.49,2.256c1.177-0.393,2.06-1.276,2.06-2.648
			c0-1.472-1.275-2.551-2.747-2.551C42.746,47.15,43.334,48.328,43.334,49.604z"/>
		<path fill="#FFFFFF" d="M98.368,122.784c-1.863,0-2.846,1.473-2.648,2.649c0.393-0.49,1.178-1.177,2.747-1.177
			c1.274,0,2.256,0.588,2.844,1.274C101.311,124.159,100.33,122.784,98.368,122.784z"/>
		<path fill="#FFFFFF" d="M0,0v141.73h141.73V0H0z M114.162,44.992c2.256,0,3.826,1.08,4.807,2.257
			c-1.864,0.98-3.335,3.334-3.335,5.494c0,2.844,1.471,4.61,2.845,6.081l-3.63,2.649c-2.061-1.864-3.335-4.316-3.335-7.063
			c-1.473-0.785-2.747-2.452-2.747-4.414C108.767,47.15,111.219,44.992,114.162,44.992z M105.922,60.688
			c0,6.474-2.257,12.753-8.731,16.088c-2.746,1.373-4.316,2.257-6.376,3.237c-3.14,1.374-4.61,3.531-4.61,6.083
			c0,1.962,0.49,3.04,0.98,3.924c-2.845-0.785-4.611-3.337-4.611-6.77c0-2.747,1.864-5.003,5.2-6.77
			c2.354-1.177,4.316-1.962,8.24-3.924c6.18-3.041,8.534-8.043,8.534-14.812c0-1.766-0.294-3.238-0.588-5.002
			C105.039,54.9,105.922,57.451,105.922,60.688z M103.371,57.646c0,5.592-1.864,10.792-8.044,13.833
			c-2.943,1.374-4.905,2.159-8.24,3.728c-3.826,1.962-5.984,4.709-5.984,7.945c0,2.552,1.178,4.514,2.256,5.592
			c-3.727-1.078-6.081-4.609-6.081-8.339c0-3.924,1.863-6.571,6.671-8.828c3.04-1.374,5.296-1.864,8.828-3.336
			c6.965-2.747,8.73-7.945,8.73-13.929c0-2.06-0.294-4.513-1.373-6.573C101.605,49.505,103.371,52.252,103.371,57.646z
			 M79.632,87.96c-4.022-0.687-8.241-4.808-8.241-10.301c0-5.297,2.942-8.436,8.633-10.595c3.139-1.177,6.18-2.06,9.024-2.942
			c6.965-2.453,9.418-6.083,9.418-12.557c0-2.747-0.785-5.396-2.061-6.965c2.158,1.864,3.924,4.708,3.924,9.614
			c0,5.101-1.471,10.301-8.534,12.949c-3.336,1.276-5.2,1.962-8.731,3.433c-5.493,2.354-7.259,5.493-7.259,9.712
			C75.806,84.33,77.964,86.586,79.632,87.96z M82.084,36.752c0,1.177,0.882,2.06,1.962,2.06c1.079,0,1.962-0.882,1.962-2.06h4.021
			c0,1.275,0.785,2.06,1.962,2.06c1.079,0,1.962-1.079,1.962-2.06h4.514l-3.042,5.396c-2.452-0.295-5.591-0.491-9.221-0.491
			c-1.962,0-3.924,0.098-5.984,0.293l-2.648-5.199H82.084z M65.21,46.464c-0.392,0.49-0.49,0.882-0.49,1.569
			c0,1.471,1.765,2.648,4.904,2.648c2.944,0,4.807-0.686,7.063-0.686c2.944,0,4.709,0.98,5.494,2.06
			c-0.098-2.257-1.766-4.219-3.925-4.219c-1.471,0-2.06,0.883-2.256,1.276c-0.098,0.293-0.293,0.392-0.49,0.392
			c-0.195,0-0.393-0.099-0.393-0.294l-0.49-4.906c-0.098-0.587,0.196-0.882,0.981-0.98l5.002-0.393
			c0.884,2.452,1.473,3.826,2.747,3.826c0.688,0,0.981-0.785,0.981-1.471c1.079-0.295,2.158-0.295,3.237-0.197
			c-1.274-0.882-5.493-0.392-6.769-2.157c2.06-0.099,3.629-0.197,5.297-0.197s3.139,0,4.514,0.197
			c1.569,0.195,3.139,1.079,3.139,2.747c0,1.079-0.59,1.863-1.668,1.863c-0.393,0-0.687-0.099-1.079-0.393
			c0.098,0.785,0.883,1.276,1.668,1.276c1.274,0,2.158-0.785,2.158-2.453c0-0.883-0.196-1.863-0.884-2.648
			c2.061,1.667,3.336,4.61,3.336,8.043c0,5.985-2.159,9.124-8.829,11.478c-3.434,1.177-6.18,1.962-9.613,3.238
			c-5.592,2.06-8.927,5.886-8.927,11.281c0,3.728,1.864,7.946,5.789,9.908c-5.985-0.785-10.203-6.181-10.203-12.164
			c0-6.476,4.904-12.263,12.458-14.029c2.845-0.687,5.297-1.08,8.632-1.962c6.278-1.667,8.241-4.414,8.241-8.044
			c0-0.981-0.196-1.766-0.687-2.551c0.098,0.589,0.098,1.08,0.098,1.667c0,3.924-3.629,7.455-8.928,7.946
			c-2.845,0.196-5.886,0.588-8.828,0.883c-0.687,0.098-0.981-0.197-0.981-0.785l-0.098-4.709c0-0.197,0.098-0.392,0.393-0.392
			c0.195,0,0.294,0.098,0.392,0.293c0.589,0.883,1.767,1.766,3.435,1.766c1.372,0,2.157-0.785,2.157-1.667
			c0-0.982-0.883-1.864-2.648-1.864c-3.825,0-5.787,2.649-10.006,2.649c-4.611,0-6.181-2.256-6.181-4.415
			C62.954,48.131,63.936,47.052,65.21,46.464z M38.92,45.09c1.177,0,1.766,0.295,2.354,0.688c0.49-0.196,1.08-0.295,1.864-0.295
			c2.256,0,4.709,1.864,4.709,4.709c0,2.649-1.57,3.924-3.139,5.003c-0.785,0.588-0.982,1.177-0.883,2.06
			c0.098,1.08,0.686,2.944,0.981,3.924c0.294,0.883,0.981,1.276,2.06,1.177c5.396-0.393,13.146-0.98,17.855-1.177
			c4.414-0.195,7.553-0.294,11.183-0.49c-6.866,1.667-10.791,6.278-11.87,12.852l-3.139,1.667c-0.687-2.649-4.219-3.532-12.36-3.532
			c-2.845,0-4.61,0.196-6.572,0.196c-3.042,0-5.298-1.276-5.984-3.728c1.177,0,2.061-0.981,2.061-2.158
			c0-2.354-3.63-4.708-3.63-9.221c0-1.472,0.196-2.844,0.196-3.924c0-1.177-0.981-1.962-2.06-1.962
			c-0.883,0-1.668,0.392-2.061,0.785c-0.196-2.747,2.061-4.806,4.905-4.611C35.781,46.169,37.253,45.09,38.92,45.09z M28.325,42.736
			c2.649,0,5.003,1.177,6.573,3.139c-2.257-0.294-4.415,1.275-5.101,3.042c-0.589-0.196-1.08-0.196-1.472-0.196
			c-2.257,0-4.021,1.766-4.021,3.924s1.765,4.022,4.021,4.022s3.629-1.767,3.629-4.022c0-0.099,0-0.294,0-0.392
			c0.099-0.099,0.295-0.099,0.589-0.099c0.393,0,0.785,0.197,0.785,0.883c0,0.785-0.294,2.256-0.294,3.728
			c0,1.374,0.294,2.354,0.687,3.335l3.334,13.93c-0.49,0.393-0.98,0.883-1.373,1.473c-1.864,0.392-3.434,1.569-4.121,3.236
			l-3.531-16.284c-5.494-0.099-9.908-4.415-9.908-9.81C18.123,46.857,22.636,42.736,28.325,42.736z M22.342,94.827l-2.649,1.864
			l-7.357,31.587l-5.984,4.61l16.775-70.533c1.079,0.589,2.354,0.982,3.826,1.276l1.275,5.886L22.342,94.827z M32.937,89.137
			c-1.472-0.49-2.354-2.061-2.354-3.728c0-1.569,0.98-2.747,1.962-3.335c-0.099-0.294-0.197-0.687-0.197-1.178
			c0-2.061,1.668-4.022,4.316-4.218c0.491-1.374,1.962-2.453,3.924-2.453c2.354,0,4.807,1.766,4.807,4.905
			c0,1.569-0.393,1.962-0.393,3.14c0,0.687,0.196,1.274,1.177,2.256c1.177,1.178,1.766,1.864,2.453,1.864
			c0.686,0,1.079-0.294,1.863-0.884c4.415-3.727,8.24-7.65,13.538-10.496c0.098,4.61,1.864,8.339,5.69,11.184l-3.335,2.55
			c-0.588-0.588-1.177-0.784-1.962-0.784c-1.275,0-2.551,0.491-4.513,1.766c-2.256,1.472-5.984,5.297-8.633,7.848
			c-1.471,1.472-3.041,2.257-4.512,2.257c-1.177,0-2.158-0.491-2.649-1.569c1.177-0.295,1.767-1.178,1.767-1.962
			c0-1.178-0.687-1.962-1.569-2.552c-1.472-0.883-3.042-1.667-4.415-2.845c-1.471-1.274-2.354-2.354-3.238-3.531
			c-0.686-0.785-1.274-1.079-2.157-1.079c-1.08,0-1.864,0.784-1.864,1.668C32.642,88.451,32.739,88.843,32.937,89.137z
			 M46.964,126.513c-0.196,0.49-0.294,0.98-0.294,1.57c0,0.588,0.098,1.177,0.392,1.765l-2.061-1.569l-7.357-31.587l-2.649-1.864
			l-1.275-6.083c-0.197-0.784,0.195-1.177,0.785-1.177c0.393,0,0.687,0.196,1.079,0.589c1.276,1.472,2.061,2.354,3.433,3.531
			c0.785,0.688,1.767,1.274,2.747,1.766l6.083,26.39c-0.982,0.882-1.668,2.256-1.668,3.727
			C46.179,124.648,46.473,125.63,46.964,126.513z M78.649,107.286c0.884,0,1.668-0.295,2.354-0.884
			c0.393,4.022-2.06,5.298-4.61,5.396c0.099,3.63,0.294,6.278,0.294,12.851c0,4.709-2.354,7.554-5.688,7.554
			c0.195-0.195,0.293-0.49,0.293-0.785c0-1.863-2.06-2.746-3.531-2.746c-2.943,0-4.513,2.354-7.75,2.354
			c-2.845,0-4.022-2.354-6.181-2.354c-1.374,0-2.354,0.883-2.354,2.06c0,0.589,0.196,1.079,0.589,1.57
			c-1.864,0-4.022-1.766-4.022-4.218c0-0.688,0.098-1.08,0.392-1.767c-0.49-0.588-0.882-1.57-0.882-2.747s0.588-2.452,1.864-3.237
			c-0.392-2.942,1.962-4.904,4.61-4.904c2.943,0,4.415,2.061,4.905,4.12c0.393,1.472,0.981,1.962,1.667,2.06
			c1.275,0.197,3.336,0,4.121-0.195c0.882-0.197,1.274-0.688,1.274-2.159c0.098-10.3-1.177-16.873-1.177-20.6
			c0-4.022,2.256-5.789,4.611-6.573c3.139-1.08,9.319-1.962,12.36-1.864c1.374,0,2.061,0.883,2.648,1.767
			c1.08,1.667,1.963,3.433,3.042,5.688c-0.785,0.393-1.177,1.08-1.177,2.061c0,1.374,0.784,2.551,1.863,3.14l-11.479,0.294
			c-0.098,0.687-0.098,1.374-0.098,1.962C76.59,106.402,77.473,107.286,78.649,107.286z M91.108,102.97
			c-2.06,0-3.531-1.473-3.531-3.042c0-0.98,0.295-1.569,1.472-1.766c-1.374-3.041-2.453-5.003-3.237-6.278
			c-0.294-0.491,0-0.785,0.393-0.785c0.588,0,1.078,0.196,1.471,0.785c0.688,0.883,1.569,2.256,2.257,3.531
			c1.274,2.256,2.06,4.415,2.158,7.555H91.108z M111.808,94.435c-3.924,0-5.003-0.49-7.455-1.473
			c1.569,1.473,3.236,3.631,3.334,6.278c1.963,0.59,3.337,0.884,7.555,0.884c1.863,0,4.415-0.294,6.475-0.884
			c1.472-0.392,2.354-0.979,2.844-1.667c0.491,0.785,0.785,1.667,0.785,2.452c0,2.257-1.667,4.022-3.433,4.415
			c0.686,6.965,1.275,13.93,1.275,20.208c0,4.709-2.354,7.554-5.69,7.554c0.197-0.195,0.295-0.49,0.295-0.785
			c0-1.863-2.06-2.746-3.532-2.746c-2.942,0-4.513,2.354-7.75,2.354c-2.845,0-4.021-2.354-6.18-2.354
			c-1.373,0-2.354,0.883-2.354,2.06c0,0.589,0.196,1.079,0.589,1.57c-1.864,0-4.021-1.766-4.021-4.218
			c0-0.688,0.098-1.08,0.392-1.767c-0.49-0.588-0.883-1.57-0.883-2.747s0.589-2.452,1.863-3.237
			c-0.393-2.942,1.962-4.904,4.611-4.904c2.942,0,4.414,2.061,4.905,4.12c0.392,1.472,0.98,1.962,1.668,2.06
			c1.274,0.197,3.334,0,4.119-0.195c0.883-0.197,1.275-0.688,1.275-2.159c0-2.452-0.687-5.688-1.275-8.436
			c-1.472,0.195-5.102,0.393-7.848,0.393c-6.082,0-9.516-2.747-10.104-8.731c-0.196-2.453-0.686-4.808-2.158-7.456
			c-1.079-2.061-3.531-4.807-3.531-8.339c0-2.647,0.981-4.218,4.021-5.688c2.159-0.981,4.709-2.159,6.868-3.434
			c-0.099,3.434,1.962,8.044,4.61,10.006c2.942,2.158,5.689,2.747,9.711,2.747c4.611,0,9.025-1.374,11.38-4.12
			c-1.373,0.882-3.237,1.373-5.592,1.373c-7.259,0-11.869-5.592-11.869-11.576c0-4.316,2.354-8.142,6.278-11.379
			c3.236-2.649,6.18-4.316,8.436-6.573c1.472-1.471,2.747-3.237,2.747-5.296c0-2.453-1.668-4.807-3.434-5.494
			c0.981-1.177,2.943-2.257,4.709-2.257c2.943,0,5.689,2.158,5.689,5.004c0,2.157-1.274,3.825-2.942,4.61
			c0.099,1.668-0.981,3.826-2.256,5.2c-2.453,2.648-6.966,5.494-9.909,7.848c-2.942,2.354-4.512,4.806-4.512,8.142
			c0,4.414,3.531,7.651,8.044,7.651c4.218,0,7.848-3.237,7.848-7.75c0-4.12-2.943-7.161-7.455-9.221l3.728-2.649
			c4.021,2.354,8.437,5.591,8.437,12.556C132.114,85.998,124.364,94.435,111.808,94.435z"/>
		<path fill="#FFFFFF" d="M99.251,118.272c-1.569,0-2.354,0.883-2.452,1.668c0.392-0.196,0.98-0.393,1.863-0.393
			c1.569,0,2.845,0.882,3.237,1.766C102.096,119.744,101.115,118.272,99.251,118.272z"/>
	</g>
	<g>
		<polygon fill="#FFFFFF" points="193.758,124.654 192.904,127.851 194.726,127.851 193.872,124.654 		"/>
		<path fill="#FFFFFF" d="M184.963,124.604h-1.006v2.152h1.006c0.675,0,1.07-0.535,1.07-1.083
			C186.033,125.126,185.638,124.604,184.963,124.604z"/>
		<path fill="#FFFFFF" d="M176.055,124.616h-0.981v2.14h0.981c0.547,0,1.044-0.446,1.044-1.07
			C177.099,125.075,176.602,124.616,176.055,124.616z"/>
		<path fill="#FFFFFF" d="M148.816,0v141.73h141.73V0H148.816z M251.204,91.855h5.973v1.975H253.7v1.388h3.362v1.923H253.7v1.4
			h3.477v1.974h-5.973V91.855z M253.012,91.333l1.006-1.961h2.904l-1.796,1.961H253.012z M196.727,13.652l5.477,20.557h0.188
			l5.477-20.557h10.387L208.01,42.837h-11.425l-10.246-29.185H196.727z M213.257,91.855l-2.598,8.659h-3.413l-2.599-8.659h2.803
			l1.477,6.481h0.052l1.478-6.481H213.257z M199.33,106.784h-2.113l1.006-1.961h2.903L199.33,106.784z M199.789,107.306v8.66h-2.495
			v-8.66H199.789z M200.617,91.855v1.975h-3.476v1.388h3.362v1.923h-3.362v1.4h3.476v1.974h-5.971v-8.659H200.617z M196.454,91.333
			l1.007-1.961h2.902l-1.795,1.961H196.454z M189.952,91.855h3.044l-2.891,4.189l2.929,4.47h-2.993l-2.508-4.164v4.164h-2.496
			v-8.659h2.496v3.986L189.952,91.855z M171.922,6.192l2.999,2.967h0.177l3-2.967h7.498l-6.043,6.174h-9.086l-6.043-6.174H171.922z
			 M184.162,110.668v1.923h-3.361v1.401h3.477v1.974h-5.974v-8.66h5.974v1.975h-3.477v1.388H184.162z M176.357,100.057v-2.268
			c0.56,0.396,1.719,0.893,2.864,0.893c0.841,0,1.299-0.242,1.299-0.676c0-0.344-0.318-0.496-0.789-0.61
			c-0.561-0.141-0.903-0.217-1.554-0.383c-1.172-0.292-1.923-1.133-1.923-2.47c0-1.758,1.592-2.891,3.744-2.891
			c1.019,0,1.937,0.203,2.495,0.445v2.152c-0.432-0.243-1.311-0.574-2.368-0.574c-0.968,0-1.401,0.243-1.401,0.624
			c0,0.332,0.256,0.498,0.842,0.625c0.433,0.088,0.751,0.14,1.324,0.28c1.414,0.344,2.139,1.171,2.139,2.584
			c0,1.439-1.311,2.929-3.68,2.929C178.05,100.718,177.058,100.451,176.357,100.057z M177.035,104.823l-1.744,1.961h-2.623
			l-1.745-1.961h2.165l0.866,0.942h0.051l0.865-0.942H177.035z M176,13.265c3.777,0,6.139,0.601,8.026,1.374v7.253
			c-1.794-0.815-3.823-1.416-6.751-1.416c-4.297,0-8.734,2.488-8.734,7.768c0,5.279,4.863,7.597,8.216,7.597
			c3.352,0,5.476-0.772,7.317-1.674v7.34c-1.936,0.901-5.146,1.802-8.971,1.802c-9.442,0-16.665-5.751-16.665-15.064
			C158.438,18.931,166.512,13.265,176,13.265z M164.37,91.741c1.019,0,1.656,0.178,2.166,0.407V94.3
			c-0.485-0.241-1.032-0.42-1.822-0.42c-1.158,0-2.355,0.739-2.355,2.305c0,1.566,1.312,2.255,2.216,2.255s1.477-0.229,1.974-0.497
			v2.177c-0.521,0.269-1.388,0.536-2.42,0.536c-2.546,0-4.494-1.707-4.494-4.471C159.634,93.422,161.811,91.741,164.37,91.741z
			 M161.048,89.372h2.164l0.865,0.943h0.051l0.866-0.943h2.165l-1.744,1.961h-2.624L161.048,89.372z M160.08,107.306h2.494v5.234
			c0,0.98,0.535,1.414,1.236,1.414c0.7,0,1.235-0.434,1.235-1.414v-5.234h2.495v5.464c0,2.419-1.693,3.399-3.73,3.399
			c-2.038,0-3.73-0.98-3.73-3.399V107.306z M165.199,131.416h-3.413l-2.599-8.659h2.802l1.477,6.481h0.052l1.477-6.481h2.803
			L165.199,131.416z M168.416,91.855h5.972v1.975h-3.477v1.388h3.362v1.923h-3.362v1.4h3.477v1.974h-5.972V91.855z M169.51,111.636
			c0-2.763,2.177-4.444,4.737-4.444c1.019,0,1.654,0.179,2.164,0.407v2.152c-0.483-0.241-1.031-0.42-1.82-0.42
			c-1.159,0-2.355,0.738-2.355,2.305s1.311,2.254,2.215,2.254s1.478-0.229,1.974-0.496v2.177c-0.522,0.269-1.388,0.535-2.419,0.535
			C171.458,116.105,169.51,114.399,169.51,111.636z M176.347,128.614h-1.273v2.802h-2.495v-8.659h3.769
			c2.024,0,3.285,1.389,3.285,2.98S178.371,128.614,176.347,128.614z M186.096,131.416l-1.503-3.043h-0.636v3.043h-2.496v-8.659
			h3.973c2.025,0,3.26,1.299,3.26,2.853c0,1.478-1.082,2.127-1.846,2.471l-0.013,0.051c0.114,0.076,0.318,0.331,0.483,0.611
			l1.592,2.674H186.096z M189.048,110.771v5.195h-2.496v-8.66h3.068l2.598,5.171h0.039v-5.171h2.496v8.66h-3.044l-2.624-5.195
			H189.048z M195.68,131.416l-0.483-1.795h-2.764l-0.471,1.795h-2.56l2.585-8.659h3.655l2.598,8.659H195.68z M205.734,131.416
			h-6.799v-1.91l3.615-4.724h-3.539v-2.025h6.659v1.821l-3.68,4.813h3.743V131.416z M204.254,109.331v-2.025h6.812v2.025h-2.152
			v6.635h-2.495v-6.635H204.254z M213.612,124.731h-3.477v1.388h3.362v1.923h-3.362v1.4h3.477v1.974h-5.972v-8.659h5.972V124.731z
			 M218.651,109.28h-3.476v1.388h3.362v1.923h-3.362v1.401h3.476v1.974h-5.971v-8.66h5.971V109.28z M218.932,100.515h-2.496v-3.171
			l-2.93-5.488h2.828l1.362,3.095h0.051l1.414-3.095h2.763l-2.992,5.488V100.515z M227.332,115.57
			c-0.521,0.269-1.389,0.535-2.419,0.535c-2.547,0-4.496-1.706-4.496-4.47c0-2.763,2.178-4.444,4.737-4.444
			c1.02,0,1.656,0.179,2.166,0.407v2.152c-0.484-0.241-1.032-0.42-1.822-0.42c-1.158,0-2.355,0.738-2.355,2.305
			s1.312,2.254,2.216,2.254s1.478-0.229,1.974-0.496V115.57z M225.739,100.718c-1.3,0-2.292-0.267-2.992-0.661v-2.268
			c0.561,0.396,1.719,0.893,2.864,0.893c0.841,0,1.299-0.242,1.299-0.676c0-0.344-0.317-0.496-0.789-0.61
			c-0.56-0.141-0.904-0.217-1.554-0.383c-1.172-0.292-1.923-1.133-1.923-2.47c0-1.758,1.592-2.891,3.744-2.891
			c1.02,0,1.936,0.203,2.495,0.445v2.152c-0.432-0.243-1.311-0.574-2.367-0.574c-0.969,0-1.401,0.243-1.401,0.624
			c0,0.332,0.255,0.498,0.84,0.625c0.434,0.088,0.752,0.14,1.325,0.28c1.413,0.344,2.14,1.171,2.14,2.584
			C229.42,99.229,228.107,100.718,225.739,100.718z M236.751,115.966h-2.496v-3.387h-2.56v3.387h-2.496v-8.66h2.496v3.312h2.56
			v-3.312h2.496V115.966z M235.247,100.718c-2.572,0-4.343-1.643-4.343-4.533s1.771-4.532,4.343-4.532
			c2.585,0,4.316,1.642,4.316,4.532S237.832,100.718,235.247,100.718z M247.493,115.966h-3.044l-2.623-5.195h-0.038v5.195h-2.496
			v-8.66h3.068l2.598,5.171h0.038v-5.171h2.497V115.966z M246.601,100.515l-2.509-4.164v4.164h-2.496v-8.659h2.496v3.986
			l2.419-3.986h3.043l-2.89,4.189l2.929,4.47H246.601z M250.027,32.064c0,8.154-6.279,11.458-13.833,11.458
			s-13.833-3.304-13.833-11.458V13.652h9.254v17.639c0,3.305,1.983,4.765,4.579,4.765c2.597,0,4.579-1.459,4.579-4.765V13.652h9.254
			V32.064z M252.529,115.966h-2.496v-8.66h2.496V115.966z M261.478,115.57c-0.521,0.269-1.388,0.535-2.419,0.535
			c-2.547,0-4.495-1.706-4.495-4.47c0-2.763,2.178-4.444,4.737-4.444c1.019,0,1.655,0.179,2.165,0.407v2.152
			c-0.484-0.241-1.032-0.42-1.821-0.42c-1.158,0-2.356,0.738-2.356,2.305s1.312,2.254,2.216,2.254c0.905,0,1.478-0.229,1.974-0.496
			V115.57z M268.351,115.966l-2.509-4.164v4.164h-2.495v-8.66h2.495v3.986l2.42-3.986h3.043l-2.891,4.189l2.929,4.471H268.351z
			 M278.915,109.28h-3.477v1.388h3.361v1.923h-3.361v1.401h3.477v1.974h-5.974v-8.66h5.974V109.28z M274.75,106.784l1.006-1.961
			h2.904l-1.796,1.961H274.75z M279.25,20.477h-7.978v22.36h-9.254v-22.36h-8.026v-6.824h25.258V20.477z"/>
		<path fill="#FFFFFF" d="M235.247,93.868c-1.108,0-1.668,0.891-1.668,2.316c0,1.427,0.56,2.318,1.668,2.318
			c1.12,0,1.643-0.892,1.643-2.318C236.89,94.759,236.367,93.868,235.247,93.868z"/>
	</g>
</g>
</svg>
