<?xml version="1.0" encoding="utf-8"?>
<!-- Generator: Adobe Illustrator 15.0.0, SVG Export Plug-In . SVG Version: 6.00 Build 0)  -->
<!DOCTYPE svg PUBLIC "-//W3C//DTD SVG 1.1//EN" "http://www.w3.org/Graphics/SVG/1.1/DTD/svg11.dtd">
<svg version="1.1" id="Layer_1" xmlns="http://www.w3.org/2000/svg" xmlns:xlink="http://www.w3.org/1999/xlink" x="0px" y="0px"
	 width="141.73px" height="141.73px" viewBox="0 0 141.73 141.73" enable-background="new 0 0 141.73 141.73" xml:space="preserve">
<g>
	<path fill="#FFFFFF" d="M39.027,52.239c0.883-0.589,1.178-1.571,1.178-2.454c0-1.667-1.374-2.747-2.65-2.747
		c-0.587,0-0.981,0.197-1.275,0.295C37.947,48.018,39.125,49.49,39.027,52.239z"/>
	<path fill="#FFFFFF" d="M52.764,118.273c-1.57,0-2.354,0.883-2.454,1.667c0.393-0.195,0.982-0.391,1.864-0.391
		c1.57,0,2.846,0.883,3.239,1.766C55.609,119.745,54.628,118.273,52.764,118.273z"/>
	<path fill="#FFFFFF" d="M51.881,122.787c-1.864,0-2.845,1.472-2.65,2.649c0.393-0.49,1.179-1.178,2.749-1.178
		c1.275,0,2.257,0.59,2.845,1.277C54.825,124.161,53.843,122.787,51.881,122.787z"/>
	<path fill="#FFFFFF" d="M43.344,49.59c0,0.587-0.098,1.373-0.49,2.256c1.177-0.392,2.06-1.276,2.06-2.651
		c0-1.47-1.276-2.549-2.748-2.549C42.755,47.136,43.344,48.313,43.344,49.59z"/>
	<path fill="#FFFFFF" d="M41.186,80.694c0.294-0.492,0.589-0.982,0.589-1.964c0-1.275-1.081-2.452-2.454-2.452
		c-0.785,0-1.276,0.295-1.571,0.49C39.616,77.16,41.087,78.73,41.186,80.694z"/>
	<path fill="#FFFFFF" d="M38.242,83.343c0.294-1.864-0.785-3.141-2.452-3.141c-1.277,0-2.159,0.688-2.356,1.472
		c0.393-0.098,0.884-0.195,1.472-0.195C36.377,81.479,37.652,82.166,38.242,83.343z"/>
	<path fill="#FFFFFF" d="M98.39,122.787c-1.864,0-2.845,1.472-2.648,2.649c0.393-0.49,1.177-1.178,2.747-1.178
		c1.275,0,2.257,0.59,2.845,1.277C101.333,124.161,100.353,122.787,98.39,122.787z"/>
	<path fill="#FFFFFF" d="M99.273,118.273c-1.569,0-2.355,0.883-2.454,1.667c0.394-0.195,0.982-0.391,1.865-0.391
		c1.569,0,2.846,0.883,3.238,1.766C102.119,119.745,101.138,118.273,99.273,118.273z"/>
	<path fill="#FFFFFF" d="M0,0v141.732h141.732V0H0z M114.188,44.977c2.257,0,3.827,1.08,4.808,2.259
		c-1.864,0.98-3.336,3.334-3.336,5.494c0,2.846,1.472,4.611,2.846,6.083l-3.631,2.649c-2.061-1.864-3.336-4.316-3.336-7.063
		c-1.471-0.787-2.748-2.454-2.748-4.416C108.79,47.136,111.244,44.977,114.188,44.977z M105.946,60.678
		c0,6.475-2.257,12.753-8.733,16.09c-2.748,1.374-4.317,2.256-6.379,3.238c-3.139,1.374-4.611,3.531-4.611,6.083
		c0,1.962,0.491,3.042,0.982,3.926c-2.847-0.786-4.612-3.336-4.612-6.772c0-2.746,1.864-5.003,5.2-6.768
		c2.355-1.178,4.316-1.964,8.242-3.926c6.182-3.042,8.536-8.045,8.536-14.815c0-1.767-0.294-3.239-0.589-5.005
		C105.062,54.888,105.946,57.439,105.946,60.678z M103.395,57.635c0,5.593-1.864,10.793-8.047,13.835
		c-2.943,1.374-4.905,2.159-8.241,3.729c-3.827,1.962-5.985,4.711-5.985,7.947c0,2.552,1.177,4.514,2.256,5.594
		c-3.728-1.08-6.083-4.611-6.083-8.34c0-3.924,1.864-6.573,6.672-8.832c3.042-1.373,5.299-1.864,8.832-3.336
		c6.966-2.747,8.732-7.948,8.732-13.933c0-2.06-0.295-4.513-1.374-6.573C101.628,49.49,103.395,52.239,103.395,57.635z
		 M79.649,87.954c-4.023-0.686-8.243-4.809-8.243-10.302c0-5.298,2.943-8.439,8.636-10.598c3.14-1.177,6.181-2.06,9.026-2.944
		c6.967-2.452,9.42-6.083,9.42-12.559c0-2.747-0.784-5.398-2.062-6.967c2.159,1.864,3.926,4.71,3.926,9.616
		c0,5.101-1.472,10.304-8.536,12.953c-3.337,1.275-5.201,1.962-8.732,3.434c-5.495,2.354-7.263,5.494-7.263,9.714
		C75.821,84.325,77.98,86.58,79.649,87.954z M82.102,36.734c0,1.179,0.885,2.062,1.963,2.062c1.079,0,1.963-0.882,1.963-2.062h4.022
		c0,1.277,0.784,2.062,1.962,2.062c1.08,0,1.963-1.08,1.963-2.062h4.514l-3.041,5.398c-2.454-0.295-5.594-0.492-9.225-0.492
		c-1.962,0-3.925,0.099-5.985,0.294l-2.648-5.201H82.102z M65.225,46.449c-0.392,0.492-0.49,0.884-0.49,1.569
		c0,1.472,1.766,2.649,4.906,2.649c2.944,0,4.807-0.686,7.065-0.686c2.943,0,4.71,0.98,5.493,2.06
		c-0.098-2.256-1.766-4.219-3.924-4.219c-1.472,0-2.062,0.884-2.257,1.275c-0.099,0.295-0.295,0.393-0.49,0.393
		c-0.196,0-0.393-0.098-0.393-0.295l-0.491-4.904c-0.098-0.59,0.197-0.884,0.981-0.982l5.004-0.393
		c0.885,2.452,1.472,3.827,2.747,3.827c0.688,0,0.981-0.785,0.981-1.472c1.08-0.295,2.159-0.295,3.238-0.195
		c-1.276-0.884-5.495-0.394-6.77-2.159c2.06-0.098,3.63-0.195,5.297-0.195c1.669,0,3.141,0,4.515,0.195
		c1.569,0.195,3.14,1.08,3.14,2.747c0,1.08-0.588,1.864-1.669,1.864c-0.391,0-0.686-0.098-1.078-0.393
		c0.098,0.785,0.883,1.277,1.668,1.277c1.275,0,2.159-0.787,2.159-2.454c0-0.882-0.196-1.864-0.884-2.649
		c2.061,1.667,3.337,4.611,3.337,8.045c0,5.985-2.159,9.126-8.832,11.481c-3.434,1.177-6.182,1.962-9.616,3.238
		c-5.592,2.06-8.928,5.886-8.928,11.284c0,3.729,1.864,7.947,5.789,9.911c-5.985-0.786-10.205-6.183-10.205-12.168
		c0-6.477,4.907-12.265,12.461-14.032c2.847-0.686,5.299-1.08,8.635-1.962c6.28-1.667,8.243-4.414,8.243-8.045
		c0-0.982-0.196-1.767-0.688-2.551c0.099,0.587,0.099,1.08,0.099,1.667c0,3.926-3.63,7.458-8.928,7.948
		c-2.847,0.197-5.888,0.589-8.832,0.884c-0.688,0.098-0.98-0.197-0.98-0.785l-0.098-4.71c0-0.195,0.098-0.393,0.391-0.393
		c0.197,0,0.295,0.1,0.393,0.295c0.59,0.882,1.767,1.765,3.436,1.765c1.373,0,2.158-0.783,2.158-1.667
		c0-0.98-0.883-1.864-2.649-1.864c-3.826,0-5.788,2.649-10.008,2.649c-4.612,0-6.182-2.257-6.182-4.414
		C62.968,48.118,63.949,47.038,65.225,46.449z M38.928,45.076c1.178,0,1.767,0.293,2.355,0.687c0.492-0.197,1.08-0.294,1.864-0.294
		c2.257,0,4.709,1.864,4.709,4.708c0,2.649-1.57,3.926-3.139,5.003c-0.786,0.59-0.982,1.179-0.883,2.062
		c0.098,1.08,0.687,2.944,0.98,3.924c0.295,0.884,0.982,1.276,2.062,1.179c5.396-0.392,13.148-0.982,17.859-1.179
		c4.415-0.195,7.555-0.293,11.185-0.488c-6.868,1.667-10.792,6.278-11.872,12.853l-3.139,1.667
		c-0.687-2.648-4.22-3.531-12.364-3.531c-2.846,0-4.612,0.195-6.574,0.195c-3.042,0-5.298-1.275-5.985-3.729
		c1.177,0,2.061-0.98,2.061-2.159c0-2.354-3.631-4.709-3.631-9.222c0-1.472,0.196-2.846,0.196-3.926c0-1.177-0.98-1.962-2.06-1.962
		c-0.884,0-1.668,0.392-2.062,0.785c-0.195-2.747,2.062-4.808,4.907-4.611C35.79,46.154,37.261,45.076,38.928,45.076z
		 M28.333,42.722c2.649,0,5.003,1.177,6.573,3.139c-2.257-0.294-4.416,1.275-5.101,3.042c-0.59-0.195-1.081-0.195-1.472-0.195
		c-2.257,0-4.024,1.765-4.024,3.924c0,2.159,1.767,4.021,4.024,4.021c2.256,0,3.629-1.765,3.629-4.021v-0.393
		c0.099-0.1,0.295-0.1,0.589-0.1c0.392,0,0.785,0.197,0.785,0.884c0,0.785-0.294,2.257-0.294,3.729c0,1.373,0.294,2.354,0.687,3.336
		l3.336,13.933c-0.491,0.393-0.982,0.883-1.374,1.472c-1.865,0.393-3.435,1.569-4.122,3.237l-3.531-16.288
		c-5.496-0.098-9.911-4.416-9.911-9.812C18.127,46.841,22.64,42.722,28.333,42.722z M22.347,94.822l-2.651,1.864l-7.359,31.596
		l-5.984,4.611l16.778-70.548c1.079,0.588,2.355,0.98,3.827,1.275l1.275,5.888L22.347,94.822z M32.943,89.132
		c-1.471-0.49-2.354-2.061-2.354-3.729c0-1.569,0.981-2.746,1.963-3.336c-0.098-0.295-0.197-0.686-0.197-1.177
		c0-2.061,1.669-4.022,4.318-4.219c0.49-1.373,1.962-2.454,3.924-2.454c2.356,0,4.809,1.767,4.809,4.907
		c0,1.57-0.393,1.962-0.393,3.14c0,0.687,0.196,1.274,1.178,2.257c1.177,1.177,1.766,1.864,2.453,1.864
		c0.687,0,1.079-0.295,1.865-0.883c4.416-3.73,8.242-7.654,13.54-10.499c0.098,4.611,1.864,8.34,5.691,11.185l-3.336,2.552
		c-0.588-0.588-1.177-0.785-1.962-0.785c-1.276,0-2.552,0.492-4.514,1.767c-2.256,1.472-5.985,5.299-8.634,7.85
		c-1.472,1.473-3.042,2.257-4.514,2.257c-1.177,0-2.159-0.491-2.649-1.569c1.177-0.295,1.766-1.178,1.766-1.964
		c0-1.177-0.687-1.962-1.57-2.55c-1.471-0.884-3.042-1.669-4.415-2.846c-1.471-1.275-2.355-2.354-3.238-3.534
		c-0.687-0.784-1.276-1.077-2.159-1.077c-1.08,0-1.864,0.784-1.864,1.667C32.649,88.446,32.748,88.837,32.943,89.132z
		 M45.012,128.282l-7.36-31.596l-2.649-1.864l-1.275-6.083c-0.196-0.785,0.196-1.178,0.785-1.178c0.393,0,0.688,0.195,1.08,0.59
		c1.276,1.472,2.06,2.354,3.434,3.531c0.785,0.688,1.767,1.277,2.749,1.767l6.082,26.394c-0.981,0.885-1.667,2.257-1.667,3.729
		c0,1.079,0.294,2.062,0.784,2.943c-0.195,0.492-0.294,0.982-0.294,1.569c0,0.59,0.099,1.178,0.393,1.768L45.012,128.282z
		 M78.668,107.285c0.883,0,1.667-0.295,2.354-0.883c0.394,4.021-2.061,5.298-4.611,5.396c0.098,3.63,0.295,6.28,0.295,12.854
		c0,4.711-2.356,7.555-5.691,7.555c0.196-0.195,0.293-0.489,0.293-0.784c0-1.864-2.06-2.747-3.532-2.747
		c-2.944,0-4.514,2.354-7.752,2.354c-2.845,0-4.022-2.354-6.182-2.354c-1.373,0-2.354,0.883-2.354,2.06
		c0,0.59,0.196,1.08,0.588,1.571c-1.864,0-4.023-1.767-4.023-4.221c0-0.687,0.098-1.077,0.393-1.765
		c-0.49-0.589-0.883-1.571-0.883-2.748c0-1.178,0.588-2.452,1.865-3.239c-0.393-2.941,1.962-4.905,4.611-4.905
		c2.944,0,4.416,2.062,4.906,4.122c0.394,1.473,0.982,1.963,1.669,2.061c1.274,0.195,3.335,0,4.121-0.197
		c0.882-0.195,1.274-0.686,1.274-2.157c0.099-10.304-1.177-16.879-1.177-20.605c0-4.023,2.256-5.79,4.612-6.575
		c3.14-1.079,9.321-1.962,12.363-1.864c1.374,0,2.061,0.884,2.649,1.767c1.079,1.667,1.962,3.434,3.043,5.69
		c-0.786,0.393-1.18,1.08-1.18,2.062c0,1.373,0.786,2.55,1.864,3.14l-11.479,0.295c-0.099,0.685-0.099,1.372-0.099,1.962
		C76.607,106.402,77.49,107.285,78.668,107.285z M91.129,102.967c-2.061,0-3.532-1.473-3.532-3.042c0-0.979,0.294-1.569,1.472-1.767
		c-1.373-3.041-2.453-5.003-3.238-6.28c-0.294-0.49,0-0.783,0.393-0.783c0.59,0,1.08,0.195,1.473,0.783
		c0.687,0.885,1.569,2.259,2.256,3.533c1.276,2.257,2.061,4.416,2.158,7.556H91.129z M111.833,94.432
		c-3.925,0-5.005-0.492-7.458-1.472c1.571,1.472,3.238,3.629,3.337,6.278c1.962,0.589,3.336,0.884,7.556,0.884
		c1.863,0,4.415-0.295,6.476-0.884c1.472-0.393,2.354-0.98,2.845-1.668c0.491,0.785,0.786,1.668,0.786,2.452
		c0,2.257-1.669,4.023-3.436,4.416c0.688,6.968,1.276,13.933,1.276,20.213c0,4.711-2.355,7.555-5.691,7.555
		c0.196-0.195,0.295-0.489,0.295-0.784c0-1.864-2.061-2.747-3.532-2.747c-2.944,0-4.514,2.354-7.752,2.354
		c-2.845,0-4.023-2.354-6.182-2.354c-1.374,0-2.355,0.883-2.355,2.06c0,0.59,0.196,1.08,0.589,1.571
		c-1.864,0-4.022-1.767-4.022-4.221c0-0.687,0.099-1.077,0.392-1.765c-0.49-0.589-0.883-1.571-0.883-2.748
		c0-1.178,0.59-2.452,1.865-3.239c-0.393-2.941,1.962-4.905,4.611-4.905c2.943,0,4.415,2.062,4.905,4.122
		c0.394,1.473,0.981,1.963,1.669,2.061c1.274,0.195,3.336,0,4.121-0.197c0.883-0.195,1.275-0.686,1.275-2.157
		c0-2.454-0.687-5.691-1.275-8.439c-1.472,0.195-5.103,0.393-7.85,0.393c-6.083,0-9.518-2.747-10.106-8.732
		c-0.196-2.454-0.688-4.809-2.159-7.457c-1.079-2.06-3.532-4.809-3.532-8.34c0-2.649,0.981-4.219,4.024-5.691
		c2.157-0.981,4.708-2.159,6.867-3.436c-0.099,3.436,1.962,8.047,4.611,10.009c2.944,2.159,5.69,2.747,9.714,2.747
		c4.611,0,9.027-1.372,11.384-4.121c-1.375,0.884-3.239,1.374-5.595,1.374c-7.261,0-11.873-5.593-11.873-11.578
		c0-4.316,2.355-8.143,6.28-11.381c3.238-2.649,6.182-4.318,8.438-6.575c1.472-1.472,2.749-3.237,2.749-5.298
		c0-2.452-1.67-4.809-3.437-5.494c0.982-1.179,2.944-2.259,4.711-2.259c2.944,0,5.69,2.159,5.69,5.005
		c0,2.157-1.274,3.827-2.943,4.611c0.099,1.669-0.98,3.826-2.257,5.201c-2.453,2.649-6.967,5.494-9.909,7.85
		c-2.944,2.354-4.515,4.809-4.515,8.143c0,4.416,3.532,7.654,8.046,7.654c4.22,0,7.85-3.238,7.85-7.752
		c0-4.121-2.943-7.163-7.457-9.222l3.729-2.651c4.023,2.356,8.438,5.595,8.438,12.561C132.144,85.992,124.393,94.432,111.833,94.432
		z"/>
</g>
</svg>
