<?xml version="1.0" encoding="utf-8"?>
<!-- Generator: Adobe Illustrator 15.0.0, SVG Export Plug-In . SVG Version: 6.00 Build 0)  -->
<!DOCTYPE svg PUBLIC "-//W3C//DTD SVG 1.1//EN" "http://www.w3.org/Graphics/SVG/1.1/DTD/svg11.dtd">
<svg version="1.1" id="Layer_1" xmlns="http://www.w3.org/2000/svg" xmlns:xlink="http://www.w3.org/1999/xlink" x="0px" y="0px"
	 width="290.547px" height="141.73px" viewBox="0 0 290.547 141.73" enable-background="new 0 0 290.547 141.73"
	 xml:space="preserve">
<g>
	<g>
		<path fill="#FFFFFF" d="M51.869,122.784c-1.864,0-2.844,1.473-2.649,2.649c0.393-0.49,1.177-1.177,2.747-1.177
			c1.276,0,2.257,0.588,2.845,1.274C54.812,124.159,53.831,122.784,51.869,122.784z"/>
		<path fill="#FFFFFF" d="M52.751,118.272c-1.569,0-2.354,0.883-2.452,1.668c0.393-0.196,0.981-0.393,1.865-0.393
			c1.569,0,2.844,0.882,3.237,1.766C55.597,119.744,54.616,118.272,52.751,118.272z"/>
		<path fill="#FFFFFF" d="M39.018,52.252c0.883-0.589,1.177-1.57,1.177-2.453c0-1.667-1.373-2.747-2.648-2.747
			c-0.589,0-0.981,0.197-1.276,0.294C37.939,48.034,39.116,49.505,39.018,52.252z"/>
		<path fill="#FFFFFF" d="M38.233,83.35c0.295-1.864-0.785-3.14-2.452-3.14c-1.275,0-2.158,0.687-2.354,1.472
			c0.393-0.099,0.883-0.196,1.472-0.196C36.37,81.485,37.645,82.173,38.233,83.35z"/>
		<path fill="#FFFFFF" d="M41.177,80.7c0.294-0.49,0.588-0.98,0.588-1.962c0-1.274-1.079-2.452-2.452-2.452
			c-0.785,0-1.275,0.294-1.57,0.49C39.607,77.169,41.078,78.738,41.177,80.7z"/>
		<path fill="#FFFFFF" d="M99.251,118.272c-1.569,0-2.354,0.883-2.452,1.668c0.392-0.196,0.98-0.393,1.863-0.393
			c1.569,0,2.845,0.882,3.237,1.766C102.096,119.744,101.115,118.272,99.251,118.272z"/>
		<path fill="#FFFFFF" d="M43.334,49.604c0,0.588-0.098,1.373-0.49,2.256c1.177-0.393,2.06-1.276,2.06-2.648
			c0-1.472-1.275-2.551-2.747-2.551C42.746,47.15,43.334,48.328,43.334,49.604z"/>
		<path fill="#FFFFFF" d="M0,0v141.73h141.73V0H0z M114.162,44.992c2.256,0,3.826,1.08,4.807,2.257
			c-1.864,0.98-3.335,3.334-3.335,5.494c0,2.844,1.471,4.61,2.845,6.081l-3.63,2.649c-2.061-1.864-3.335-4.316-3.335-7.063
			c-1.473-0.785-2.747-2.452-2.747-4.414C108.767,47.15,111.219,44.992,114.162,44.992z M105.922,60.688
			c0,6.474-2.257,12.753-8.731,16.088c-2.746,1.373-4.316,2.257-6.376,3.237c-3.14,1.374-4.61,3.531-4.61,6.083
			c0,1.962,0.49,3.04,0.98,3.924c-2.845-0.785-4.611-3.337-4.611-6.77c0-2.747,1.864-5.003,5.2-6.77
			c2.354-1.177,4.316-1.962,8.24-3.924c6.18-3.041,8.534-8.043,8.534-14.812c0-1.766-0.294-3.238-0.588-5.002
			C105.039,54.9,105.922,57.451,105.922,60.688z M103.371,57.646c0,5.592-1.864,10.792-8.044,13.833
			c-2.943,1.374-4.905,2.159-8.24,3.728c-3.826,1.962-5.984,4.709-5.984,7.945c0,2.552,1.178,4.514,2.256,5.592
			c-3.727-1.078-6.081-4.609-6.081-8.339c0-3.924,1.863-6.571,6.671-8.828c3.04-1.374,5.296-1.864,8.828-3.336
			c6.965-2.747,8.73-7.945,8.73-13.929c0-2.06-0.294-4.513-1.373-6.573C101.605,49.505,103.371,52.252,103.371,57.646z
			 M79.632,87.96c-4.022-0.687-8.241-4.808-8.241-10.301c0-5.297,2.942-8.436,8.633-10.595c3.139-1.177,6.18-2.06,9.024-2.942
			c6.965-2.453,9.418-6.083,9.418-12.557c0-2.747-0.785-5.396-2.061-6.965c2.158,1.864,3.924,4.708,3.924,9.614
			c0,5.101-1.471,10.301-8.534,12.949c-3.336,1.276-5.2,1.962-8.731,3.433c-5.493,2.354-7.259,5.493-7.259,9.712
			C75.806,84.33,77.964,86.586,79.632,87.96z M82.084,36.752c0,1.177,0.882,2.06,1.962,2.06c1.079,0,1.962-0.882,1.962-2.06h4.021
			c0,1.275,0.785,2.06,1.962,2.06c1.079,0,1.962-1.079,1.962-2.06h4.514l-3.042,5.396c-2.452-0.295-5.591-0.491-9.221-0.491
			c-1.962,0-3.924,0.098-5.984,0.293l-2.648-5.199H82.084z M65.21,46.464c-0.392,0.49-0.49,0.882-0.49,1.569
			c0,1.471,1.765,2.648,4.904,2.648c2.944,0,4.807-0.686,7.063-0.686c2.944,0,4.709,0.98,5.494,2.06
			c-0.098-2.257-1.766-4.219-3.925-4.219c-1.471,0-2.06,0.883-2.256,1.276c-0.098,0.293-0.293,0.392-0.49,0.392
			c-0.195,0-0.393-0.099-0.393-0.294l-0.49-4.906c-0.098-0.587,0.196-0.882,0.981-0.98l5.002-0.393
			c0.884,2.452,1.473,3.826,2.747,3.826c0.688,0,0.981-0.785,0.981-1.471c1.079-0.295,2.158-0.295,3.237-0.197
			c-1.274-0.882-5.493-0.392-6.769-2.157c2.06-0.099,3.629-0.197,5.297-0.197s3.139,0,4.514,0.197
			c1.569,0.195,3.139,1.079,3.139,2.747c0,1.079-0.59,1.863-1.668,1.863c-0.393,0-0.687-0.099-1.079-0.393
			c0.098,0.785,0.883,1.276,1.668,1.276c1.274,0,2.158-0.785,2.158-2.453c0-0.883-0.196-1.863-0.884-2.648
			c2.061,1.667,3.336,4.61,3.336,8.043c0,5.985-2.159,9.124-8.829,11.478c-3.434,1.177-6.18,1.962-9.613,3.238
			c-5.592,2.06-8.927,5.886-8.927,11.281c0,3.728,1.864,7.946,5.789,9.908c-5.985-0.785-10.203-6.181-10.203-12.164
			c0-6.476,4.904-12.263,12.458-14.029c2.845-0.687,5.297-1.08,8.632-1.962c6.278-1.667,8.241-4.414,8.241-8.044
			c0-0.981-0.196-1.766-0.687-2.551c0.098,0.589,0.098,1.08,0.098,1.667c0,3.924-3.629,7.455-8.928,7.946
			c-2.845,0.196-5.886,0.588-8.828,0.883c-0.687,0.098-0.981-0.197-0.981-0.785l-0.098-4.709c0-0.197,0.098-0.392,0.393-0.392
			c0.195,0,0.294,0.098,0.392,0.293c0.589,0.883,1.767,1.766,3.435,1.766c1.372,0,2.157-0.785,2.157-1.667
			c0-0.982-0.883-1.864-2.648-1.864c-3.825,0-5.787,2.649-10.006,2.649c-4.611,0-6.181-2.256-6.181-4.415
			C62.954,48.131,63.936,47.052,65.21,46.464z M38.92,45.09c1.177,0,1.766,0.295,2.354,0.688c0.49-0.196,1.08-0.295,1.864-0.295
			c2.256,0,4.709,1.864,4.709,4.709c0,2.649-1.57,3.924-3.139,5.003c-0.785,0.588-0.982,1.177-0.883,2.06
			c0.098,1.08,0.686,2.944,0.981,3.924c0.294,0.883,0.981,1.276,2.06,1.177c5.396-0.393,13.146-0.98,17.855-1.177
			c4.414-0.195,7.553-0.294,11.183-0.49c-6.866,1.667-10.791,6.278-11.87,12.852l-3.139,1.667c-0.687-2.649-4.219-3.532-12.36-3.532
			c-2.845,0-4.61,0.196-6.572,0.196c-3.042,0-5.298-1.276-5.984-3.728c1.177,0,2.061-0.981,2.061-2.158
			c0-2.354-3.63-4.708-3.63-9.221c0-1.472,0.196-2.844,0.196-3.924c0-1.177-0.981-1.962-2.06-1.962
			c-0.883,0-1.668,0.392-2.061,0.785c-0.196-2.747,2.061-4.806,4.905-4.611C35.781,46.169,37.253,45.09,38.92,45.09z M28.325,42.736
			c2.649,0,5.003,1.177,6.573,3.139c-2.257-0.294-4.415,1.275-5.101,3.042c-0.589-0.196-1.08-0.196-1.472-0.196
			c-2.257,0-4.021,1.766-4.021,3.924s1.765,4.022,4.021,4.022s3.629-1.767,3.629-4.022c0-0.099,0-0.294,0-0.392
			c0.099-0.099,0.295-0.099,0.589-0.099c0.393,0,0.785,0.197,0.785,0.883c0,0.785-0.294,2.256-0.294,3.728
			c0,1.374,0.294,2.354,0.687,3.335l3.334,13.93c-0.49,0.393-0.98,0.883-1.373,1.473c-1.864,0.392-3.434,1.569-4.121,3.236
			l-3.531-16.284c-5.494-0.099-9.908-4.415-9.908-9.81C18.123,46.857,22.636,42.736,28.325,42.736z M22.342,94.827l-2.649,1.864
			l-7.357,31.587l-5.984,4.61l16.775-70.533c1.079,0.589,2.354,0.982,3.826,1.276l1.275,5.886L22.342,94.827z M32.937,89.137
			c-1.472-0.49-2.354-2.061-2.354-3.728c0-1.569,0.98-2.747,1.962-3.335c-0.099-0.294-0.197-0.687-0.197-1.178
			c0-2.061,1.668-4.022,4.316-4.218c0.491-1.374,1.962-2.453,3.924-2.453c2.354,0,4.807,1.766,4.807,4.905
			c0,1.569-0.393,1.962-0.393,3.14c0,0.687,0.196,1.274,1.177,2.256c1.177,1.178,1.766,1.864,2.453,1.864
			c0.686,0,1.079-0.294,1.863-0.884c4.415-3.727,8.24-7.65,13.538-10.496c0.098,4.61,1.864,8.339,5.69,11.184l-3.335,2.55
			c-0.588-0.588-1.177-0.784-1.962-0.784c-1.275,0-2.551,0.491-4.513,1.766c-2.256,1.472-5.984,5.297-8.633,7.848
			c-1.471,1.472-3.041,2.257-4.512,2.257c-1.177,0-2.158-0.491-2.649-1.569c1.177-0.295,1.767-1.178,1.767-1.962
			c0-1.178-0.687-1.962-1.569-2.552c-1.472-0.883-3.042-1.667-4.415-2.845c-1.471-1.274-2.354-2.354-3.238-3.531
			c-0.686-0.785-1.274-1.079-2.157-1.079c-1.08,0-1.864,0.784-1.864,1.668C32.642,88.451,32.739,88.843,32.937,89.137z
			 M46.964,126.513c-0.196,0.49-0.294,0.98-0.294,1.57c0,0.588,0.098,1.177,0.392,1.765l-2.061-1.569l-7.357-31.587l-2.649-1.864
			l-1.275-6.083c-0.197-0.784,0.195-1.177,0.785-1.177c0.393,0,0.687,0.196,1.079,0.589c1.276,1.472,2.061,2.354,3.433,3.531
			c0.785,0.688,1.767,1.274,2.747,1.766l6.083,26.39c-0.982,0.882-1.668,2.256-1.668,3.727
			C46.179,124.648,46.473,125.63,46.964,126.513z M78.649,107.286c0.884,0,1.668-0.295,2.354-0.884
			c0.393,4.022-2.06,5.298-4.61,5.396c0.099,3.63,0.294,6.278,0.294,12.851c0,4.709-2.354,7.554-5.688,7.554
			c0.195-0.195,0.293-0.49,0.293-0.785c0-1.863-2.06-2.746-3.531-2.746c-2.943,0-4.513,2.354-7.75,2.354
			c-2.845,0-4.022-2.354-6.181-2.354c-1.374,0-2.354,0.883-2.354,2.06c0,0.589,0.196,1.079,0.589,1.57
			c-1.864,0-4.022-1.766-4.022-4.218c0-0.688,0.098-1.08,0.392-1.767c-0.49-0.588-0.882-1.57-0.882-2.747s0.588-2.452,1.864-3.237
			c-0.392-2.942,1.962-4.904,4.61-4.904c2.943,0,4.415,2.061,4.905,4.12c0.393,1.472,0.981,1.962,1.667,2.06
			c1.275,0.197,3.336,0,4.121-0.195c0.882-0.197,1.274-0.688,1.274-2.159c0.098-10.3-1.177-16.873-1.177-20.6
			c0-4.022,2.256-5.789,4.611-6.573c3.139-1.08,9.319-1.962,12.36-1.864c1.374,0,2.061,0.883,2.648,1.767
			c1.08,1.667,1.963,3.433,3.042,5.688c-0.785,0.393-1.177,1.08-1.177,2.061c0,1.374,0.784,2.551,1.863,3.14l-11.479,0.294
			c-0.098,0.687-0.098,1.374-0.098,1.962C76.59,106.402,77.473,107.286,78.649,107.286z M91.108,102.97
			c-2.06,0-3.531-1.473-3.531-3.042c0-0.98,0.295-1.569,1.472-1.766c-1.374-3.041-2.453-5.003-3.237-6.278
			c-0.294-0.491,0-0.785,0.393-0.785c0.588,0,1.078,0.196,1.471,0.785c0.688,0.883,1.569,2.256,2.257,3.531
			c1.274,2.256,2.06,4.415,2.158,7.555H91.108z M111.808,94.435c-3.924,0-5.003-0.49-7.455-1.473
			c1.569,1.473,3.236,3.631,3.334,6.278c1.963,0.59,3.337,0.884,7.555,0.884c1.863,0,4.415-0.294,6.475-0.884
			c1.472-0.392,2.354-0.979,2.844-1.667c0.491,0.785,0.785,1.667,0.785,2.452c0,2.257-1.667,4.022-3.433,4.415
			c0.686,6.965,1.275,13.93,1.275,20.208c0,4.709-2.354,7.554-5.69,7.554c0.197-0.195,0.295-0.49,0.295-0.785
			c0-1.863-2.06-2.746-3.532-2.746c-2.942,0-4.513,2.354-7.75,2.354c-2.845,0-4.021-2.354-6.18-2.354
			c-1.373,0-2.354,0.883-2.354,2.06c0,0.589,0.196,1.079,0.589,1.57c-1.864,0-4.021-1.766-4.021-4.218
			c0-0.688,0.098-1.08,0.392-1.767c-0.49-0.588-0.883-1.57-0.883-2.747s0.589-2.452,1.863-3.237
			c-0.393-2.942,1.962-4.904,4.611-4.904c2.942,0,4.414,2.061,4.905,4.12c0.392,1.472,0.98,1.962,1.668,2.06
			c1.274,0.197,3.334,0,4.119-0.195c0.883-0.197,1.275-0.688,1.275-2.159c0-2.452-0.687-5.688-1.275-8.436
			c-1.472,0.195-5.102,0.393-7.848,0.393c-6.082,0-9.516-2.747-10.104-8.731c-0.196-2.453-0.686-4.808-2.158-7.456
			c-1.079-2.061-3.531-4.807-3.531-8.339c0-2.647,0.981-4.218,4.021-5.688c2.159-0.981,4.709-2.159,6.868-3.434
			c-0.099,3.434,1.962,8.044,4.61,10.006c2.942,2.158,5.689,2.747,9.711,2.747c4.611,0,9.025-1.374,11.38-4.12
			c-1.373,0.882-3.237,1.373-5.592,1.373c-7.259,0-11.869-5.592-11.869-11.576c0-4.316,2.354-8.142,6.278-11.379
			c3.236-2.649,6.18-4.316,8.436-6.573c1.472-1.471,2.747-3.237,2.747-5.296c0-2.453-1.668-4.807-3.434-5.494
			c0.981-1.177,2.943-2.257,4.709-2.257c2.943,0,5.689,2.158,5.689,5.004c0,2.157-1.274,3.825-2.942,4.61
			c0.099,1.668-0.981,3.826-2.256,5.2c-2.453,2.648-6.966,5.494-9.909,7.848c-2.942,2.354-4.512,4.806-4.512,8.142
			c0,4.414,3.531,7.651,8.044,7.651c4.218,0,7.848-3.237,7.848-7.75c0-4.12-2.943-7.161-7.455-9.221l3.728-2.649
			c4.021,2.354,8.437,5.591,8.437,12.556C132.114,85.998,124.364,94.435,111.808,94.435z"/>
		<path fill="#FFFFFF" d="M98.368,122.784c-1.863,0-2.846,1.473-2.648,2.649c0.393-0.49,1.178-1.177,2.747-1.177
			c1.274,0,2.256,0.588,2.844,1.274C101.311,124.159,100.33,122.784,98.368,122.784z"/>
	</g>
	<g>
		<path fill="#FFFFFF" d="M191.505,124.604h-1.006v2.152h1.006c0.674,0,1.069-0.535,1.069-1.083
			C192.574,125.126,192.179,124.604,191.505,124.604z"/>
		<polygon fill="#FFFFFF" points="267.727,93.753 266.874,96.949 268.694,96.949 267.842,93.753 		"/>
		<polygon fill="#FFFFFF" points="200.312,124.654 199.458,127.851 201.279,127.851 200.426,124.654 		"/>
		<path fill="#FFFFFF" d="M148.816,0v141.73h141.73V0H148.816z M215.274,13.652h9.253v17.639c0,3.305,1.983,4.765,4.58,4.765
			c2.598,0,4.579-1.459,4.579-4.765V13.652h9.255v18.412c0,8.154-6.279,11.458-13.834,11.458c-7.554,0-13.833-3.304-13.833-11.458
			V13.652z M232.511,97.128v3.387h-2.496v-8.659h2.496v3.312h2.56v-3.312h2.495v8.659h-2.495v-3.387H232.511z M226.16,98.439
			c0.905,0,1.478-0.229,1.974-0.497v2.177c-0.521,0.269-1.388,0.536-2.419,0.536c-2.546,0-4.495-1.707-4.495-4.471
			c0-2.763,2.178-4.443,4.737-4.443c1.019,0,1.655,0.178,2.164,0.407V94.3c-0.483-0.241-1.031-0.42-1.82-0.42
			c-1.158,0-2.356,0.739-2.356,2.305C223.944,97.751,225.257,98.439,226.16,98.439z M213.469,91.855h5.973v1.975h-3.477v1.388h3.361
			v1.923h-3.361v1.4h3.477v1.974h-5.973V91.855z M186.993,13.652h25.257v6.824h-7.978v22.36h-9.254v-22.36h-8.025V13.652z
			 M205.044,93.88v-2.024h6.812v2.024h-2.151v6.635h-2.497V93.88H205.044z M200.63,110.668v1.923h-3.361v1.401h3.477v1.974h-5.973
			v-8.66h5.973v1.975h-3.477v1.388H200.63z M198.086,95.167v-3.312h2.495v8.659h-2.495v-3.387h-2.561v3.387h-2.496v-8.659h2.496
			v3.312H198.086z M188.972,91.741c1.02,0,1.656,0.178,2.165,0.407V94.3c-0.483-0.241-1.031-0.42-1.82-0.42
			c-1.16,0-2.356,0.739-2.356,2.305c0,1.566,1.312,2.255,2.216,2.255s1.478-0.229,1.975-0.497v2.177
			c-0.522,0.269-1.389,0.536-2.42,0.536c-2.547,0-4.495-1.707-4.495-4.471C184.235,93.422,186.413,91.741,188.972,91.741z
			 M176,13.265c3.777,0,6.139,0.601,8.026,1.374v7.253c-1.794-0.815-3.823-1.416-6.751-1.416c-4.297,0-8.734,2.488-8.734,7.768
			c0,5.279,4.863,7.597,8.216,7.597c3.352,0,5.476-0.772,7.317-1.674v7.34c-1.936,0.901-5.146,1.802-8.971,1.802
			c-9.442,0-16.665-5.751-16.665-15.064C158.438,18.931,166.512,13.265,176,13.265z M182.329,95.218v1.923h-3.361v1.4h3.476v1.974
			h-5.972v-8.659h5.972v1.975h-3.476v1.388H182.329z M180.747,107.306h2.497v8.66h-2.497V107.306z M167.855,93.88v-2.024h6.659v1.82
			l-3.68,4.813h3.744v2.025h-6.801v-1.91l3.617-4.725H167.855z M164.37,91.741c1.019,0,1.656,0.178,2.166,0.407V94.3
			c-0.485-0.241-1.032-0.42-1.822-0.42c-1.158,0-2.355,0.739-2.355,2.305c0,1.566,1.312,2.255,2.216,2.255s1.477-0.229,1.974-0.497
			v2.177c-0.521,0.269-1.388,0.536-2.42,0.536c-2.546,0-4.494-1.707-4.494-4.471C159.634,93.422,161.811,91.741,164.37,91.741z
			 M162.639,131.416h-2.496v-8.659h2.496V131.416z M160.08,112.77v-5.464h2.494v5.234c0,0.98,0.535,1.414,1.236,1.414
			c0.7,0,1.235-0.434,1.235-1.414v-5.234h2.495v5.464c0,2.419-1.693,3.399-3.73,3.399C161.772,116.169,160.08,115.188,160.08,112.77
			z M173.384,131.416h-3.044l-2.623-5.195h-0.037v5.195h-2.497v-8.659h3.069l2.598,5.171h0.038v-5.171h2.496V131.416z
			 M178.207,115.966h-3.044l-2.622-5.195h-0.038v5.195h-2.496v-8.66h3.068l2.598,5.171h0.039v-5.171h2.495V115.966z
			 M182.889,128.614h-1.273v2.802h-2.496v-8.659h3.77c2.024,0,3.284,1.389,3.284,2.98S184.913,128.614,182.889,128.614z
			 M184.578,107.306h2.802l1.477,6.482h0.051l1.478-6.482h2.802l-2.598,8.66h-3.412L184.578,107.306z M192.638,131.416l-1.503-3.043
			h-0.636v3.043h-2.497v-8.659h3.974c2.024,0,3.26,1.299,3.26,2.853c0,1.478-1.083,2.127-1.847,2.471l-0.012,0.051
			c0.113,0.076,0.317,0.331,0.482,0.611l1.593,2.674H192.638z M202.234,131.416l-0.484-1.795h-2.763l-0.472,1.795h-2.559
			l2.585-8.659h3.654l2.598,8.659H202.234z M205.517,115.966h-2.497v-8.66h3.973c2.025,0,3.26,1.299,3.26,2.853
			c0,1.478-1.082,2.128-1.845,2.471l-0.014,0.051c0.114,0.076,0.318,0.331,0.483,0.612l1.592,2.674h-2.813l-1.504-3.044h-0.635
			V115.966z M213.486,130.882c-0.521,0.268-1.593,0.737-3.133,0.737c-2.419,0-4.622-1.706-4.622-4.532
			c0-2.827,1.974-4.647,4.915-4.647c1.146,0,1.986,0.317,2.496,0.547v2.037c-0.471-0.254-1.235-0.561-2.127-0.561
			c-1.617,0-2.56,0.867-2.56,2.624c0,1.63,1.069,2.368,2.038,2.368c0.19,0,0.382-0.025,0.56-0.063v-2.343h2.433V130.882z
			 M211.954,115.508v-2.268c0.561,0.395,1.719,0.892,2.865,0.892c0.841,0,1.299-0.242,1.299-0.675c0-0.344-0.318-0.497-0.789-0.611
			c-0.561-0.14-0.905-0.217-1.554-0.383c-1.171-0.292-1.923-1.133-1.923-2.47c0-1.758,1.592-2.891,3.743-2.891
			c1.02,0,1.936,0.203,2.497,0.446v2.151c-0.434-0.242-1.312-0.573-2.369-0.573c-0.968,0-1.4,0.242-1.4,0.624
			c0,0.331,0.254,0.497,0.84,0.624c0.433,0.089,0.751,0.141,1.324,0.28c1.413,0.344,2.14,1.172,2.14,2.585
			c0,1.438-1.312,2.929-3.681,2.929C213.648,116.169,212.654,115.901,211.954,115.508z M223.069,128.221
			c0,2.419-1.693,3.398-3.73,3.398s-3.73-0.979-3.73-3.398v-5.464h2.494v5.234c0,0.98,0.536,1.413,1.236,1.413
			s1.235-0.433,1.235-1.413v-5.234h2.495V128.221z M223.13,115.966h-2.496v-8.66h2.496V115.966z M231.52,124.731h-3.477v1.388h3.362
			v1.923h-3.362v1.4h3.477v1.974h-5.973v-8.659h5.973V124.731z M231.597,109.331h-2.152v6.635h-2.495v-6.635h-2.166v-2.025h6.813
			V109.331z M237.437,112.794v3.172h-2.495v-3.172l-2.929-5.488h2.826l1.363,3.096h0.051l1.413-3.096h2.764L237.437,112.794z
			 M248.308,100.515h-3.043l-2.624-5.195h-0.038v5.195h-2.496v-8.659h3.069l2.598,5.17h0.038v-5.17h2.496V100.515z M253.345,100.515
			h-2.496v-8.659h2.496V100.515z M262.294,100.119c-0.522,0.269-1.388,0.536-2.419,0.536c-2.548,0-4.495-1.707-4.495-4.471
			c0-2.763,2.178-4.443,4.737-4.443c1.018,0,1.654,0.178,2.164,0.407V94.3c-0.483-0.241-1.031-0.42-1.82-0.42
			c-1.159,0-2.356,0.739-2.356,2.305c0,1.566,1.312,2.255,2.216,2.255s1.478-0.229,1.974-0.497V100.119z M269.649,100.515
			l-0.483-1.795h-2.763l-0.472,1.795h-2.56l2.585-8.659h3.654l2.598,8.659H269.649z M279.119,100.515h-5.59v-8.659h2.496v6.609
			h3.094V100.515z"/>
		<path fill="#FFFFFF" d="M182.596,124.616h-0.98v2.14h0.98c0.547,0,1.044-0.446,1.044-1.07
			C183.64,125.075,183.143,124.616,182.596,124.616z"/>
		<path fill="#FFFFFF" d="M207.592,110.223c0-0.548-0.396-1.07-1.07-1.07h-1.005v2.152h1.005
			C207.196,111.305,207.592,110.771,207.592,110.223z"/>
	</g>
</g>
</svg>
