<?xml version="1.0" encoding="utf-8"?>
<!-- Generator: Adobe Illustrator 15.0.0, SVG Export Plug-In . SVG Version: 6.00 Build 0)  -->
<!DOCTYPE svg PUBLIC "-//W3C//DTD SVG 1.1//EN" "http://www.w3.org/Graphics/SVG/1.1/DTD/svg11.dtd">
<svg version="1.1" id="Layer_1" xmlns="http://www.w3.org/2000/svg" xmlns:xlink="http://www.w3.org/1999/xlink" x="0px" y="0px"
	 width="141.02px" height="289.094px" viewBox="0 0 141.02 289.094" enable-background="new 0 0 141.02 289.094"
	 xml:space="preserve">
<g>
	<rect y="148.072" fill="#0065BD" width="141.02" height="141.021"/>
	<g>
		<path fill="#FFFFFF" d="M112.635,168.445v22.249h9.208v-22.249h7.938v-6.789h-25.131v6.789H112.635z M82.383,161.656h-9.206v18.32
			c0,8.112,6.248,11.399,13.764,11.399s13.764-3.287,13.764-11.399v-18.32h-9.207v17.55c0,3.289-1.974,4.741-4.557,4.741
			c-2.584,0-4.558-1.452-4.558-4.741V161.656z M47.529,190.694h11.368l10.193-29.038H58.756l-5.45,20.454h-0.187l-5.45-20.454
			H37.335L47.529,190.694z M9.574,176.175c0,9.268,7.187,14.989,16.582,14.989c3.806,0,7-0.897,8.925-1.793v-7.303
			c-1.832,0.897-3.946,1.666-7.28,1.666c-3.335,0-8.174-2.308-8.174-7.56c0-5.253,4.415-7.729,8.69-7.729
			c2.913,0,4.933,0.599,6.719,1.41v-7.217c-1.88-0.771-4.229-1.368-7.987-1.368C17.606,161.271,9.574,166.908,9.574,176.175"/>
	</g>
	<polygon fill="#FFFFFF" points="15.529,154.232 21.542,160.377 30.582,160.377 36.595,154.232 29.134,154.232 26.15,157.185 
		25.974,157.185 22.989,154.232 	"/>
	<rect fill="#0065BD" width="141.02" height="141.021"/>
	<g>
		<path fill="#FFFFFF" d="M23.011,62.044c1.074,0.585,2.342,0.975,3.807,1.269l1.269,5.857L22.23,94.352l-2.636,1.855l-7.32,31.431
			l-5.955,4.586L23.011,62.044z M27.891,62.142c-5.466-0.097-9.859-4.392-9.859-9.761c0-5.76,4.491-9.858,10.151-9.858
			c2.636,0,4.979,1.171,6.54,3.124c-2.246-0.293-4.392,1.269-5.076,3.025c-0.585-0.195-1.074-0.195-1.464-0.195
			c-2.245,0-4.001,1.756-4.001,3.905c0,2.146,1.757,4.001,4.001,4.001c2.245,0,3.612-1.756,3.612-4.001c0-0.097,0-0.293,0-0.391
			c0.098-0.097,0.292-0.097,0.585-0.097c0.391,0,0.781,0.194,0.781,0.878c0,0.781-0.293,2.245-0.293,3.708
			c0,1.367,0.293,2.343,0.684,3.319l3.319,13.86c-0.489,0.391-0.976,0.88-1.367,1.464c-1.855,0.391-3.417,1.562-4.1,3.221
			L27.891,62.142z M48.292,71.316c-2.831,0-4.588,0.196-6.54,0.196c-3.026,0-5.271-1.268-5.954-3.71
			c1.171,0,2.049-0.975,2.049-2.146c0-2.343-3.611-4.686-3.611-9.176c0-1.463,0.194-2.83,0.194-3.904
			c0-1.171-0.975-1.952-2.049-1.952c-0.878,0-1.659,0.391-2.049,0.781c-0.196-2.732,2.049-4.783,4.88-4.586
			c0.39-0.879,1.855-1.952,3.514-1.952c1.171,0,1.758,0.292,2.343,0.683c0.488-0.195,1.074-0.292,1.855-0.292
			c2.245,0,4.685,1.854,4.685,4.686c0,2.634-1.562,3.904-3.124,4.977c-0.781,0.586-0.976,1.171-0.878,2.051
			c0.097,1.072,0.683,2.927,0.975,3.904c0.293,0.878,0.977,1.269,2.05,1.171c5.368-0.39,13.079-0.977,17.765-1.171
			c4.392-0.196,7.515-0.293,11.127-0.489c-6.833,1.661-10.737,6.248-11.811,12.787l-3.124,1.659
			C59.906,72.196,56.393,71.316,48.292,71.316z M43.899,97.769c1.171-0.293,1.757-1.172,1.757-1.952
			c0-1.172-0.684-1.952-1.562-2.537c-1.464-0.88-3.026-1.66-4.392-2.832c-1.465-1.269-2.343-2.343-3.222-3.514
			c-0.683-0.781-1.269-1.072-2.147-1.072c-1.074,0-1.855,0.78-1.855,1.659c0,0.487,0.098,0.878,0.293,1.171
			c-1.464-0.487-2.343-2.05-2.343-3.71c0-1.562,0.976-2.733,1.952-3.317c-0.097-0.294-0.195-0.685-0.195-1.172
			c0-2.049,1.66-4.001,4.294-4.197c0.489-1.366,1.952-2.439,3.904-2.439c2.343,0,4.783,1.756,4.783,4.879
			c0,1.562-0.39,1.952-0.39,3.124c0,0.684,0.194,1.27,1.171,2.245c1.171,1.171,1.756,1.854,2.44,1.854s1.074-0.293,1.855-0.878
			c4.392-3.71,8.199-7.614,13.469-10.444c0.098,4.588,1.855,8.296,5.662,11.127l-3.32,2.538c-0.584-0.586-1.171-0.78-1.952-0.78
			c-1.269,0-2.537,0.487-4.489,1.756c-2.245,1.464-5.954,5.271-8.589,7.809c-1.464,1.464-3.026,2.245-4.491,2.245
			C45.362,99.33,44.387,98.843,43.899,97.769z M35.602,79.809c-1.269,0-2.146,0.684-2.342,1.465c0.39-0.098,0.879-0.196,1.464-0.196
			c1.464,0,2.733,0.684,3.319,1.854C38.334,81.077,37.261,79.809,35.602,79.809z M44.778,127.638l-7.321-31.431l-2.636-1.855
			l-1.269-6.051c-0.195-0.78,0.195-1.171,0.781-1.171c0.391,0,0.684,0.194,1.074,0.585c1.269,1.464,2.049,2.342,3.416,3.514
			c0.781,0.684,1.757,1.27,2.733,1.758l6.052,26.256c-0.976,0.878-1.659,2.245-1.659,3.71c0,1.072,0.292,2.049,0.781,2.928
			c-0.196,0.487-0.293,0.977-0.293,1.562c0,0.586,0.097,1.171,0.391,1.758L44.778,127.638z M39.995,49.551
			c0-1.66-1.367-2.733-2.635-2.733c-0.586,0-0.977,0.194-1.269,0.292c1.66,0.683,2.831,2.147,2.733,4.88
			C39.702,51.404,39.995,50.429,39.995,49.551z M41.556,78.344c0-1.269-1.073-2.439-2.44-2.439c-0.781,0-1.269,0.293-1.562,0.487
			c1.855,0.391,3.32,1.952,3.417,3.904C41.264,79.809,41.556,79.321,41.556,78.344z M44.68,48.964c0-1.464-1.27-2.537-2.733-2.537
			c0.585,0.488,1.171,1.659,1.171,2.927c0,0.587-0.098,1.368-0.488,2.246C43.801,51.209,44.68,50.332,44.68,48.964z M47.803,127.441
			c0-0.684,0.098-1.074,0.39-1.756c-0.488-0.587-0.879-1.562-0.879-2.733s0.586-2.441,1.855-3.223
			c-0.39-2.927,1.952-4.879,4.588-4.879c2.928,0,4.392,2.049,4.88,4.099c0.39,1.464,0.977,1.952,1.66,2.051
			c1.27,0.194,3.318,0,4.1-0.196c0.878-0.194,1.269-0.684,1.269-2.146c0.098-10.25-1.171-16.788-1.171-20.498
			c0-4.002,2.245-5.76,4.588-6.54c3.124-1.073,9.273-1.952,12.298-1.854c1.367,0,2.051,0.878,2.635,1.756
			c1.074,1.659,1.952,3.417,3.026,5.662c-0.78,0.391-1.171,1.072-1.171,2.05c0,1.365,0.781,2.536,1.854,3.123l-11.42,0.293
			c-0.099,0.683-0.099,1.366-0.099,1.952c0,1.269,0.879,2.146,2.051,2.146c0.879,0,1.659-0.293,2.343-0.878
			c0.39,4.002-2.051,5.271-4.588,5.369c0.098,3.611,0.293,6.247,0.293,12.785c0,4.686-2.343,7.518-5.662,7.518
			c0.195-0.196,0.293-0.49,0.293-0.781c0-1.855-2.05-2.733-3.514-2.733c-2.929,0-4.491,2.343-7.712,2.343
			c-2.83,0-4.001-2.343-6.149-2.343c-1.366,0-2.343,0.878-2.343,2.05c0,0.585,0.196,1.074,0.586,1.562
			C49.95,131.639,47.803,129.881,47.803,127.441z M51.609,122.171c-1.854,0-2.83,1.463-2.635,2.635
			c0.391-0.488,1.171-1.172,2.733-1.172c1.269,0,2.244,0.587,2.831,1.271C54.539,123.537,53.562,122.171,51.609,122.171z
			 M52.488,117.681c-1.562,0-2.343,0.878-2.441,1.658c0.391-0.194,0.977-0.39,1.855-0.39c1.562,0,2.831,0.88,3.221,1.758
			C55.319,119.145,54.342,117.681,52.488,117.681z M65.177,74.733c0-6.441,4.88-12.201,12.397-13.959
			c2.83-0.682,5.27-1.073,8.589-1.952c6.247-1.659,8.199-4.392,8.199-8.003c0-0.977-0.196-1.757-0.684-2.539
			c0.097,0.586,0.097,1.073,0.097,1.66c0,3.904-3.61,7.418-8.882,7.906c-2.831,0.194-5.856,0.585-8.784,0.878
			c-0.684,0.097-0.977-0.194-0.977-0.781l-0.098-4.685c0-0.194,0.098-0.39,0.391-0.39c0.196,0,0.293,0.097,0.391,0.293
			c0.586,0.878,1.758,1.756,3.416,1.756c1.367,0,2.147-0.781,2.147-1.659c0-0.975-0.879-1.855-2.635-1.855
			c-3.808,0-5.76,2.636-9.957,2.636c-4.587,0-6.148-2.245-6.148-4.392c0-1.757,0.976-2.831,2.244-3.417
			c-0.39,0.489-0.487,0.879-0.487,1.562c0,1.464,1.757,2.636,4.88,2.636c2.928,0,4.783-0.684,7.028-0.684
			c2.928,0,4.685,0.977,5.466,2.049c-0.098-2.244-1.757-4.196-3.904-4.196c-1.464,0-2.05,0.878-2.244,1.269
			c-0.099,0.293-0.294,0.39-0.489,0.39s-0.39-0.097-0.39-0.293l-0.489-4.88c-0.097-0.586,0.196-0.879,0.978-0.977l4.978-0.391
			c0.879,2.44,1.464,3.807,2.732,3.807c0.684,0,0.977-0.781,0.977-1.464c1.074-0.292,2.147-0.292,3.221-0.194
			c-1.269-0.879-5.466-0.391-6.734-2.148c2.049-0.097,3.61-0.194,5.271-0.194s3.123,0,4.49,0.194
			c1.562,0.196,3.123,1.074,3.123,2.733c0,1.074-0.586,1.855-1.659,1.855c-0.39,0-0.684-0.097-1.073-0.39
			c0.097,0.781,0.878,1.269,1.658,1.269c1.27,0,2.148-0.781,2.148-2.44c0-0.878-0.196-1.855-0.879-2.636
			c2.05,1.66,3.318,4.588,3.318,8.005c0,5.954-2.147,9.077-8.784,11.42c-3.416,1.171-6.149,1.952-9.565,3.221
			c-5.563,2.049-8.883,5.856-8.883,11.226c0,3.708,1.855,7.905,5.759,9.857C69.375,86.056,65.177,80.687,65.177,74.733z
			 M71.034,77.271c0-5.271,2.928-8.395,8.589-10.542c3.124-1.171,6.149-2.051,8.98-2.929c6.93-2.44,9.37-6.051,9.37-12.494
			c0-2.733-0.781-5.368-2.05-6.93c2.146,1.854,3.904,4.686,3.904,9.566c0,5.076-1.464,10.249-8.492,12.885
			c-3.318,1.269-5.173,1.952-8.687,3.417c-5.466,2.343-7.224,5.466-7.224,9.662c0,4.003,2.148,6.246,3.807,7.614
			C75.231,86.836,71.034,82.737,71.034,77.271z M76.89,80.005c0-3.904,1.855-6.54,6.638-8.786c3.026-1.366,5.271-1.855,8.785-3.318
			C99.242,65.168,101,59.993,101,54.04c0-2.049-0.294-4.489-1.368-6.54c1.465,1.757,3.222,4.49,3.222,9.859
			c0,5.563-1.854,10.736-8.004,13.763c-2.928,1.365-4.88,2.146-8.198,3.708c-3.808,1.952-5.954,4.686-5.954,7.907
			c0,2.537,1.171,4.489,2.244,5.563C79.232,87.227,76.89,83.713,76.89,80.005z M85.772,41.448c-1.952,0-3.904,0.097-5.954,0.293
			l-2.635-5.174h4.489c0,1.171,0.879,2.05,1.952,2.05c1.074,0,1.952-0.879,1.952-2.05h4.002c0,1.27,0.781,2.05,1.952,2.05
			c1.073,0,1.952-1.074,1.952-2.05h4.49l-3.026,5.368C92.508,41.644,89.384,41.448,85.772,41.448z M82.161,82.835
			c0-2.733,1.854-4.979,5.174-6.734c2.342-1.172,4.294-1.952,8.198-3.904c6.149-3.026,8.492-8.005,8.492-14.74
			c0-1.758-0.293-3.221-0.586-4.979c1.074,2.148,1.952,4.685,1.952,7.906c0,6.443-2.245,12.69-8.687,16.008
			c-2.733,1.368-4.295,2.246-6.345,3.223c-3.124,1.365-4.588,3.514-4.588,6.051c0,1.952,0.488,3.026,0.976,3.904
			C83.918,88.788,82.161,86.252,82.161,82.835z M87.139,99.428c0-0.976,0.293-1.562,1.465-1.757
			c-1.367-3.026-2.44-4.979-3.221-6.246c-0.294-0.488,0-0.781,0.39-0.781c0.585,0,1.073,0.194,1.464,0.781
			c0.683,0.878,1.562,2.245,2.245,3.514c1.269,2.245,2.05,4.392,2.147,7.516h-0.977C88.604,102.454,87.139,100.989,87.139,99.428z
			 M94.069,127.441c0-0.684,0.097-1.074,0.391-1.756c-0.488-0.587-0.879-1.562-0.879-2.733s0.585-2.441,1.854-3.223
			c-0.391-2.927,1.952-4.879,4.587-4.879c2.93,0,4.393,2.049,4.882,4.099c0.39,1.464,0.975,1.952,1.658,2.051
			c1.269,0.194,3.319,0,4.1-0.196c0.879-0.194,1.27-0.684,1.27-2.146c0-2.441-0.684-5.662-1.27-8.395
			c-1.464,0.195-5.075,0.39-7.809,0.39c-6.052,0-9.468-2.732-10.053-8.687c-0.196-2.439-0.684-4.782-2.148-7.418
			c-1.073-2.05-3.514-4.782-3.514-8.296c0-2.636,0.977-4.198,4.002-5.662c2.147-0.976,4.686-2.146,6.833-3.417
			c-0.098,3.417,1.952,8.005,4.588,9.957c2.927,2.146,5.66,2.732,9.662,2.732c4.588,0,8.98-1.367,11.323-4.1
			c-1.367,0.879-3.222,1.367-5.564,1.367c-7.222,0-11.81-5.563-11.81-11.519c0-4.295,2.342-8.101,6.246-11.323
			c3.221-2.634,6.15-4.295,8.395-6.539c1.464-1.464,2.733-3.222,2.733-5.271c0-2.44-1.66-4.783-3.416-5.466
			c0.976-1.171,2.928-2.245,4.686-2.245c2.927,0,5.66,2.147,5.66,4.978c0,2.148-1.269,3.807-2.928,4.588
			c0.098,1.659-0.977,3.807-2.245,5.173c-2.439,2.636-6.931,5.466-9.858,7.809c-2.929,2.342-4.49,4.783-4.49,8.102
			c0,4.392,3.514,7.612,8.005,7.612c4.196,0,7.809-3.221,7.809-7.71c0-4.1-2.93-7.126-7.419-9.176l3.709-2.636
			c4.002,2.343,8.395,5.565,8.395,12.495c0,9.566-7.711,17.959-20.205,17.959c-3.904,0-4.979-0.487-7.418-1.463
			c1.562,1.463,3.221,3.611,3.318,6.247c1.952,0.585,3.318,0.878,7.517,0.878c1.854,0,4.392-0.293,6.441-0.878
			c1.464-0.39,2.342-0.977,2.831-1.66c0.488,0.78,0.78,1.66,0.78,2.441c0,2.243-1.659,4.001-3.416,4.392
			c0.684,6.931,1.269,13.859,1.269,20.106c0,4.686-2.343,7.518-5.661,7.518c0.195-0.196,0.292-0.49,0.292-0.781
			c0-1.855-2.049-2.733-3.514-2.733c-2.927,0-4.489,2.343-7.71,2.343c-2.831,0-4.003-2.343-6.149-2.343
			c-1.367,0-2.343,0.878-2.343,2.05c0,0.585,0.194,1.074,0.585,1.562C96.217,131.639,94.069,129.881,94.069,127.441z
			 M97.876,122.171c-1.854,0-2.831,1.463-2.636,2.635c0.391-0.488,1.172-1.172,2.733-1.172c1.269,0,2.245,0.587,2.83,1.271
			C100.804,123.537,99.828,122.171,97.876,122.171z M98.754,117.681c-1.562,0-2.342,0.878-2.439,1.658
			c0.391-0.194,0.976-0.39,1.854-0.39c1.562,0,2.831,0.88,3.221,1.758C101.584,119.145,100.609,117.681,98.754,117.681z
			 M110.955,54.137c-1.464-0.781-2.733-2.439-2.733-4.392c0-2.831,2.44-4.978,5.369-4.978c2.245,0,3.807,1.073,4.782,2.245
			c-1.854,0.977-3.318,3.32-3.318,5.466c0,2.83,1.464,4.588,2.831,6.053l-3.611,2.634C112.224,59.312,110.955,56.87,110.955,54.137z
			"/>
	</g>
	<g>
		<path fill="#FFFFFF" d="M10.763,243.775c0-2.749,2.167-4.422,4.713-4.422c1.014,0,1.647,0.177,2.153,0.404v2.142
			c-0.48-0.24-1.026-0.417-1.811-0.417c-1.154,0-2.345,0.734-2.345,2.293s1.305,2.242,2.205,2.242c0.899,0,1.47-0.229,1.963-0.493
			v2.166c-0.519,0.267-1.38,0.531-2.407,0.531C12.701,248.222,10.763,246.524,10.763,243.775z M12.169,236.997h2.154l0.861,0.938
			h0.051l0.861-0.938h2.155l-1.737,1.95h-2.609L12.169,236.997z"/>
		<path fill="#FFFFFF" d="M19.513,239.467h5.943v1.964h-3.459v1.382h3.344v1.913h-3.344v1.395h3.459v1.963h-5.943V239.467z"/>
		<path fill="#FFFFFF" d="M27.415,247.627v-2.256c0.557,0.394,1.71,0.889,2.851,0.889c0.836,0,1.292-0.242,1.292-0.674
			c0-0.341-0.316-0.492-0.785-0.607c-0.557-0.14-0.9-0.216-1.546-0.38c-1.165-0.291-1.913-1.127-1.913-2.457
			c0-1.749,1.583-2.876,3.725-2.876c1.014,0,1.925,0.201,2.484,0.443v2.141c-0.431-0.242-1.306-0.57-2.357-0.57
			c-0.963,0-1.394,0.24-1.394,0.62c0,0.33,0.253,0.494,0.836,0.622c0.431,0.088,0.747,0.14,1.318,0.278
			c1.406,0.342,2.129,1.165,2.129,2.571c0,1.433-1.306,2.915-3.663,2.915C29.101,248.286,28.111,248.019,27.415,247.627z"/>
		<path fill="#FFFFFF" d="M41.018,248.083l-2.496-4.144v4.144h-2.483v-8.616h2.483v3.966l2.408-3.966h3.028l-2.876,4.169
			l2.914,4.447H41.018z"/>
		<path fill="#FFFFFF" d="M45.599,239.467h5.943v1.964h-3.459v1.382h3.344v1.913h-3.344v1.395h3.459v1.963h-5.943V239.467z
			 M48.399,236.997h2.889l-1.787,1.95h-2.102L48.399,236.997z"/>
		<path fill="#FFFFFF" d="M55.552,239.467h2.788l1.469,6.45h0.05l1.47-6.45h2.788l-2.584,8.616h-3.396L55.552,239.467z"/>
		<path fill="#FFFFFF" d="M67.28,244.928l-2.914-5.461h2.812l1.356,3.079h0.05l1.406-3.079h2.75l-2.978,5.461v3.155H67.28V244.928z"
			/>
		<path fill="#FFFFFF" d="M73.56,247.627v-2.256c0.558,0.394,1.711,0.889,2.851,0.889c0.837,0,1.293-0.242,1.293-0.674
			c0-0.341-0.316-0.492-0.785-0.607c-0.558-0.14-0.9-0.216-1.546-0.38c-1.165-0.291-1.914-1.127-1.914-2.457
			c0-1.749,1.584-2.876,3.726-2.876c1.014,0,1.926,0.201,2.483,0.443v2.141c-0.431-0.242-1.306-0.57-2.356-0.57
			c-0.963,0-1.394,0.24-1.394,0.62c0,0.33,0.252,0.494,0.835,0.622c0.432,0.088,0.748,0.14,1.318,0.278
			c1.406,0.342,2.129,1.165,2.129,2.571c0,1.433-1.306,2.915-3.662,2.915C75.245,248.286,74.256,248.019,73.56,247.627z"/>
		<path fill="#FFFFFF" d="M81.677,243.775c0-2.876,1.761-4.51,4.32-4.51c2.572,0,4.295,1.634,4.295,4.51s-1.723,4.511-4.295,4.511
			C83.438,248.286,81.677,246.651,81.677,243.775z M87.632,243.775c0-1.419-0.52-2.306-1.635-2.306
			c-1.103,0-1.659,0.887-1.659,2.306s0.557,2.306,1.659,2.306C87.112,246.081,87.632,245.194,87.632,243.775z"/>
		<path fill="#FFFFFF" d="M97.281,248.083l-2.497-4.144v4.144h-2.482v-8.616h2.482v3.966l2.408-3.966h3.028l-2.876,4.169
			l2.914,4.447H97.281z"/>
		<path fill="#FFFFFF" d="M101.861,239.467h5.943v1.964h-3.459v1.382h3.345v1.913h-3.345v1.395h3.459v1.963h-5.943V239.467z
			 M104.662,236.997h2.89l-1.787,1.95h-2.103L104.662,236.997z"/>
	</g>
	<g>
		<path fill="#FFFFFF" d="M11.206,260.276v-5.437h2.484v5.208c0,0.976,0.532,1.406,1.229,1.406s1.229-0.431,1.229-1.406v-5.208
			h2.484v5.437c0,2.407-1.686,3.383-3.713,3.383S11.206,262.684,11.206,260.276z"/>
	</g>
	<g>
		<path fill="#FFFFFF" d="M20.589,259.148c0-2.748,2.167-4.422,4.713-4.422c1.013,0,1.647,0.177,2.155,0.405v2.141
			c-0.482-0.24-1.026-0.417-1.813-0.417c-1.152,0-2.343,0.735-2.343,2.293c0,1.559,1.305,2.242,2.204,2.242
			c0.9,0,1.47-0.228,1.964-0.493v2.166c-0.52,0.267-1.381,0.532-2.408,0.532C22.528,263.596,20.589,261.897,20.589,259.148z
			 M21.997,252.37h2.154l0.861,0.938h0.05l0.862-0.938h2.154l-1.735,1.95h-2.611L21.997,252.37z"/>
	</g>
	<g>
		<path fill="#FFFFFF" d="M29.341,254.84h5.941v1.965h-3.458v1.381h3.345v1.914h-3.345v1.394h3.458v1.963h-5.941V254.84z"/>
		<path fill="#FFFFFF" d="M37.546,254.84H40.6l2.584,5.145h0.038v-5.145h2.483v8.616h-3.028l-2.609-5.169h-0.039v5.169h-2.483
			V254.84z"/>
		<path fill="#FFFFFF" d="M49.159,252.37h2.888l-1.786,1.95h-2.104L49.159,252.37z M48.233,254.84h2.484v8.616h-2.484V254.84z"/>
		<path fill="#FFFFFF" d="M57.301,256.855h-2.154v-2.016h6.779v2.016h-2.141v6.601h-2.483V256.855z"/>
		<path fill="#FFFFFF" d="M63.531,254.84h5.942v1.965h-3.458v1.381h3.344v1.914h-3.344v1.394h3.458v1.963h-5.942V254.84z"/>
		<path fill="#FFFFFF" d="M71.23,259.148c0-2.748,2.166-4.422,4.713-4.422c1.013,0,1.646,0.177,2.153,0.405v2.141
			c-0.481-0.24-1.026-0.417-1.812-0.417c-1.153,0-2.344,0.735-2.344,2.293c0,1.559,1.304,2.242,2.204,2.242s1.47-0.228,1.964-0.493
			v2.166c-0.52,0.267-1.381,0.532-2.407,0.532C73.168,263.596,71.23,261.897,71.23,259.148z"/>
		<path fill="#FFFFFF" d="M82.451,254.84v3.295h2.546v-3.295h2.484v8.616h-2.484v-3.369h-2.546v3.369h-2.483v-8.616H82.451z"/>
		<path fill="#FFFFFF" d="M90.01,254.84h3.053l2.585,5.145h0.038v-5.145h2.484v8.616h-3.029l-2.61-5.169h-0.037v5.169H90.01V254.84z
			"/>
		<path fill="#FFFFFF" d="M100.697,254.84h2.483v8.616h-2.483V254.84z"/>
		<path fill="#FFFFFF" d="M105.205,259.148c0-2.748,2.167-4.422,4.713-4.422c1.014,0,1.648,0.177,2.154,0.405v2.141
			c-0.481-0.24-1.026-0.417-1.812-0.417c-1.154,0-2.345,0.735-2.345,2.293c0,1.559,1.306,2.242,2.205,2.242s1.47-0.228,1.964-0.493
			v2.166c-0.519,0.267-1.381,0.532-2.407,0.532C107.145,263.596,105.205,261.897,105.205,259.148z"/>
		<path fill="#FFFFFF" d="M118.935,263.456l-2.496-4.143v4.143h-2.483v-8.616h2.483v3.966l2.408-3.966h3.027l-2.876,4.17
			l2.914,4.446H118.935z"/>
		<path fill="#FFFFFF" d="M123.503,254.84h5.943v1.965h-3.459v1.381h3.344v1.914h-3.344v1.394h3.459v1.963h-5.943V254.84z
			 M126.304,252.37h2.889l-1.786,1.95h-2.103L126.304,252.37z"/>
	</g>
	<g>
		<path fill="#FFFFFF" d="M10.319,270.214h2.788l1.47,6.449h0.05l1.47-6.449h2.787l-2.584,8.615h-3.396L10.319,270.214z"/>
	</g>
	<g>
		<path fill="#FFFFFF" d="M23.642,270.214h3.75c2.015,0,3.269,1.381,3.269,2.966c0,1.583-1.254,2.862-3.269,2.862h-1.267v2.787
			h-2.484V270.214z M27.101,274.192c0.545,0,1.039-0.444,1.039-1.064c0-0.607-0.494-1.064-1.039-1.064h-0.975v2.129H27.101z"/>
		<path fill="#FFFFFF" d="M32.481,270.214h3.953c2.015,0,3.244,1.293,3.244,2.839c0,1.47-1.077,2.116-1.837,2.457l-0.012,0.052
			c0.114,0.075,0.316,0.328,0.481,0.607l1.584,2.66h-2.8l-1.495-3.027h-0.634v3.027h-2.483V270.214z M35.965,274.192
			c0.671,0,1.064-0.532,1.064-1.076c0-0.546-0.393-1.065-1.064-1.065h-1.001v2.142H35.965z"/>
		<path fill="#FFFFFF" d="M46.147,277.043h-2.749l-0.468,1.786h-2.547l2.572-8.615h3.636l2.585,8.615h-2.547L46.147,277.043z
			 M45.679,275.282l-0.849-3.181h-0.114l-0.849,3.181H45.679z"/>
		<path fill="#FFFFFF" d="M49.855,276.929l3.598-4.699h-3.521v-2.016h6.625v1.812l-3.661,4.789h3.725v2.014h-6.766V276.929z"/>
		<path fill="#FFFFFF" d="M58.517,270.214h5.941v1.964H61v1.382h3.345v1.913H61v1.394h3.458v1.963h-5.941V270.214z"/>
	</g>
</g>
</svg>
