<?xml version="1.0" encoding="utf-8"?>
<!-- Generator: Adobe Illustrator 15.0.0, SVG Export Plug-In . SVG Version: 6.00 Build 0)  -->
<!DOCTYPE svg PUBLIC "-//W3C//DTD SVG 1.1//EN" "http://www.w3.org/Graphics/SVG/1.1/DTD/svg11.dtd">
<svg version="1.1" id="Layer_1" xmlns="http://www.w3.org/2000/svg" xmlns:xlink="http://www.w3.org/1999/xlink" x="0px" y="0px"
	 width="141.02px" height="289.094px" viewBox="0 0 141.02 289.094" enable-background="new 0 0 141.02 289.094"
	 xml:space="preserve">
<g>
	<g>
		<g>
			<path d="M141.02,289.09H0V148.07h141.02V289.09z M1.356,287.733h138.306V149.427H1.356V287.733z"/>
			<path d="M112.633,168.443v22.249h9.209v-22.249h7.937v-6.789h-25.131v6.789H112.633z M82.383,161.654h-9.208v18.319
				c0,8.113,6.249,11.401,13.765,11.401c7.515,0,13.764-3.288,13.764-11.401v-18.319h-9.207v17.551c0,3.288-1.974,4.74-4.557,4.74
				c-2.584,0-4.557-1.452-4.557-4.74V161.654z M47.528,190.692h11.367l10.194-29.038H58.755l-5.449,20.454h-0.187l-5.45-20.454
				H37.335L47.528,190.692z M9.573,176.173c0,9.267,7.187,14.988,16.582,14.988c3.805,0,6.999-0.896,8.924-1.792v-7.304
				c-1.832,0.897-3.945,1.667-7.279,1.667c-3.336,0-8.174-2.308-8.174-7.56s4.415-7.729,8.689-7.729
				c2.914,0,4.932,0.599,6.719,1.409v-7.216c-1.88-0.771-4.229-1.367-7.987-1.367C17.606,161.27,9.573,166.906,9.573,176.173"/>
		</g>
		<polygon points="15.528,154.23 21.542,160.375 30.581,160.375 36.594,154.23 29.134,154.23 26.149,157.184 25.974,157.184 
			22.989,154.23 		"/>
		<g>
			<path d="M141.02,141.02H0V0h141.02V141.02z M1.356,139.662h138.306V1.357H1.356V139.662z"/>
		</g>
		<g>
			<path d="M23.011,62.044c1.074,0.584,2.342,0.976,3.807,1.269l1.269,5.856l-5.856,25.183l-2.636,1.854l-7.32,31.431l-5.954,4.586
				L23.011,62.044z M27.891,62.141c-5.466-0.097-9.858-4.392-9.858-9.761c0-5.759,4.49-9.858,10.15-9.858
				c2.637,0,4.979,1.171,6.541,3.124c-2.246-0.293-4.393,1.268-5.076,3.025c-0.586-0.195-1.074-0.195-1.465-0.195
				c-2.244,0-4.001,1.757-4.001,3.904s1.757,4.001,4.001,4.001c2.246,0,3.612-1.756,3.612-4.001c0-0.097,0-0.293,0-0.39
				c0.099-0.097,0.292-0.097,0.585-0.097c0.391,0,0.781,0.194,0.781,0.878c0,0.78-0.293,2.245-0.293,3.709
				c0,1.366,0.293,2.342,0.684,3.318l3.318,13.861c-0.488,0.39-0.977,0.879-1.366,1.464c-1.854,0.39-3.417,1.561-4.099,3.221
				L27.891,62.141z M48.29,71.316c-2.83,0-4.587,0.195-6.539,0.195c-3.027,0-5.271-1.269-5.954-3.709c1.171,0,2.05-0.976,2.05-2.147
				c0-2.342-3.611-4.685-3.611-9.174c0-1.464,0.194-2.832,0.194-3.905c0-1.171-0.976-1.952-2.05-1.952
				c-0.877,0-1.658,0.391-2.049,0.781c-0.195-2.733,2.049-4.783,4.88-4.587c0.39-0.879,1.854-1.952,3.513-1.952
				c1.172,0,1.759,0.292,2.344,0.683c0.488-0.195,1.074-0.292,1.854-0.292c2.245,0,4.686,1.854,4.686,4.685
				c0,2.635-1.562,3.904-3.124,4.978c-0.78,0.585-0.977,1.171-0.877,2.05c0.097,1.073,0.682,2.927,0.975,3.904
				c0.293,0.878,0.977,1.269,2.05,1.171c5.368-0.39,13.079-0.977,17.765-1.171c4.393-0.196,7.516-0.293,11.127-0.488
				c-6.832,1.66-10.736,6.247-11.811,12.786l-3.123,1.66C59.905,72.195,56.392,71.316,48.29,71.316z M43.898,97.768
				c1.171-0.293,1.757-1.171,1.757-1.953c0-1.171-0.684-1.952-1.562-2.536c-1.464-0.88-3.025-1.66-4.392-2.831
				c-1.464-1.269-2.342-2.343-3.222-3.514c-0.683-0.781-1.269-1.074-2.146-1.074c-1.074,0-1.855,0.782-1.855,1.659
				c0,0.488,0.099,0.878,0.293,1.172c-1.464-0.488-2.342-2.049-2.342-3.71c0-1.561,0.977-2.732,1.951-3.318
				c-0.097-0.293-0.195-0.684-0.195-1.17c0-2.051,1.66-4.003,4.295-4.199c0.488-1.364,1.953-2.438,3.904-2.438
				c2.344,0,4.783,1.757,4.783,4.88c0,1.562-0.39,1.952-0.39,3.123c0,0.684,0.194,1.27,1.171,2.244
				c1.171,1.172,1.756,1.855,2.439,1.855s1.074-0.293,1.855-0.878c4.393-3.71,8.199-7.614,13.469-10.444
				c0.098,4.589,1.855,8.296,5.662,11.128l-3.32,2.537c-0.584-0.586-1.171-0.781-1.951-0.781c-1.27,0-2.537,0.488-4.489,1.757
				c-2.245,1.464-5.954,5.271-8.589,7.809c-1.465,1.464-3.027,2.245-4.491,2.245C45.362,99.329,44.386,98.841,43.898,97.768z
				 M35.601,79.808c-1.268,0-2.146,0.685-2.342,1.465c0.391-0.098,0.879-0.195,1.465-0.195c1.465,0,2.732,0.682,3.318,1.854
				C38.334,81.077,37.261,79.808,35.601,79.808z M44.777,127.636l-7.321-31.431l-2.636-1.854L33.552,88.3
				c-0.195-0.781,0.195-1.172,0.781-1.172c0.391,0,0.684,0.195,1.074,0.586c1.268,1.465,2.049,2.343,3.416,3.515
				c0.78,0.683,1.756,1.269,2.732,1.757l6.052,26.256c-0.977,0.879-1.659,2.244-1.659,3.709c0,1.073,0.293,2.05,0.781,2.927
				c-0.196,0.489-0.293,0.978-0.293,1.562c0,0.586,0.097,1.171,0.39,1.758L44.777,127.636z M39.994,49.55
				c0-1.659-1.367-2.733-2.635-2.733c-0.587,0-0.978,0.194-1.271,0.292c1.66,0.683,2.832,2.147,2.734,4.88
				C39.701,51.404,39.994,50.429,39.994,49.55z M41.556,78.344c0-1.269-1.073-2.44-2.44-2.44c-0.781,0-1.269,0.293-1.562,0.488
				c1.854,0.391,3.318,1.952,3.416,3.904C41.263,79.808,41.556,79.32,41.556,78.344z M44.679,48.964c0-1.464-1.27-2.537-2.732-2.537
				c0.586,0.488,1.171,1.659,1.171,2.928c0,0.586-0.099,1.367-0.488,2.246C43.8,51.209,44.679,50.332,44.679,48.964z
				 M47.802,127.439c0-0.683,0.099-1.073,0.391-1.757c-0.488-0.586-0.879-1.561-0.879-2.732c0-1.171,0.587-2.44,1.855-3.222
				c-0.391-2.928,1.952-4.88,4.588-4.88c2.928,0,4.392,2.05,4.879,4.1c0.391,1.463,0.978,1.952,1.66,2.05
				c1.27,0.194,3.318,0,4.1-0.196c0.878-0.194,1.269-0.682,1.269-2.146c0.097-10.249-1.171-16.788-1.171-20.499
				c0-4.001,2.245-5.759,4.587-6.539c3.123-1.073,9.273-1.952,12.299-1.854c1.367,0,2.05,0.878,2.636,1.755
				c1.074,1.661,1.951,3.417,3.025,5.663c-0.781,0.391-1.171,1.073-1.171,2.049c0,1.367,0.78,2.538,1.854,3.123l-11.42,0.294
				c-0.099,0.683-0.099,1.366-0.099,1.952c0,1.269,0.879,2.146,2.051,2.146c0.879,0,1.659-0.293,2.343-0.878
				c0.39,4.001-2.051,5.271-4.588,5.369c0.098,3.61,0.293,6.246,0.293,12.785c0,4.686-2.343,7.517-5.662,7.517
				c0.196-0.196,0.295-0.488,0.295-0.781c0-1.854-2.051-2.733-3.515-2.733c-2.929,0-4.491,2.343-7.712,2.343
				c-2.83,0-4.002-2.343-6.148-2.343c-1.366,0-2.344,0.879-2.344,2.05c0,0.586,0.196,1.074,0.587,1.562
				C49.95,131.637,47.802,129.881,47.802,127.439z M51.608,122.17c-1.854,0-2.83,1.463-2.635,2.634
				c0.391-0.487,1.172-1.171,2.732-1.171c1.27,0,2.245,0.586,2.832,1.27C54.538,123.535,53.562,122.17,51.608,122.17z
				 M52.487,117.679c-1.561,0-2.342,0.879-2.44,1.659c0.391-0.194,0.978-0.39,1.854-0.39c1.562,0,2.831,0.879,3.221,1.757
				C55.318,119.144,54.341,117.679,52.487,117.679z M65.177,74.732c0-6.441,4.879-12.201,12.396-13.958
				c2.831-0.683,5.271-1.074,8.59-1.953c6.247-1.66,8.199-4.392,8.199-8.003c0-0.976-0.196-1.757-0.684-2.538
				c0.098,0.585,0.098,1.073,0.098,1.66c0,3.904-3.611,7.418-8.882,7.906c-2.832,0.195-5.857,0.585-8.785,0.878
				c-0.684,0.098-0.976-0.194-0.976-0.781l-0.099-4.685c0-0.194,0.099-0.391,0.391-0.391c0.195,0,0.293,0.098,0.39,0.293
				c0.588,0.877,1.758,1.757,3.417,1.757c1.367,0,2.147-0.781,2.147-1.66c0-0.976-0.879-1.854-2.635-1.854
				c-3.808,0-5.759,2.635-9.956,2.635c-4.588,0-6.149-2.244-6.149-4.392c0-1.756,0.976-2.83,2.244-3.417
				c-0.39,0.489-0.487,0.879-0.487,1.562c0,1.465,1.757,2.636,4.88,2.636c2.928,0,4.784-0.684,7.028-0.684
				c2.928,0,4.685,0.977,5.466,2.05c-0.098-2.245-1.757-4.197-3.904-4.197c-1.463,0-2.051,0.878-2.245,1.269
				c-0.098,0.293-0.292,0.391-0.487,0.391c-0.196,0-0.392-0.097-0.392-0.293l-0.487-4.879c-0.098-0.586,0.195-0.879,0.977-0.977
				l4.978-0.391c0.878,2.441,1.464,3.807,2.733,3.807c0.682,0,0.976-0.78,0.976-1.464c1.074-0.292,2.147-0.292,3.221-0.194
				c-1.269-0.879-5.466-0.39-6.734-2.148c2.049-0.097,3.611-0.194,5.271-0.194s3.123,0,4.49,0.194
				c1.561,0.197,3.123,1.074,3.123,2.733c0,1.074-0.586,1.855-1.659,1.855c-0.39,0-0.684-0.097-1.074-0.391
				c0.097,0.781,0.879,1.269,1.659,1.269c1.27,0,2.148-0.781,2.148-2.439c0-0.878-0.196-1.855-0.879-2.636
				c2.05,1.659,3.318,4.587,3.318,8.004c0,5.954-2.147,9.078-8.784,11.419c-3.416,1.171-6.149,1.952-9.565,3.221
				c-5.563,2.05-8.883,5.857-8.883,11.226c0,3.709,1.854,7.906,5.76,9.858C69.374,86.054,65.177,80.687,65.177,74.732z
				 M71.033,77.271c0-5.272,2.928-8.396,8.589-10.542c3.124-1.171,6.149-2.05,8.979-2.929c6.931-2.439,9.371-6.05,9.371-12.494
				c0-2.733-0.782-5.368-2.051-6.929c2.147,1.854,3.905,4.685,3.905,9.565c0,5.076-1.465,10.249-8.492,12.884
				c-3.318,1.269-5.173,1.952-8.687,3.417c-5.466,2.343-7.224,5.466-7.224,9.662c0,4.002,2.147,6.247,3.807,7.613
				C75.23,86.836,71.033,82.736,71.033,77.271z M76.889,80.004c0-3.904,1.855-6.54,6.638-8.786c3.026-1.366,5.271-1.854,8.785-3.317
				c6.929-2.732,8.688-7.907,8.688-13.861c0-2.049-0.294-4.489-1.368-6.539c1.465,1.757,3.222,4.49,3.222,9.859
				c0,5.563-1.854,10.736-8.004,13.762c-2.929,1.367-4.88,2.148-8.199,3.709c-3.807,1.952-5.953,4.685-5.953,7.906
				c0,2.537,1.171,4.489,2.245,5.563C79.231,87.226,76.889,83.712,76.889,80.004z M85.771,41.449c-1.951,0-3.904,0.097-5.955,0.293
				l-2.634-5.174h4.489c0,1.171,0.879,2.05,1.951,2.05c1.074,0,1.952-0.879,1.952-2.05h4.002c0,1.27,0.782,2.05,1.953,2.05
				c1.073,0,1.952-1.074,1.952-2.05h4.49l-3.027,5.368C92.507,41.644,89.383,41.449,85.771,41.449z M82.159,82.833
				c0-2.732,1.855-4.978,5.174-6.733c2.343-1.171,4.295-1.953,8.199-3.904c6.148-3.026,8.491-8.005,8.491-14.739
				c0-1.757-0.292-3.22-0.586-4.979c1.074,2.148,1.953,4.685,1.953,7.907c0,6.442-2.246,12.688-8.687,16.007
				c-2.733,1.366-4.295,2.244-6.345,3.222c-3.124,1.365-4.588,3.514-4.588,6.051c0,1.952,0.487,3.026,0.976,3.904
				C83.917,88.787,82.159,86.25,82.159,82.833z M87.138,99.427c0-0.976,0.293-1.562,1.464-1.756
				c-1.366-3.027-2.439-4.979-3.221-6.248c-0.292-0.487,0-0.78,0.391-0.78c0.585,0,1.073,0.195,1.464,0.78
				c0.683,0.879,1.562,2.245,2.245,3.514c1.269,2.246,2.05,4.393,2.147,7.516H90.65C88.602,102.452,87.138,100.988,87.138,99.427z
				 M94.067,127.439c0-0.683,0.098-1.073,0.391-1.757c-0.487-0.586-0.877-1.561-0.877-2.732c0-1.171,0.584-2.44,1.854-3.222
				c-0.391-2.928,1.952-4.88,4.587-4.88c2.929,0,4.393,2.05,4.881,4.1c0.391,1.463,0.975,1.952,1.659,2.05
				c1.268,0.194,3.318,0,4.1-0.196c0.879-0.194,1.27-0.682,1.27-2.146c0-2.441-0.685-5.663-1.27-8.396
				c-1.464,0.196-5.076,0.391-7.809,0.391c-6.052,0-9.469-2.733-10.054-8.687c-0.195-2.439-0.684-4.782-2.148-7.419
				c-1.073-2.049-3.513-4.781-3.513-8.296c0-2.635,0.977-4.197,4.002-5.662c2.147-0.975,4.686-2.146,6.833-3.415
				c-0.098,3.415,1.952,8.003,4.587,9.955c2.928,2.147,5.66,2.733,9.663,2.733c4.587,0,8.979-1.366,11.322-4.099
				c-1.366,0.879-3.222,1.365-5.564,1.365c-7.221,0-11.81-5.563-11.81-11.517c0-4.295,2.343-8.102,6.247-11.323
				c3.22-2.635,6.149-4.295,8.394-6.539c1.464-1.465,2.733-3.222,2.733-5.272c0-2.439-1.66-4.782-3.416-5.466
				c0.976-1.171,2.927-2.245,4.686-2.245c2.927,0,5.659,2.147,5.659,4.978c0,2.148-1.267,3.807-2.927,4.588
				c0.098,1.659-0.977,3.807-2.245,5.172c-2.44,2.636-6.93,5.466-9.858,7.809s-4.489,4.783-4.489,8.101
				c0,4.393,3.513,7.614,8.004,7.614c4.196,0,7.809-3.222,7.809-7.711c0-4.101-2.929-7.125-7.418-9.176l3.707-2.635
				c4.004,2.342,8.396,5.564,8.396,12.494c0,9.565-7.711,17.959-20.205,17.959c-3.903,0-4.978-0.488-7.418-1.464
				c1.562,1.464,3.221,3.611,3.319,6.246c1.951,0.586,3.318,0.879,7.516,0.879c1.854,0,4.392-0.293,6.441-0.879
				c1.465-0.39,2.343-0.976,2.83-1.659c0.489,0.781,0.782,1.659,0.782,2.441c0,2.244-1.661,4.001-3.416,4.392
				c0.683,6.93,1.269,13.86,1.269,20.106c0,4.686-2.343,7.517-5.662,7.517c0.196-0.196,0.293-0.488,0.293-0.781
				c0-1.854-2.049-2.733-3.514-2.733c-2.927,0-4.489,2.343-7.711,2.343c-2.831,0-4.002-2.343-6.148-2.343
				c-1.368,0-2.343,0.879-2.343,2.05c0,0.586,0.194,1.074,0.585,1.562C96.215,131.637,94.067,129.881,94.067,127.439z
				 M97.875,122.17c-1.855,0-2.831,1.463-2.636,2.634c0.391-0.487,1.171-1.171,2.733-1.171c1.268,0,2.244,0.586,2.829,1.27
				C100.802,123.535,99.827,122.17,97.875,122.17z M98.753,117.679c-1.562,0-2.343,0.879-2.439,1.659
				c0.391-0.194,0.975-0.39,1.854-0.39c1.562,0,2.832,0.879,3.222,1.757C101.583,119.144,100.607,117.679,98.753,117.679z
				 M110.954,54.138c-1.465-0.781-2.734-2.44-2.734-4.393c0-2.83,2.441-4.978,5.369-4.978c2.246,0,3.807,1.074,4.783,2.245
				c-1.855,0.977-3.318,3.32-3.318,5.466c0,2.832,1.463,4.588,2.83,6.053l-3.611,2.635
				C112.223,59.311,110.954,56.871,110.954,54.138z"/>
		</g>
		<g>
			<path d="M10.763,243.772c0-2.749,2.166-4.423,4.713-4.423c1.014,0,1.647,0.178,2.154,0.406v2.141
				c-0.481-0.239-1.027-0.417-1.812-0.417c-1.153,0-2.345,0.734-2.345,2.293c0,1.558,1.305,2.242,2.205,2.242
				c0.899,0,1.47-0.228,1.964-0.494v2.166c-0.52,0.268-1.381,0.533-2.407,0.533C12.701,248.22,10.763,246.521,10.763,243.772z
				 M12.169,236.993h2.154l0.861,0.938h0.051l0.861-0.938h2.154l-1.736,1.951h-2.609L12.169,236.993z"/>
			<path d="M19.513,239.464h5.943v1.965h-3.46v1.381h3.345v1.912h-3.345v1.395h3.46v1.964h-5.943V239.464z"/>
			<path d="M27.415,247.625v-2.257c0.557,0.394,1.709,0.888,2.85,0.888c0.837,0,1.293-0.241,1.293-0.672
				c0-0.342-0.316-0.494-0.785-0.608c-0.558-0.14-0.9-0.216-1.547-0.38c-1.164-0.291-1.912-1.127-1.912-2.458
				c0-1.748,1.583-2.876,3.725-2.876c1.014,0,1.926,0.202,2.484,0.443v2.141c-0.432-0.24-1.307-0.57-2.357-0.57
				c-0.963,0-1.395,0.242-1.395,0.621c0,0.33,0.254,0.494,0.836,0.621c0.432,0.089,0.748,0.14,1.318,0.279
				c1.406,0.342,2.129,1.165,2.129,2.571c0,1.432-1.306,2.915-3.662,2.915C29.101,248.283,28.11,248.017,27.415,247.625z"/>
			<path d="M41.018,248.08l-2.496-4.143v4.143h-2.483v-8.616h2.483v3.967l2.407-3.967h3.029l-2.877,4.168l2.914,4.448H41.018z"/>
			<path d="M45.599,239.464h5.943v1.965h-3.459v1.381h3.344v1.912h-3.344v1.395h3.459v1.964h-5.943V239.464z M48.398,236.993h2.89
				l-1.787,1.951h-2.102L48.398,236.993z"/>
			<path d="M55.552,239.464h2.787l1.47,6.449h0.05l1.471-6.449h2.787l-2.584,8.616h-3.396L55.552,239.464z"/>
			<path d="M67.279,244.925l-2.914-5.461h2.812l1.356,3.079h0.049l1.408-3.079h2.749l-2.978,5.461v3.155h-2.483V244.925z"/>
			<path d="M73.559,247.625v-2.257c0.558,0.394,1.71,0.888,2.851,0.888c0.837,0,1.293-0.241,1.293-0.672
				c0-0.342-0.316-0.494-0.786-0.608c-0.558-0.14-0.899-0.216-1.545-0.38c-1.165-0.291-1.914-1.127-1.914-2.458
				c0-1.748,1.585-2.876,3.726-2.876c1.014,0,1.926,0.202,2.483,0.443v2.141c-0.432-0.24-1.306-0.57-2.356-0.57
				c-0.963,0-1.394,0.242-1.394,0.621c0,0.33,0.253,0.494,0.836,0.621c0.431,0.089,0.746,0.14,1.316,0.279
				c1.407,0.342,2.13,1.165,2.13,2.571c0,1.432-1.306,2.915-3.662,2.915C75.244,248.283,74.255,248.017,73.559,247.625z"/>
			<path d="M81.676,243.772c0-2.876,1.761-4.511,4.32-4.511c2.571,0,4.294,1.635,4.294,4.511c0,2.875-1.723,4.511-4.294,4.511
				C83.437,248.283,81.676,246.647,81.676,243.772z M87.63,243.772c0-1.42-0.519-2.306-1.634-2.306
				c-1.102,0-1.659,0.886-1.659,2.306c0,1.419,0.558,2.306,1.659,2.306C87.111,246.078,87.63,245.191,87.63,243.772z"/>
			<path d="M97.279,248.08l-2.495-4.143v4.143h-2.483v-8.616h2.483v3.967l2.406-3.967h3.028l-2.876,4.168l2.914,4.448H97.279z"/>
			<path d="M101.86,239.464h5.942v1.965h-3.458v1.381h3.344v1.912h-3.344v1.395h3.458v1.964h-5.942V239.464z M104.66,236.993h2.89
				l-1.786,1.951h-2.104L104.66,236.993z"/>
		</g>
		<g>
			<path d="M11.206,260.273v-5.436h2.483v5.207c0,0.976,0.532,1.407,1.229,1.407c0.696,0,1.229-0.432,1.229-1.407v-5.207h2.483
				v5.436c0,2.407-1.685,3.382-3.712,3.382C12.891,263.655,11.206,262.681,11.206,260.273z"/>
		</g>
		<g>
			<path d="M20.589,259.146c0-2.749,2.168-4.422,4.714-4.422c1.013,0,1.647,0.178,2.154,0.405v2.142
				c-0.482-0.241-1.026-0.419-1.812-0.419c-1.153,0-2.343,0.735-2.343,2.294c0,1.558,1.304,2.243,2.203,2.243
				c0.9,0,1.47-0.229,1.965-0.494v2.166c-0.52,0.267-1.382,0.532-2.408,0.532C22.528,263.593,20.589,261.896,20.589,259.146z
				 M21.996,252.367h2.153l0.861,0.938h0.051l0.861-0.938h2.154l-1.734,1.951h-2.611L21.996,252.367z"/>
		</g>
		<g>
			<path d="M29.341,254.838h5.941v1.965h-3.459v1.38h3.346v1.913h-3.346v1.395h3.459v1.963h-5.941V254.838z"/>
			<path d="M37.545,254.838h3.054l2.584,5.144h0.039v-5.144h2.482v8.615h-3.027l-2.609-5.169h-0.039v5.169h-2.483V254.838z"/>
			<path d="M49.158,252.367h2.889l-1.786,1.951h-2.104L49.158,252.367z M48.232,254.838h2.483v8.615h-2.483V254.838z"/>
			<path d="M57.3,256.852h-2.153v-2.014h6.778v2.014h-2.141v6.602H57.3V256.852z"/>
			<path d="M63.53,254.838h5.941v1.965h-3.458v1.38h3.345v1.913h-3.345v1.395h3.458v1.963H63.53V254.838z"/>
			<path d="M71.229,259.146c0-2.749,2.166-4.422,4.714-4.422c1.013,0,1.646,0.178,2.154,0.405v2.142
				c-0.482-0.241-1.027-0.419-1.813-0.419c-1.152,0-2.342,0.735-2.342,2.294c0,1.558,1.303,2.243,2.203,2.243
				c0.899,0,1.47-0.229,1.963-0.494v2.166c-0.52,0.267-1.38,0.532-2.407,0.532C73.167,263.593,71.229,261.896,71.229,259.146z"/>
			<path d="M82.45,254.838v3.294h2.547v-3.294h2.482v8.615h-2.482v-3.37H82.45v3.37h-2.483v-8.615H82.45z"/>
			<path d="M90.009,254.838h3.054l2.584,5.144h0.038v-5.144h2.483v8.615H95.14l-2.611-5.169h-0.037v5.169h-2.482V254.838z"/>
			<path d="M100.696,254.838h2.482v8.615h-2.482V254.838z"/>
			<path d="M105.203,259.146c0-2.749,2.168-4.422,4.713-4.422c1.015,0,1.648,0.178,2.154,0.405v2.142
				c-0.48-0.241-1.025-0.419-1.812-0.419c-1.153,0-2.344,0.735-2.344,2.294c0,1.558,1.306,2.243,2.204,2.243
				c0.899,0,1.471-0.229,1.965-0.494v2.166c-0.52,0.267-1.382,0.532-2.408,0.532C107.143,263.593,105.203,261.896,105.203,259.146z"
				/>
			<path d="M118.934,263.453l-2.497-4.143v4.143h-2.483v-8.615h2.483v3.966l2.408-3.966h3.028l-2.876,4.168l2.914,4.447H118.934z"/>
			<path d="M123.502,254.838h5.942v1.965h-3.459v1.38h3.345v1.913h-3.345v1.395h3.459v1.963h-5.942V254.838z M126.302,252.367h2.889
				l-1.786,1.951h-2.103L126.302,252.367z"/>
		</g>
		<g>
			<path d="M10.319,270.21h2.787l1.471,6.449h0.05l1.47-6.449h2.787l-2.585,8.616h-3.396L10.319,270.21z"/>
		</g>
		<g>
			<path d="M23.642,270.21h3.75c2.015,0,3.27,1.382,3.27,2.966s-1.255,2.862-3.27,2.862h-1.267v2.788h-2.483V270.21z
				 M27.101,274.189c0.545,0,1.038-0.444,1.038-1.065c0-0.607-0.493-1.064-1.038-1.064h-0.976v2.13H27.101z"/>
			<path d="M32.48,270.21h3.953c2.015,0,3.243,1.293,3.243,2.839c0,1.47-1.076,2.116-1.838,2.458l-0.012,0.05
				c0.114,0.076,0.316,0.33,0.481,0.609l1.583,2.66h-2.8l-1.495-3.027h-0.633v3.027H32.48V270.21z M35.965,274.189
				c0.671,0,1.063-0.533,1.063-1.078c0-0.544-0.393-1.063-1.063-1.063h-1.001v2.142H35.965z"/>
			<path d="M46.146,277.04h-2.748l-0.469,1.786h-2.547l2.572-8.616h3.636l2.585,8.616h-2.547L46.146,277.04z M45.679,275.279
				l-0.85-3.182h-0.113l-0.85,3.182H45.679z"/>
			<path d="M49.854,276.926l3.598-4.7h-3.521v-2.016h6.625v1.812l-3.66,4.789h3.725v2.015h-6.766V276.926z"/>
			<path d="M58.517,270.21h5.94v1.965h-3.458v1.381h3.345v1.913h-3.345v1.394h3.458v1.964h-5.94V270.21z"/>
		</g>
	</g>
</g>
</svg>
